<svg viewBox="0 0 100 100" xmlns="http://www.w3.org/2000/svg" id="Lightning--Streamline-Ux">
  <desc>
    Lightning Streamline Illustration: https://streamlinehq.com
  </desc>
  <path d="M10 50a40 40 0 1 0 80 0 40 40 0 1 0 -80 0Z" fill="#e8f4fa60" stroke="none" stroke-width="1"></path>
  <path d="M47.982 23.484a1.1 1.1 0 0 0 -1 0.639L35.547 48.956a3.032 3.032 0 0 0 2.632 4.536h6.789a3.03 3.03 0 0 1 2.89 3.944l-5.4 17.108a1.516 1.516 0 0 0 2.629 1.4l19.1 -26.624a3.032 3.032 0 0 0 -2.366 -4.92H56.36a3.032 3.032 0 0 1 -2.712 -4.387L63.69 25.2a1.1 1.1 0 0 0 -0.909 -1.715Z" fill="#ffe500" stroke-width="1"></path>
  <path d="M60.521 27.53a1.171 1.171 0 0 1 1.035 0.623 1.2 1.2 0 0 1 0.053 0.115L63.69 25.2a1.1 1.1 0 0 0 -0.91 -1.715h-14.8a1.1 1.1 0 0 0 -1 0.639l-1.565 3.406Z" fill="#fff48c" stroke-width="1"></path>
  <path d="M64.553 46.115a3.031 3.031 0 0 0 -2.732 -1.715h-5.462a3.031 3.031 0 0 1 -3.03 -3l-2.547 3.757a3.233 3.233 0 0 0 2.892 4.679H59.5a3.235 3.235 0 0 1 2.914 1.832c0.013 0.027 0.025 0.054 0.037 0.081l1.739 -2.424a3.033 3.033 0 0 0 0.363 -3.21Z" fill="#fff48c" stroke-width="1"></path>
  <path d="M47.982 23.484a1.1 1.1 0 0 0 -1 0.639L35.547 48.956a3.032 3.032 0 0 0 2.632 4.536h6.789a3.03 3.03 0 0 1 2.89 3.944l-5.4 17.108a1.516 1.516 0 0 0 2.629 1.4l19.1 -26.624a3.032 3.032 0 0 0 -2.366 -4.92H56.36a3.032 3.032 0 0 1 -2.712 -4.387L63.69 25.2a1.1 1.1 0 0 0 -0.909 -1.715Z" fill="none" stroke="#45413c" stroke-linecap="round" stroke-linejoin="round" stroke-width="1"></path>
</svg>