<svg width="1000" height="1000" xmlns="http://www.w3.org/2000/svg">
 <defs>
  <style>.a{fill:currentColor;stroke:none;}</style>
 </defs>
 <title>retouch-triangle</title>
 <g>
  <title>background</title>
 </g>
 <g>
  <title>Layer 1</title>
  <polygon stroke="null" transform="rotate(37.846553802490234 181.63340759277335,654.4943847656251) " id="svg_12" points="168.2266082763672,666.4828948974609 181.6334228515625,642.5059051513672 195.0402069091797,666.4828948974609 168.2266082763672,666.4828948974609 " class="a"/>
  <polygon stroke="null" transform="rotate(37.846553802490234 40.31156158447262,219.2596893310547) " id="svg_36" points="32.38413619995117,226.34847259521484 40.31156921386719,212.17090797424316 48.238983154296875,226.34847259521484 32.38413619995117,226.34847259521484 " class="a"/>
  <polygon stroke="null" transform="rotate(37.846553802490234 94.97822570800778,44.59301757812501) " id="svg_39" points="87.0508041381836,51.68180847167969 94.97823715209961,37.504241943359375 102.9056510925293,51.68180847167969 87.0508041381836,51.68180847167969 " class="a"/>
  <polygon stroke="null" transform="rotate(37.846553802490234 956.3115234374998,968.5930175781251) " id="svg_16" points="948.3841171264648,975.6818084716797 956.3115539550781,961.5042419433594 964.2389678955078,975.6818084716797 948.3841171264648,975.6818084716797 " class="a"/>
  <polygon stroke="null" transform="rotate(37.846553802490234 375.3144836425779,750.2643432617189) " id="svg_34" points="367.3870544433594,757.3531646728516 375.31451416015625,743.1756134033203 383.2419128417969,757.3531646728516 367.3870544433594,757.3531646728516 " class="a"/>
  <polygon stroke="null" transform="rotate(37.846553802490234 521.9811401367184,867.5977783203126) " id="svg_2" points="514.0537109375,874.686502456665 521.9811706542969,860.5089511871338 529.9085693359375,874.686502456665 514.0537109375,874.686502456665 " class="a"/>
  <polygon transform="rotate(-56.890342712402344 506.50225830078114,351.2335815429687) " stroke="null" id="svg_27" points="489.5022277832031,366.43524169921875 506.5022888183594,336.03196716308594 523.5023193359375,366.43524169921875 489.5022277832031,366.43524169921875 " class="a"/>
  <polygon transform="rotate(-56.890342712402344 774.5022583007812,749.9002685546875) " stroke="null" id="svg_22" points="757.5022277832031,765.1018981933594 774.5022888183594,734.6986389160156 791.5023193359375,765.1018981933594 757.5022277832031,765.1018981933594 " class="a"/>
  <polygon transform="rotate(-56.890342712402344 727.8355712890625,129.90025329589844) " stroke="null" id="svg_30" points="710.8355560302734,145.10191345214844 727.8356170654297,114.69865417480469 744.8356475830078,145.10191345214844 710.8355560302734,145.10191345214844 " class="a"/>
  <polygon transform="rotate(-56.890342712402344 491.5021362304686,642.2361450195312) " stroke="null" id="svg_23" points="474.5021057128906,657.4377899169922 491.5021667480469,627.0345306396484 508.502197265625,657.4377899169922 474.5021057128906,657.4377899169922 " class="a"/>
  <polygon transform="rotate(-56.890342712402344 346.16882324218756,136.9028015136719) " stroke="null" id="svg_3" points="329.1687774658203,152.10446166992188 346.16883850097656,121.70120239257812 363.1688690185547,152.10446166992188 329.1687774658203,152.10446166992188 " class="a"/>
  <polygon transform="rotate(52.79204177856445 668.5036621093751,338.2334899902343) " stroke="null" id="svg_31" points="651.503662109375,353.43511962890625 668.5037231445312,323.03184509277344 685.5037231445312,353.43511962890625 651.503662109375,353.43511962890625 " class="a"/>
  <polygon transform="rotate(52.79204177856445 223.17031860351562,879.5667724609375) " stroke="null" id="svg_4" points="206.17031860351562,894.7684326171875 223.17037963867188,864.3651733398438 240.17037963867188,894.7684326171875 206.17031860351562,894.7684326171875 " class="a"/>
  <polygon transform="rotate(-19.72321891784668 397.5013122558591,471.2346801757813) " stroke="null" id="svg_28" points="380.50128173828125,486.43629455566406 397.5013427734375,456.0330352783203 414.5013427734375,486.43629455566406 380.50128173828125,486.43629455566406 " class="a"/>
  <polygon transform="rotate(26.251686096191406 811.5034790039066,413.2669372558593) " stroke="null" id="svg_37" points="788.5033773183823,433.8338928222656 811.5034993886948,392.6999816894531 834.503560423851,433.8338928222656 788.5033773183823,433.8338928222656 " class="a"/>
  <polygon stroke="null" id="svg_6" points="767.1700286865234,757.8339080810547 790.1701507568359,716.6999969482422 813.1702117919922,757.8339080810547 767.1700286865234,757.8339080810547 " class="a"/>
  <polygon stroke="null" transform="rotate(128.2246551513672 791.9322509765625,625.07275390625) " id="svg_7" points="769.8258666992188,644.8405914306641 791.932373046875,605.3049468994141 814.0386962890625,644.8405914306641 769.8258666992188,644.8405914306641 " class="a"/>
  <polygon stroke="null" id="svg_24" points="468.5020751953125,628.0722503662109 482.5021057128906,603.0343170166016 496.5020751953125,628.0722503662109 468.5020751953125,628.0722503662109 " class="a"/>
  <polygon stroke="null" id="svg_14" points="323.1687469482422,122.73892211914062 337.1687774658203,97.70095825195312 351.1687469482422,122.73892211914062 323.1687469482422,122.73892211914062 " class="a"/>
  <polygon stroke="null" id="svg_25" points="496.8385696411133,883.0688858032227 506.8385696411133,865.1847305297852 516.838508605957,883.0688858032227 496.8385696411133,883.0688858032227 " class="a"/>
  <polygon stroke="null" id="svg_8" points="358.1719055175781,155.06893920898438 368.1719055175781,137.18475341796875 378.1718444824219,155.06893920898438 358.1719055175781,155.06893920898438 " class="a"/>
  <polygon stroke="null" transform="rotate(45 148.00160217285162,374.2313232421875) " id="svg_10" points="124.28400421142578,395.4398651123047 148.00164794921875,353.0227508544922 171.71920776367188,395.4398651123047 124.28400421142578,395.4398651123047 " class="a"/>
  <polygon stroke="null" transform="rotate(-24.27342414855957 184.29165649414048,435.2734680175782) " id="svg_18" points="172.14459228515625,446.13551330566406 184.29168701171875,424.4114074707031 196.438720703125,446.13551330566406 172.14459228515625,446.13551330566406 " class="a"/>
  <polygon stroke="null" transform="rotate(24.565126419067383 681.2960205078125,350.27270507812483) " id="svg_33" points="669.14892578125,361.13475036621094 681.2960205078125,339.41065979003906 693.4430541992188,361.13475036621094 669.14892578125,361.13475036621094 " class="a"/>
  <polygon stroke="null" transform="rotate(24.565126419067383 235.9626770019536,891.606018066406) " id="svg_13" points="223.81558227539062,902.4680480957031 235.96267700195312,880.7439575195312 248.10971069335938,902.4680480957031 223.81558227539062,902.4680480957031 " class="a"/>
  <polygon stroke="null" transform="rotate(-24.27342414855957 637.5173339843753,747.2679443359375) " id="svg_19" points="629.4545288085938,754.4778594970703 637.517333984375,740.0580596923828 645.5802001953125,754.4778594970703 629.4545288085938,754.4778594970703 " class="a"/>
  <polygon stroke="null" transform="rotate(-24.27342414855957 405.51531982421886,466.26550292968767) " id="svg_29" points="397.4524841308594,473.4753875732422 405.5152893066406,459.0555877685547 413.5781555175781,473.4753875732422 397.4524841308594,473.4753875732422 " class="a"/>
  <polygon stroke="null" transform="rotate(-24.27342414855957 543.5165405273439,210.26325988769528) " id="svg_1" points="535.4537353515625,217.47315979003906 543.5164794921875,203.05335998535156 551.579345703125,217.47315979003906 535.4537353515625,217.47315979003906 " class="a"/>
 </g>
</svg>