<svg id="Multicolor" xmlns="http://www.w3.org/2000/svg" xmlns:xlink="http://www.w3.org/1999/xlink" viewBox="0 0 100 112"><defs><style>.cls-1,.cls-10,.cls-3{fill:none;}.cls-2{fill:#e8f4fa60;}.cls-10,.cls-3,.cls-4,.cls-5,.cls-8{stroke:#191816;stroke-linejoin:round;}.cls-3,.cls-4,.cls-5{stroke-linecap:round;}.cls-4{fill:#e0e0e0;}.cls-5{fill:#fff;}.cls-6{clip-path:url(#clip-path);}.cls-7{fill:#ffcebf;}.cls-8{fill:#009fd9;}.cls-9{fill:#00b8f0;}.cls-11{fill:#ffb59e;}</style><clipPath id="clip-path"><circle class="cls-1" cx="50.41" cy="56" r="40"/></clipPath></defs><title>06- keyboard-hand</title><g id="Background"><g id="New_Symbol_51-14" data-name="New Symbol 51"><circle class="cls-2" cx="50.41" cy="56" r="40"/></g></g><g id="Scene"><path class="cls-3" d="M50.41,43.5V38.75a6.25,6.25,0,0,1,6.25-6.25,6.25,6.25,0,0,0,6.25-6.25V18.5"/><rect class="cls-4" x="22.41" y="43.5" width="54" height="25" rx="2" ry="2"/><rect class="cls-5" x="29.41" y="61.5" width="25" height="4"/><rect class="cls-5" x="25.41" y="54.5" width="4" height="4"/><rect class="cls-5" x="25.41" y="61.5" width="4" height="4"/><rect class="cls-5" x="29.41" y="54.5" width="4" height="4"/><rect class="cls-5" x="33.41" y="54.5" width="4" height="4"/><rect class="cls-5" x="37.41" y="54.5" width="4" height="4"/><rect class="cls-5" x="41.41" y="54.5" width="4" height="4"/><rect class="cls-5" x="45.41" y="54.5" width="4" height="4"/><rect class="cls-5" x="49.41" y="54.5" width="4" height="4"/><rect class="cls-5" x="53.41" y="54.5" width="4" height="4"/><rect class="cls-5" x="57.41" y="54.5" width="4" height="4"/><rect class="cls-5" x="25.41" y="50.5" width="4" height="4"/><rect class="cls-5" x="29.41" y="50.5" width="4" height="4"/><rect class="cls-5" x="33.41" y="50.5" width="4" height="4"/><rect class="cls-5" x="37.41" y="50.5" width="4" height="4"/><rect class="cls-5" x="41.41" y="50.5" width="4" height="4"/><rect class="cls-5" x="45.41" y="50.5" width="4" height="4"/><rect class="cls-5" x="49.41" y="50.5" width="4" height="4"/><rect class="cls-5" x="53.41" y="50.5" width="4" height="4"/><rect class="cls-5" x="57.41" y="50.5" width="4" height="4"/><rect class="cls-5" x="61.41" y="50.5" width="4" height="4"/><rect class="cls-5" x="65.41" y="50.5" width="4" height="4"/><rect class="cls-5" x="69.41" y="50.5" width="4" height="4"/><rect class="cls-5" x="25.41" y="46.5" width="4" height="4"/><rect class="cls-5" x="29.41" y="46.5" width="4" height="4"/><rect class="cls-5" x="33.41" y="46.5" width="4" height="4"/><rect class="cls-5" x="37.41" y="46.5" width="4" height="4"/><rect class="cls-5" x="41.41" y="46.5" width="4" height="4"/><rect class="cls-5" x="45.41" y="46.5" width="4" height="4"/><rect class="cls-5" x="49.41" y="46.5" width="4" height="4"/><rect class="cls-5" x="53.41" y="46.5" width="4" height="4"/><rect class="cls-5" x="57.41" y="46.5" width="4" height="4"/><rect class="cls-5" x="61.41" y="46.5" width="4" height="4"/><rect class="cls-5" x="65.41" y="46.5" width="4" height="4"/><rect class="cls-5" x="69.41" y="46.5" width="4" height="4"/><rect class="cls-5" x="54.41" y="61.5" width="4" height="4"/><rect class="cls-5" x="69.41" y="61.5" width="4" height="4"/><rect class="cls-5" x="65.41" y="61.5" width="4" height="4"/><rect class="cls-5" x="65.41" y="57.5" width="4" height="4"/><rect class="cls-5" x="61.41" y="61.5" width="4" height="4"/><g class="cls-6"><path class="cls-7" d="M31,75.08a1.84,1.84,0,0,0-2-1.65c-.45,0-3.83.57-4.23.21-.86-.79-.32-3,1.27-4.5l8.26-7.9a1.84,1.84,0,1,0-2.47-2.73L24,65.85l7.89-9.13a1.84,1.84,0,0,0-2.67-2.53l-8,9.37,6.51-8.8a1.84,1.84,0,1,0-3-2.14l-1.44,2a1.84,1.84,0,0,0-3.38-1.07L13,64a31.4,31.4,0,0,0-4.54,8.4L6.58,74.69l8.17,6.72c1.4-1.69,4.1-1.92,14.61-4.32A1.84,1.84,0,0,0,31,75.08Z"/><line class="cls-7" x1="23.3" y1="54.66" x2="18.43" y2="61.79"/><rect class="cls-8" x="3.8" y="75.72" width="6.44" height="14.26" rx="0.92" ry="0.92" transform="translate(-61.42 35.63) rotate(-50.55)"/><path class="cls-9" d="M4.27,76.42a.93.93,0,0,0-1.3.13L.05,80.1a.93.93,0,0,0,.12,1.3l1.07.87,4.09-5Z"/><rect class="cls-10" x="3.8" y="75.72" width="6.44" height="14.26" rx="0.92" ry="0.92" transform="translate(-61.42 35.63) rotate(-50.55)"/><path class="cls-5" d="M9.48,73.09h1.84a0,0,0,0,1,0,0V85.52a0,0,0,0,1,0,0H9.48a.92.92,0,0,1-.92-.92V74A.92.92,0,0,1,9.48,73.09Z" transform="translate(77.49 122.02) rotate(129.45)"/><path class="cls-11" d="M14.64,75.07A19.81,19.81,0,0,1,9.8,69.18C9,70.94,8.58,72.26,8.45,72.41L6.58,74.69l8.17,6.72c1-1.17,2.57-1.64,6.94-2.62A19.67,19.67,0,0,1,14.64,75.07Z"/><path class="cls-3" d="M31,75.08a1.84,1.84,0,0,0-2-1.65c-.45,0-3.83.57-4.23.21-.86-.79-.32-3,1.27-4.5l8.26-7.9a1.84,1.84,0,1,0-2.47-2.73L24,65.85l7.89-9.13a1.84,1.84,0,0,0-2.67-2.53l-8,9.37,6.51-8.8a1.84,1.84,0,1,0-3-2.14l-1.44,2a1.84,1.84,0,0,0-3.38-1.07L13,64a31.4,31.4,0,0,0-4.54,8.4L6.58,74.69l8.17,6.72c1.4-1.69,4.1-1.92,14.61-4.32A1.84,1.84,0,0,0,31,75.08Z"/><line class="cls-3" x1="23.3" y1="54.66" x2="18.43" y2="61.79"/><path class="cls-7" d="M71.81,74.08a1.84,1.84,0,0,1,2-1.65c.45,0,3.83.57,4.23.21.86-.79.31-3-1.27-4.5l-8.26-7.9A1.84,1.84,0,0,1,71,57.51l7.84,7.34-7.9-9.13a1.84,1.84,0,0,1,2.68-2.53l8,9.37-6.52-8.8a1.84,1.84,0,0,1,3-2.14l1.45,2a1.84,1.84,0,0,1,3.38-1.07L89.84,63a30.9,30.9,0,0,1,4.53,8.4l1.87,2.28-8.17,6.72c-1.39-1.69-4.09-1.92-14.61-4.32A1.84,1.84,0,0,1,71.81,74.08Z"/><line class="cls-7" x1="79.53" y1="53.66" x2="84.4" y2="60.79"/><rect class="cls-8" x="92.59" y="74.72" width="6.44" height="14.26" rx="0.92" ry="0.92" transform="translate(93.49 207.85) rotate(-129.45)"/><path class="cls-9" d="M98.56,75.42a.93.93,0,0,1,1.3.13l2.92,3.55a.92.92,0,0,1-.13,1.3l-1.06.87-4.1-5Z"/><rect class="cls-10" x="92.59" y="74.72" width="6.44" height="14.26" rx="0.92" ry="0.92" transform="translate(93.49 207.85) rotate(-129.45)"/><path class="cls-5" d="M92.43,72.09h1.84a0,0,0,0,1,0,0V84.52a0,0,0,0,1,0,0H92.43a.92.92,0,0,1-.92-.92V73A.92.92,0,0,1,92.43,72.09Z" transform="translate(94.33 -43.18) rotate(50.55)"/><path class="cls-11" d="M88.19,74.07A19.63,19.63,0,0,0,93,68.18c.82,1.76,1.23,3.08,1.35,3.23l1.87,2.28-8.17,6.72c-1-1.17-2.56-1.64-6.93-2.62A19.75,19.75,0,0,0,88.19,74.07Z"/><path class="cls-3" d="M71.81,74.08a1.84,1.84,0,0,1,2-1.65c.45,0,3.83.57,4.23.21.86-.79.31-3-1.27-4.5l-8.26-7.9A1.84,1.84,0,0,1,71,57.51l7.84,7.34-7.9-9.13a1.84,1.84,0,0,1,2.68-2.53l8,9.37-6.52-8.8a1.84,1.84,0,0,1,3-2.14l1.45,2a1.84,1.84,0,0,1,3.38-1.07L89.84,63a30.9,30.9,0,0,1,4.53,8.4l1.87,2.28-8.17,6.72c-1.39-1.69-4.09-1.92-14.61-4.32A1.84,1.84,0,0,1,71.81,74.08Z"/><line class="cls-3" x1="79.53" y1="53.66" x2="84.4" y2="60.79"/></g></g></svg>