<svg id="Multicolor" xmlns="http://www.w3.org/2000/svg" viewBox="0 0 100 112"><defs><style>.cls-1{fill:#e8f4fa60;}.cls-2{fill:#fff;}.cls-13,.cls-14,.cls-15,.cls-17,.cls-3{fill:none;}.cls-12,.cls-18,.cls-3,.cls-9{stroke:#191816;}.cls-12,.cls-13,.cls-14,.cls-15,.cls-17,.cls-18,.cls-3,.cls-9{stroke-linecap:round;}.cls-12,.cls-14,.cls-17,.cls-18,.cls-3,.cls-9{stroke-linejoin:round;}.cls-4{fill:#dea47a;}.cls-5{fill:#bf8256;}.cls-6{fill:#191816;opacity:0.15;}.cls-7{fill:#f0c2a1;}.cls-8,.cls-9{fill:#f0f0f0;}.cls-10,.cls-18{fill:#00b8f0;}.cls-11{fill:#4acfff;}.cls-12{fill:#ffe500;}.cls-13{stroke:#ff4064;}.cls-13,.cls-15{stroke-miterlimit:10;}.cls-14{stroke:#00aed9;}.cls-15{stroke:#ffb700;}.cls-16{fill:#ffb700;}.cls-17{stroke:#48cf3e;}</style></defs><title>02- owl-laptop-study</title><g id="Background"><g id="New_Symbol_28-4" data-name="New Symbol 28"><path class="cls-1" d="M90.49,56A40,40,0,1,0,14.06,72.5H86.93A39.85,39.85,0,0,0,90.49,56Z"/><path class="cls-2" d="M14.06,72.5a40,40,0,0,0,72.87,0Z"/><line class="cls-3" x1="10.99" y1="72.5" x2="88.99" y2="72.5"/><line class="cls-3" x1="6.49" y1="72.5" x2="8.99" y2="72.5"/><line class="cls-3" x1="90.99" y1="72.5" x2="93.49" y2="72.5"/></g></g><g id="Scene"><path class="cls-4" d="M65.13,28.91V24.69a1,1,0,0,0-1.8-.51l-1.78,2.88a13.28,13.28,0,0,0-8,0l-1.78-2.88a1,1,0,0,0-1.8.51v4.22c-2.12,1.63-2.07,3.94-2.07,6.5,0,0-1.61,14.49,9.66,14.49s9.66-9.53,9.66-14.49C67.2,32.85,67.25,30.54,65.13,28.91Z"/><path class="cls-5" d="M57.54,46.45a11.25,11.25,0,0,1-9.46-5.66c.67,4.12,2.85,9.11,9.46,9.11,8.09,0,9.54-4.9,9.71-9.51A11.35,11.35,0,0,1,57.54,46.45Z"/><ellipse class="cls-6" cx="49.59" cy="82.22" rx="22.56" ry="1.73"/><path class="cls-7" d="M57.54,29.89a10.93,10.93,0,0,1,9.68,6.44c0-.32,0-.63,0-.92,0-2.56,0-4.87-2.07-6.5V24.69a1,1,0,0,0-1.8-.51l-1.78,2.88a13.28,13.28,0,0,0-8,0l-1.78-2.88a1,1,0,0,0-1.8.51v4.22c-2.12,1.63-2.07,3.94-2.07,6.5,0,0,0,.39-.06,1A10.93,10.93,0,0,1,57.54,29.89Z"/><path class="cls-3" d="M65.13,28.91V24.69a1,1,0,0,0-1.8-.51l-1.78,2.88a13.28,13.28,0,0,0-8,0l-1.78-2.88a1,1,0,0,0-1.8.51v4.22c-2.12,1.63-2.07,3.94-2.07,6.5,0,0-1.61,14.49,9.66,14.49s9.66-9.53,9.66-14.49C67.2,32.85,67.25,30.54,65.13,28.91Z"/><circle class="cls-8" cx="51.68" cy="35.07" r="4.49"/><path class="cls-2" d="M51.68,30.58a4.48,4.48,0,0,0-3.69,7l6.24-6.23A4.42,4.42,0,0,0,51.68,30.58Z"/><path class="cls-9" d="M32.34,52.66H67.56a2.4,2.4,0,0,1,2.4,2.4V76.12a0,0,0,0,1,0,0h-40a0,0,0,0,1,0,0V55.06A2.4,2.4,0,0,1,32.34,52.66Z"/><path class="cls-10" d="M34.58,56.8H65.32a.5.5,0,0,1,.5.5V76.12a0,0,0,0,1,0,0H34.08a0,0,0,0,1,0,0V57.3A.5.5,0,0,1,34.58,56.8Z"/><path class="cls-11" d="M34.66,56.8a.58.58,0,0,0-.58.58V76.12h.38L53.78,56.8Z"/><path class="cls-8" d="M64.91,81.64H35a8.21,8.21,0,0,1-6.91-3.74,1.15,1.15,0,0,1,1-1.78H70.86a1.15,1.15,0,0,1,1,1.78A8.2,8.2,0,0,1,64.91,81.64Z"/><path class="cls-2" d="M28.85,78.88h42.2a7.15,7.15,0,0,0,.76-1,1.14,1.14,0,0,0,.07-1.18,1.16,1.16,0,0,0-1-.61H29a1.16,1.16,0,0,0-1,.61,1.14,1.14,0,0,0,.06,1.18A7.15,7.15,0,0,0,28.85,78.88Z"/><circle class="cls-3" cx="51.68" cy="35.07" r="4.49"/><circle class="cls-8" cx="63.41" cy="35.07" r="4.49"/><path class="cls-2" d="M63.41,30.58a4.48,4.48,0,0,0-3.69,7L66,31.39A4.42,4.42,0,0,0,63.41,30.58Z"/><circle class="cls-3" cx="63.41" cy="35.07" r="4.49"/><line class="cls-3" x1="56.16" y1="34.03" x2="58.92" y2="34.03"/><path class="cls-12" d="M55.86,40.24a.58.58,0,0,0-.48.9l1.68,2.52a.57.57,0,0,0,1,0l1.68-2.52a.58.58,0,0,0-.47-.9Z"/><path class="cls-3" d="M64.91,81.64H35a8.21,8.21,0,0,1-6.91-3.74,1.15,1.15,0,0,1,1-1.78H70.86a1.15,1.15,0,0,1,1,1.78A8.2,8.2,0,0,1,64.91,81.64Z"/><path class="cls-3" d="M34.58,56.8H65.32a.5.5,0,0,1,.5.5V76.12a0,0,0,0,1,0,0H34.08a0,0,0,0,1,0,0V57.3A.5.5,0,0,1,34.58,56.8Z"/><path class="cls-12" d="M56.16,52.66a1.38,1.38,0,0,1-2.76,0V50.59a1.38,1.38,0,1,1,2.76,0Z"/><path class="cls-12" d="M53.4,52.66a1.38,1.38,0,0,1-2.76,0V50.59a1.38,1.38,0,1,1,2.76,0Z"/><path class="cls-12" d="M64.44,52.66a1.38,1.38,0,0,1-2.76,0V50.59a1.38,1.38,0,1,1,2.76,0Z"/><path class="cls-12" d="M61.68,52.66a1.38,1.38,0,0,1-2.76,0V50.59a1.38,1.38,0,1,1,2.76,0Z"/><line class="cls-13" x1="77.32" y1="55.88" x2="84.22" y2="55.88"/><line class="cls-13" x1="77.32" y1="58.64" x2="84.22" y2="58.64"/><line class="cls-14" x1="14.65" y1="53.47" x2="21.55" y2="53.47"/><line class="cls-14" x1="14.65" y1="53.47" x2="21.55" y2="53.47"/><line class="cls-14" x1="18.1" y1="50.02" x2="18.1" y2="56.92"/><line class="cls-14" x1="23.27" y1="45.65" x2="26.03" y2="45.65"/><line class="cls-14" x1="23.27" y1="45.65" x2="26.03" y2="45.65"/><line class="cls-14" x1="24.65" y1="44.27" x2="24.65" y2="47.03"/><line class="cls-14" x1="34.77" y1="42.31" x2="37.53" y2="42.31"/><line class="cls-14" x1="34.77" y1="42.31" x2="37.53" y2="42.31"/><line class="cls-14" x1="36.15" y1="40.93" x2="36.15" y2="43.69"/><line class="cls-14" x1="72.84" y1="33.69" x2="75.6" y2="33.69"/><line class="cls-14" x1="72.84" y1="33.69" x2="75.6" y2="33.69"/><line class="cls-14" x1="74.22" y1="32.31" x2="74.22" y2="35.07"/><line class="cls-15" x1="72.03" y1="45.19" x2="83.07" y2="45.19"/><path class="cls-16" d="M77.55,40.67a.09.09,0,0,1,.1.1.1.1,0,1,1-.2,0,.09.09,0,0,1,.1-.1m0-1a1.11,1.11,0,1,0,1.1,1.1,1.1,1.1,0,0,0-1.1-1.1Z"/><path class="cls-16" d="M77.55,49.5a.1.1,0,0,1,.1.1.1.1,0,1,1-.2,0,.1.1,0,0,1,.1-.1m0-1a1.11,1.11,0,1,0,1.1,1.1,1.1,1.1,0,0,0-1.1-1.1Z"/><polyline class="cls-17" points="22.47 30.01 27.99 37.37 31.67 22.65 44.55 22.65"/><line class="cls-3" x1="41.67" y1="78.88" x2="39.6" y2="78.88"/><line class="cls-3" x1="36.84" y1="78.88" x2="34.08" y2="78.88"/><circle class="cls-18" cx="52.37" cy="35.07" r="1.73"/><circle class="cls-18" cx="62.72" cy="35.07" r="1.73"/></g></svg>