<svg xmlns="http://www.w3.org/2000/svg" viewBox="0 0 24 24"><defs><style>.a{fill:none;stroke:currentColor;stroke-linecap:round;stroke-linejoin:round;stroke-width:1.5px;}</style></defs><title>tag-dollar</title><path class="a" d="M15.75,11.758,13.434,9.442a1.293,1.293,0,0,0-1.968,0c-1.079,1.079,1.4,5.2.318,6.282a1.366,1.366,0,0,1-1.968,0L7.5,13.408"/><line class="a" x1="14.1" y1="10.108" x2="15.337" y2="8.871"/><line class="a" x1="7.912" y1="16.296" x2="9.15" y2="15.058"/><circle class="a" cx="18.244" cy="5.45" r="1.445"/><path class="a" d="M21.705.75H12.331a1.546,1.546,0,0,0-1.127.487L1.168,11.908a1.536,1.536,0,0,0,.11,2.212l10.031,8.749a1.549,1.549,0,0,0,2.146-.108l9.379-10.017a1.538,1.538,0,0,0,.416-1.051V2.29A1.542,1.542,0,0,0,21.705.75Z"/></svg>