<svg id="Multicolor" xmlns="http://www.w3.org/2000/svg" viewBox="0 0 100 112"><defs><style>.cls-1,.cls-8{fill:#e8f4fa60;}.cls-2{fill:#6dd627;}.cls-3{fill:#9ceb60;}.cls-4{fill:none;}.cls-10,.cls-4,.cls-8{stroke:#191816;stroke-linecap:round;stroke-linejoin:round;}.cls-5{fill:#f0f0f0;}.cls-6{fill:#fff;}.cls-7{fill:#ffe500;}.cls-9{fill:#fff48c;}.cls-10{fill:#87898c;}.cls-11{fill:#231f20;opacity:0.15;}</style></defs><title>22- security-system-shield-lock</title><g id="Background"><g id="New_Symbol_1-16" data-name="New Symbol 1"><circle class="cls-1" cx="50" cy="56" r="40" transform="translate(-21.21 79.78) rotate(-66.7)"/></g></g><g id="Scene"><path class="cls-2" d="M50,27.5l19.49,6.8a3,3,0,0,1,2,2.83V58C71.5,72.5,50,80.5,50,80.5S28.5,72.5,28.5,58V37.13a3,3,0,0,1,2-2.83Z"/><path class="cls-3" d="M50,80.5S28.5,72.5,28.5,58V37.13a3,3,0,0,1,2-2.83L50,27.5Z"/><path class="cls-4" d="M50,27.5l19.49,6.8a3,3,0,0,1,2,2.83V58C71.5,72.5,50,80.5,50,80.5S28.5,72.5,28.5,58V37.13a3,3,0,0,1,2-2.83Z"/><circle class="cls-5" cx="50" cy="53" r="14.5"/><path class="cls-6" d="M50,45A14.5,14.5,0,0,1,64.12,56.25a14.5,14.5,0,1,0-28.24,0A14.5,14.5,0,0,1,50,45Z"/><circle class="cls-4" cx="50" cy="53" r="14.5"/><rect class="cls-7" x="43.5" y="50.5" width="13" height="12" rx="1" ry="1"/><path class="cls-8" d="M55.5,48a5.5,5.5,0,0,0-11,0v2.5h3V48a2.5,2.5,0,0,1,5,0v2.5h3Z"/><path class="cls-9" d="M55.5,50.5h-11a1,1,0,0,0-1,1V54a1,1,0,0,1,1-1h11a1,1,0,0,1,1,1V51.5A1,1,0,0,0,55.5,50.5Z"/><rect class="cls-4" x="43.5" y="50.5" width="13" height="12" rx="1" ry="1"/><path class="cls-10" d="M51.5,56A1.5,1.5,0,1,0,49,57.11V58.5a1,1,0,0,0,2,0V57.11A1.5,1.5,0,0,0,51.5,56Z"/><ellipse class="cls-11" cx="50" cy="85.9" rx="12" ry="1.5"/></g></svg>