<svg id="Line" xmlns="http://www.w3.org/2000/svg" viewBox="0 0 100 112"><defs><style>.cls-1{fill:none;stroke:currentColor;stroke-linecap:round;stroke-linejoin:round;}</style></defs><title>22- security-system-shield-lock</title><g id="Icons"><path class="cls-1" d="M50,6,86.77,18.83a5.66,5.66,0,0,1,3.8,5.34V63.55C90.57,90.91,50,106,50,106S9.43,90.91,9.43,63.55V24.17a5.66,5.66,0,0,1,3.8-5.34Z"/><circle class="cls-1" cx="50" cy="54.11" r="27.36"/><path class="cls-1" d="M60.38,44.68a10.38,10.38,0,1,0-20.76,0V49.4h5.66V44.68a4.72,4.72,0,0,1,9.44,0V49.4h5.66Z"/><rect class="cls-1" x="37.74" y="49.4" width="24.53" height="22.64" rx="1.89" ry="1.89"/><path class="cls-1" d="M52.83,59.77a2.83,2.83,0,1,0-4.72,2.1v2.62a1.89,1.89,0,1,0,3.78,0V61.87A2.83,2.83,0,0,0,52.83,59.77Z"/></g></svg>