<svg viewBox="0 0 100 112" xmlns="http://www.w3.org/2000/svg">
 <defs>
  <style>.cls-1{fill:none;stroke:currentColor;stroke-linecap:round;stroke-linejoin:round;}</style>
 </defs>
 <title>05- laptop-hand</title>
  <g id="Icons">
   <path id="svg_6" d="m10.1,55.21a30,30 0 0 1 2.4,-4.49a2.54,2.54 0 1 1 4.24,2.78c-2.83,4.31 -4.63,10.75 -4.19,15" class="cls-1"/>
   <path id="svg_7" d="m10.74,100.14l0,-6.34a1.27,1.27 0 0 1 1.26,-1.27l17.13,0a1.26,1.26 0 0 1 1.26,1.27l0,6.34" class="cls-1"/>
   <path id="svg_8" d="m10.74,100.14l0,-6.34a1.27,1.27 0 0 1 1.26,-1.27l17.13,0a1.26,1.26 0 0 1 1.26,1.27l0,6.34" class="cls-1"/>
   <path id="svg_9" d="m29.13,92.53l0,-2.53a1.27,1.27 0 0 0 -1.27,-1.27l-14.58,0a1.27,1.27 0 0 0 -1.28,1.27l0,2.54l17.13,-0.01z" class="cls-1"/>
   <path id="svg_10" d="m27.86,88.72a9.23,9.23 0 0 1 0.22,-5c3.36,-10.08 -0.18,-17.18 -2,-22.14a2.54,2.54 0 1 0 -4.77,1.73c6.23,19.74 -11,11.61 -11.25,-4.95c0,-2.08 0,-9.21 0,-9.76a2.54,2.54 0 1 0 -5.07,0c0,0.56 0,7.64 0,9.64c-0.26,12.66 8.21,21.13 8.29,30.48l14.58,0z" class="cls-1"/>
   <path id="svg_11" d="m89.9,55.22a29.59,29.59 0 0 0 -2.4,-4.5a2.54,2.54 0 0 0 -4.24,2.78c2.83,4.31 4.63,10.75 4.19,15" class="cls-1"/>
   <path id="svg_12" d="m89.26,100.14l0,-6.34a1.27,1.27 0 0 0 -1.26,-1.27l-17.13,0a1.26,1.26 0 0 0 -1.26,1.27l0,6.34" class="cls-1"/>
   <path id="svg_13" d="m70.87,92.53l0,-2.53a1.27,1.27 0 0 1 1.27,-1.27l14.59,0a1.26,1.26 0 0 1 1.27,1.27l0,2.54l-17.13,-0.01z" class="cls-1"/>
   <path id="svg_14" d="m72.14,88.72a9.32,9.32 0 0 0 -0.21,-5c-3.37,-10.08 0.17,-17.18 2,-22.14a2.53,2.53 0 1 1 4.76,1.73c-6.23,19.74 11,11.61 11.25,-4.95c0,-2.08 0,-9.21 0,-9.76a2.54,2.54 0 1 1 5.07,0c0,0.56 0,7.64 0,9.64c0.28,12.64 -8.19,21.11 -8.26,30.46l-14.61,0.02z" class="cls-1"/>
    <g stroke="null" transform="matrix(1.120438429706235,0,0,1.120438429706235,-12.436466357285454,-42.31216117462068) " id="svg_19">
     <line stroke="null" id="svg_24" y2="75.33396" x2="50.34024" y1="75.33396" x1="42.21024" class="cls-1"/>
     <line stroke="null" id="svg_25" y2="64.49396" x2="50.34024" y1="64.49396" x1="42.21024" class="cls-1"/>
     <line stroke="null" id="svg_26" y2="53.65396" x2="50.34024" y1="53.65396" x1="42.21024" class="cls-1"/>
     <circle stroke="null" id="svg_27" r="2.03" cy="53.65396" cx="69.99024" class="cls-1"/>
     <circle stroke="null" id="svg_28" r="2.03" cy="53.65396" cx="63.21024" class="cls-1"/>
     <circle stroke="null" id="svg_29" r="2.03" cy="64.49396" cx="69.99024" class="cls-1"/>
     <circle stroke="null" id="svg_30" r="2.03" cy="64.49396" cx="63.21024" class="cls-1"/>
     <circle stroke="null" id="svg_31" r="2.03" cy="75.33396" cx="69.99024" class="cls-1"/>
     <circle stroke="null" id="svg_32" r="2.03" cy="75.33396" cx="63.21024" class="cls-1"/>
     <path stroke="null" id="svg_33" d="m72.02024,80.75396l-31.16,0a2.71,2.71 0 0 1 -2.71,-2.71l0,-8.13l36.58,0l0,8.13a2.71,2.71 0 0 1 -2.71,2.71z" class="cls-1"/>
     <rect stroke="null" id="svg_34" height="10.84" width="36.59" y="59.07396" x="38.15024" class="cls-1"/>
     <path stroke="null" id="svg_35" d="m74.73024,59.07396l-36.58,0l0,-8.13a2.71,2.71 0 0 1 2.71,-2.71l31.16,0a2.71,2.71 0 0 1 2.71,2.71l0,8.13z" class="cls-1"/>
    </g>
  </g>
</svg>