<svg id="Line" xmlns="http://www.w3.org/2000/svg" viewBox="0 0 100 112"><defs><style>.cls-1{fill:none;stroke:currentColor;stroke-linecap:round;stroke-linejoin:round;}</style></defs><title>01- cloud-network-device</title><g id="Icons"><path class="cls-1" d="M19,35.71a38,38,0,0,1,10.73-10.5"/><path class="cls-1" d="M29,88.36A38.17,38.17,0,0,1,17.91,76.64"/><path class="cls-1" d="M80.6,79.83a38.15,38.15,0,0,1-12,10.39"/><path class="cls-1" d="M69.29,24.19A38.15,38.15,0,0,1,81.52,35.47"/><path class="cls-1" d="M69.29,59.86A5.29,5.29,0,0,1,64,65.14H51.89a3.86,3.86,0,1,0,0-7.71,4,4,0,0,0-1.39.25,6.41,6.41,0,0,0-4.9-5.24A8.76,8.76,0,0,1,62.11,55a5.14,5.14,0,0,1,1.9-.37A5.28,5.28,0,0,1,69.29,59.86Z"/><path class="cls-1" d="M69.29,59.86A5.29,5.29,0,0,1,64,65.14H51.89a3.86,3.86,0,1,0,0-7.71,4,4,0,0,0-1.39.25,6.41,6.41,0,0,0-4.9-5.24A8.76,8.76,0,0,1,62.11,55a5.14,5.14,0,0,1,1.9-.37A5.28,5.28,0,0,1,69.29,59.86Z"/><path class="cls-1" d="M63.87,86a3.24,3.24,0,0,0-3.25-3.25H40.05A3.24,3.24,0,0,0,36.81,86V99.65H63.87Z"/><path class="cls-1" d="M61.17,99.65H39.51V86.11a.67.67,0,0,1,.68-.67h20.3a.68.68,0,0,1,.68.67Z"/><path class="cls-1" d="M66.58,99.65H34.1A4.21,4.21,0,0,0,38.22,103H62.45a4.21,4.21,0,0,0,4.13-3.38Z"/><path class="cls-1" d="M65.9,25.89v3.52A1.88,1.88,0,0,1,64,31.3H38a1.88,1.88,0,0,1-1.88-1.89V25.89Z"/><path class="cls-1" d="M51.06,27.92a.68.68,0,1,0,.68.67.67.67,0,0,0-.68-.67Z"/><polygon class="cls-1" points="56 35.37 46.57 35.37 47.04 31.3 55.53 31.3 56 35.37"/><line class="cls-1" x1="43.74" y1="35.37" x2="58.83" y2="35.37"/><path class="cls-1" d="M65.9,25.89v-15a2,2,0,0,0-2-1.88H38a1.88,1.88,0,0,0-1.88,1.88v15Z"/><rect class="cls-1" x="78.76" y="42.8" width="16.24" height="29.77" rx="2.71" ry="2.71"/><rect class="cls-1" x="78.76" y="42.8" width="16.24" height="29.77" rx="2.71" ry="2.71"/><rect class="cls-1" x="78.76" y="48.22" width="16.24" height="18.95"/><line class="cls-1" x1="85.53" y1="45.51" x2="88.23" y2="45.51"/><circle class="cls-1" cx="86.88" cy="69.53" r="0.34"/><rect class="cls-1" x="5" y="42.8" width="23.01" height="29.77" rx="2.71" ry="2.71"/><rect class="cls-1" x="7.71" y="46.19" width="17.59" height="23.01" rx="1.35" ry="1.35"/><circle class="cls-1" cx="82.14" cy="37.39" r="2.03"/><circle class="cls-1" cx="81.47" cy="77.99" r="2.03"/><circle class="cls-1" cx="30.71" cy="89.5" r="2.03"/><circle class="cls-1" cx="17.86" cy="37.39" r="2.03"/><path class="cls-1" d="M55.75,61.28a3.86,3.86,0,0,1-3.86,3.86H36.47a3.86,3.86,0,1,1,0-7.71,4,4,0,0,1,1.39.25,6.39,6.39,0,0,1,6.32-5.4,6.64,6.64,0,0,1,1.42.16,6.41,6.41,0,0,1,4.9,5.24,4,4,0,0,1,1.39-.25A3.85,3.85,0,0,1,55.75,61.28Z"/></g></svg>