<svg id="Multicolor" xmlns="http://www.w3.org/2000/svg" viewBox="0 0 100 112"><defs><style>.cls-1,.cls-10{fill:#e8f4fa60;}.cls-2,.cls-6{fill:#fff;}.cls-3{fill:#f0f0f0;}.cls-4,.cls-5,.cls-9{fill:none;}.cls-10,.cls-11,.cls-13,.cls-14,.cls-15,.cls-16,.cls-17,.cls-4,.cls-5,.cls-6,.cls-9{stroke:#191816;}.cls-10,.cls-11,.cls-13,.cls-4,.cls-6,.cls-9{stroke-linecap:round;}.cls-14,.cls-15,.cls-16,.cls-17,.cls-4{stroke-miterlimit:10;}.cls-10,.cls-11,.cls-13,.cls-5,.cls-6,.cls-9{stroke-linejoin:round;}.cls-7{fill:#00b8f0;}.cls-8{fill:#4acfff;}.cls-11{fill:#e0e0e0;}.cls-12{fill:#191816;}.cls-13{fill:#adc4d9;}.cls-14{fill:#ff6242;}.cls-15{fill:#6dd627;}.cls-16{fill:#9f5ae5;}.cls-17{fill:#ffe500;}</style></defs><title>01- cloud-network-device</title><g id="Background"><g id="New_Symbol_1" data-name="New Symbol 1"><circle class="cls-1" cx="50" cy="56" r="40"/></g></g><g id="Scene"><path class="cls-2" d="M51.22,57.59a3,3,0,0,0-1.08.21,5,5,0,0,0-9.81,0,3,3,0,1,0-1.08,5.78h12a3,3,0,0,0,0-6Z"/><path class="cls-2" d="M51.22,57.59a3,3,0,0,0-1.08.21,5,5,0,0,0-9.81,0,3,3,0,1,0-1.08,5.78h12a3,3,0,0,0,0-6Z"/><path class="cls-3" d="M60.62,55.38a4.06,4.06,0,0,0-1.48.29,6.8,6.8,0,0,0-13.43,0,4,4,0,0,0-1.47-.29,4.1,4.1,0,0,0,0,8.2H60.62a4.1,4.1,0,0,0,0-8.2Z"/><path class="cls-2" d="M60.62,55.38a4.06,4.06,0,0,0-1.48.29,6.78,6.78,0,0,0-12.72-2.09A6.77,6.77,0,0,1,58,57.24,4.22,4.22,0,0,1,59.46,57a4.1,4.1,0,0,1,4.1,4.09,4,4,0,0,1-.31,1.54,4.05,4.05,0,0,0,1.46-3.11A4.1,4.1,0,0,0,60.62,55.38Z"/><path class="cls-4" d="M25.7,40.75A29.36,29.36,0,0,1,34,32.6"/><path class="cls-4" d="M33.48,81.59a29.57,29.57,0,0,1-8.62-9.09"/><path class="cls-4" d="M73.49,75A29.57,29.57,0,0,1,64.19,83"/><path class="cls-4" d="M64.71,31.81a29.44,29.44,0,0,1,9.49,8.75"/><path class="cls-5" d="M60.62,55.38a4.06,4.06,0,0,0-1.48.29,6.8,6.8,0,0,0-13.43,0,4,4,0,0,0-1.47-.29,4.1,4.1,0,0,0,0,8.2H60.62a4.1,4.1,0,0,0,0-8.2Z"/><path class="cls-5" d="M60.62,55.38a4.06,4.06,0,0,0-1.48.29,6.8,6.8,0,0,0-13.43,0,4,4,0,0,0-1.47-.29,4.1,4.1,0,0,0,0,8.2H60.62a4.1,4.1,0,0,0,0-8.2Z"/><path class="cls-6" d="M41.91,77.23h16.2a2.4,2.4,0,0,1,2.4,2.4V90.35a0,0,0,0,1,0,0h-21a0,0,0,0,1,0,0V79.62A2.4,2.4,0,0,1,41.91,77.23Z"/><path class="cls-7" d="M58.41,90.35H41.61V79.85a.52.52,0,0,1,.53-.52H57.89a.52.52,0,0,1,.52.52Z"/><path class="cls-8" d="M42.14,79.33a.52.52,0,0,0-.53.52v10.5h2.11l11-11Z"/><path class="cls-9" d="M58.41,90.35H41.61V79.85a.52.52,0,0,1,.53-.52H57.89a.52.52,0,0,1,.52.52Z"/><path class="cls-10" d="M62.61,90.35H37.41A3.27,3.27,0,0,0,40.61,93h18.8a3.26,3.26,0,0,0,3.2-2.63Z"/><path class="cls-7" d="M62.09,33.12V21.46A1.56,1.56,0,0,0,60.51,20H40.45A1.46,1.46,0,0,0,39,21.46V33.12Z"/><path class="cls-8" d="M55.46,20h-15A1.46,1.46,0,0,0,39,21.46V33.12H42.3Z"/><path class="cls-11" d="M62.09,33.12v2.74a1.47,1.47,0,0,1-1.47,1.47H40.45A1.46,1.46,0,0,1,39,35.86V33.12Z"/><path class="cls-12" d="M50.58,34.7a.53.53,0,0,0-.53.53.52.52,0,0,0,.53.52.52.52,0,0,0,.52-.52.52.52,0,0,0-.52-.53Z"/><polygon class="cls-13" points="54.41 40.48 47.09 40.48 47.45 37.33 54.04 37.33 54.41 40.48"/><line class="cls-9" x1="44.89" y1="40.48" x2="56.6" y2="40.48"/><path class="cls-9" d="M62.09,33.12V21.46A1.56,1.56,0,0,0,60.51,20H40.45A1.46,1.46,0,0,0,39,21.46V33.12Z"/><rect class="cls-6" x="72.06" y="46.25" width="12.6" height="23.1" rx="2" ry="2"/><rect class="cls-9" x="72.06" y="46.25" width="12.6" height="23.1" rx="2" ry="2"/><rect class="cls-7" x="72.06" y="50.45" width="12.6" height="14.7"/><polygon class="cls-8" points="82.56 50.45 72.06 50.45 72.06 60.95 82.56 50.45"/><rect class="cls-9" x="72.06" y="50.45" width="12.6" height="14.7"/><line class="cls-9" x1="77.31" y1="48.35" x2="79.41" y2="48.35"/><circle class="cls-9" cx="78.36" cy="66.99" r="0.26"/><rect class="cls-6" x="14.84" y="46.25" width="17.85" height="23.1" rx="2.1" ry="2.1"/><rect class="cls-7" x="16.94" y="48.88" width="13.65" height="17.85" rx="1.05" ry="1.05"/><path class="cls-8" d="M28.36,48.88H18a1,1,0,0,0-1,1V60.29Z"/><rect class="cls-9" x="16.94" y="48.88" width="13.65" height="17.85" rx="1.05" ry="1.05"/><path class="cls-3" d="M53.27,62a2.79,2.79,0,0,1-.18,1,3,3,0,0,1-1.87.66h-12a3,3,0,0,1-1.87-.66,2.79,2.79,0,0,1-.18-1,2.66,2.66,0,0,1,3.65-2.49,4.44,4.44,0,0,1,8.77,0A2.66,2.66,0,0,1,53.27,62Z"/><path class="cls-2" d="M53.09,62.92a2.79,2.79,0,0,0,.18-1,2.66,2.66,0,0,0-3.65-2.49,4.44,4.44,0,0,0-8.77,0A2.66,2.66,0,0,0,37.2,62a2.79,2.79,0,0,0,.18,1,3,3,0,0,1,1.87-5.33,2.77,2.77,0,0,1,1.08.21,5,5,0,0,1,9.81,0,2.77,2.77,0,0,1,1.08-.21,3,3,0,0,1,1.87,5.33Z"/><path class="cls-5" d="M51.22,57.59a3,3,0,0,0-1.08.21,5,5,0,0,0-9.81,0,3,3,0,1,0-1.08,5.78h12a3,3,0,0,0,0-6Z"/><path class="cls-5" d="M51.22,57.59a3,3,0,0,0-1.08.21,5,5,0,0,0-9.81,0,3,3,0,1,0-1.08,5.78h12a3,3,0,0,0,0-6Z"/><circle class="cls-14" cx="74.69" cy="42.05" r="1.58"/><circle class="cls-15" cx="74.16" cy="73.55" r="1.58"/><circle class="cls-16" cx="34.79" cy="82.47" r="1.57"/><circle class="cls-17" cx="24.81" cy="42.05" r="1.58"/></g></svg>