<svg id="Multicolor" xmlns="http://www.w3.org/2000/svg" viewBox="0 0 100 112"><defs><style>.cls-1{fill:#e8f4fa60;}.cls-2{fill:#191816;opacity:0.15;}.cls-3{fill:#ffe500;}.cls-4{fill:#fff48c;}.cls-5,.cls-8{fill:none;stroke:#191816;stroke-linejoin:round;}.cls-6{fill:#f0f0f0;}.cls-7{fill:#fff;}.cls-8{stroke-linecap:round;}.cls-9{fill:#ff6242;}.cls-10{fill:#ff866e;}</style></defs><title>19- color-roller</title><g id="Background"><g id="New_Symbol_61" data-name="New Symbol 61"><circle class="cls-1" cx="49.52" cy="55.99" r="40"/></g></g><g id="Scene"><ellipse class="cls-2" cx="47.75" cy="85.68" rx="9.2" ry="1.72"/><path class="cls-3" d="M34.12,53.18s2.42,3.49,2.42,4.83a2.42,2.42,0,1,1-4.83,0C31.71,56.67,34.12,53.18,34.12,53.18Z"/><path class="cls-4" d="M34.12,53.18S31.71,56.67,31.71,58a2.41,2.41,0,0,0,2.41,2.42Z"/><path class="cls-5" d="M36.54,58a2.42,2.42,0,1,1-4.83,0c0-1.34,2.41-4.83,2.41-4.83S36.54,56.67,36.54,58Z"/><path class="cls-6" d="M63.85,43.4a1.16,1.16,0,0,1-1.15,1.15H32.8V34.2A1.14,1.14,0,0,1,34,33.05H62.7a1.15,1.15,0,0,1,1.15,1.15Z"/><path class="cls-7" d="M63.85,34.2a1.15,1.15,0,0,0-1.15-1.15H34A1.14,1.14,0,0,0,32.8,34.2v2.87A1.15,1.15,0,0,1,34,35.92H62.7a1.16,1.16,0,0,1,1.15,1.15Z"/><path class="cls-8" d="M63.85,43.4a1.16,1.16,0,0,1-1.15,1.15H32.8V34.2A1.14,1.14,0,0,1,34,33.05H62.7a1.15,1.15,0,0,1,1.15,1.15Z"/><path class="cls-3" d="M34,33.05A1.14,1.14,0,0,0,32.8,34.2V47.42a1.44,1.44,0,1,0,2.87,0,1.44,1.44,0,0,1,2.88,0V52a2.3,2.3,0,1,0,4.6,0V44.55a2.3,2.3,0,0,1,2.3-2.3,1.73,1.73,0,0,0,1.72-1.73,1.16,1.16,0,0,1,1.15-1.15h4.6a2.3,2.3,0,0,0,2.3-2.3v-4Z"/><path class="cls-4" d="M32.8,37.07A1.15,1.15,0,0,1,34,35.92H55.22V33.05H34A1.14,1.14,0,0,0,32.8,34.2Z"/><path class="cls-8" d="M34,33.05A1.14,1.14,0,0,0,32.8,34.2V47.42a1.44,1.44,0,1,0,2.87,0,1.44,1.44,0,0,1,2.88,0V52a2.3,2.3,0,1,0,4.6,0V44.55a2.3,2.3,0,0,1,2.3-2.3,1.73,1.73,0,0,0,1.72-1.73,1.16,1.16,0,0,1,1.15-1.15h4.6a2.3,2.3,0,0,0,2.3-2.3v-4Z"/><path class="cls-5" d="M63.85,38.8H65a2.86,2.86,0,0,1,2.87,2.87v8A2.87,2.87,0,0,1,65,52.6H51.2a2.87,2.87,0,0,0-2.88,2.87v2.88"/><path class="cls-9" d="M45.45,58.35A1.14,1.14,0,0,0,44.3,59.5v2.87a1.91,1.91,0,0,0,.32,1.06l.51.76a1.91,1.91,0,0,1,.32,1.06v11.5a2.88,2.88,0,0,0,5.75,0V65.25a1.91,1.91,0,0,1,.32-1.06l.51-.76a1.91,1.91,0,0,0,.32-1.06V59.5a1.15,1.15,0,0,0-1.15-1.15Z"/><path class="cls-10" d="M52.35,59.5a1.15,1.15,0,0,0-1.15-1.15H45.45A1.14,1.14,0,0,0,44.3,59.5v2.87a1.75,1.75,0,0,0,.05.33,1.13,1.13,0,0,1,1.1-.9H51.2a1.13,1.13,0,0,1,1.1.91,2,2,0,0,0,.05-.34Z"/><path class="cls-5" d="M45.45,58.35A1.14,1.14,0,0,0,44.3,59.5v2.87a1.91,1.91,0,0,0,.32,1.06l.51.76a1.91,1.91,0,0,1,.32,1.06v11.5a2.88,2.88,0,0,0,5.75,0V65.25a1.91,1.91,0,0,1,.32-1.06l.51-.76a1.91,1.91,0,0,0,.32-1.06V59.5a1.15,1.15,0,0,0-1.15-1.15Z"/></g></svg>