<?xml version="1.0" encoding="UTF-8"?>
<svg width="509px" height="105px" viewBox="0 0 509 105" version="1.1" xmlns="http://www.w3.org/2000/svg" xmlns:xlink="http://www.w3.org/1999/xlink">
    <!-- Generator: Sketch 48.2 (47327) - http://www.bohemiancoding.com/sketch -->
    <title>Group</title>
    <desc>Created with Sketch.</desc>
    <defs></defs>
    <g id="Artboard" stroke="none" stroke-width="1" fill="none" fill-rule="evenodd" transform="translate(-116.000000, -91.000000)">
        <g id="Group" transform="translate(116.000000, 91.000000)" fill="#373e42">
            <g id="Logo" fill-rule="nonzero">
                <path d="M91.72,47.7 C90.7717574,47.6438228 89.8678651,48.1072591 89.36,48.91 C88.42,48.32 85.87,47.08 84.88,46.57 L84.52,46.39 C84.4624915,46.3655468 84.3975085,46.3655468 84.34,46.39 L84.34,46.33 C84.3452109,46.2567592 84.3452109,46.1832408 84.34,46.11 C85.34,25.53 64.51,9.54 44.34,15.73 C34.5462513,18.8452468 26.8757276,26.5232285 23.77,36.32 C22.9477894,39.3156206 22.5109327,42.4038613 22.47,45.51 L21.71,45.81 L21.16,46.04 C20.16,46.48 19.16,46.95 18.16,47.46 C17.16,47.97 16.16,48.46 15.25,49.09 C15.1180202,49.1716379 15.0667429,49.3382892 15.13,49.48 C15.2060444,49.6299391 15.3851492,49.6954652 15.54,49.63 C16.54,49.17 17.54,48.76 18.54,48.38 C19.54,48 20.59,47.66 21.63,47.38 L21.69,47.38 C22.19,47.23 22.69,47.1 23.2,46.97 L23.98,46.79 L24.07,46.79 L24.77,46.64 C25.82,46.41 26.88,46.27 27.94,46.14 L28.06,46.14 C28.4690892,46.0802397 28.8091565,45.7941798 28.938086,45.4013663 C29.0670155,45.0085528 28.9626118,44.5766084 28.668506,44.2860451 C28.3744001,43.9954818 27.9412224,43.89632 27.55,44.03 C26.55,44.27 25.55,44.53 24.64,44.84 L24.83,44.78 C24.8876539,42.0113928 25.2873518,39.2605312 26.02,36.59 C28.8974616,27.5502723 35.9802723,20.4674616 45.02,17.59 C45.8333333,17.3433333 46.6433333,17.1333333 47.45,16.96 C48.24,16.79 51.4,16.34 47.95,18.27 C42.2161258,21.5667516 37.9323874,26.900006 35.95,33.21 C34.95,36.44 34.56,42.81 35.26,47.7 C35.48,49.23 34.96,49.53 34.01,49.93 C32.01,50.78 28.51,52.32 26.71,54.5 C26.01,55.34 25.71,54.5 25.54,53.9 C25.1899221,52.2537025 24.9758669,50.5813965 24.9,48.9 C24.8925325,48.7533484 24.819689,48.6177759 24.701522,48.5306035 C24.583355,48.4434311 24.432322,48.4138488 24.29,48.45 C23.8,48.57 23.29,48.69 22.83,48.85 C22.6265159,48.9201561 22.4926381,49.1148873 22.5,49.33 C22.78,55.76 24.41,61.74 28.31,61.55 C28.4604298,61.5389979 28.5986705,61.4632208 28.6888621,61.3423257 C28.7790537,61.2214306 28.8123085,61.0673307 28.78,60.92 C28.1702857,60.5908963 27.6932822,60.0608925 27.43,59.42 C26.14,55.56 38.1,50.51 53.43,48.22 C67.51,46.11 79.6,47.07 81.7,50.28 C82.1341589,50.8294353 82.1819774,51.5905456 81.82,52.19 C80.9351362,53.7789279 79.6127723,55.0804672 78.01,55.94 C77.874409,56.0222986 77.7784378,56.1565362 77.7444301,56.3114603 C77.7104224,56.4663843 77.7413455,56.6284767 77.83,56.76 C77.9883165,57.0073392 78.3086422,57.0939138 78.57,56.96 C80.5313942,56.0005676 82.1662604,54.4839683 83.27,52.6 C83.8916522,51.185957 84.2313359,49.6641743 84.27,48.12 C85.27,48.43 87.91,49.49 88.92,49.9 L89,49.9 C88.95796,50.0672298 88.9311835,50.2379299 88.92,50.41 C88.8599083,51.9464466 90.009449,53.2627147 91.54,53.41 C92.2410364,53.4425 92.9259861,53.1934714 93.4424547,52.7183203 C93.9589232,52.2431692 94.2640689,51.5813101 94.29,50.88 C94.3897999,49.3386648 93.255935,47.9930274 91.72,47.83 L91.72,47.7 Z M72,41.2 C72.0145562,41.5844073 71.8668269,41.9572238 71.5929195,42.2273269 C71.3190122,42.4974299 70.9441662,42.6399308 70.56,42.62 C67.1952251,42.3601743 63.81338,42.4204448 60.46,42.8 C60.0709393,42.8315468 59.6868956,42.6956371 59.4042828,42.4263911 C59.1216699,42.1571451 58.9673264,41.7801318 58.98,41.39 L58.98,40.21 C58.9820958,39.912166 59.1893704,39.6551454 59.48,39.59 C63.4491189,38.9278529 67.4965135,38.8806333 71.48,39.45 C71.7756745,39.4998339 71.9891676,39.7602955 71.98,40.06 L72,41.2 Z M79.06,37.85 C78.9248348,38.0587277 78.6608076,38.1425458 78.43,38.05 C69.71,34.74 56.1,36.61 56.1,36.61 C51.4321272,37.0743374 46.8420941,38.1294402 42.44,39.75 C41.9596505,39.9338832 41.4192092,39.8658195 40.9994533,39.5685761 C40.5796974,39.2713327 40.3360459,38.7841536 40.35,38.27 C40.3852235,37.0729709 40.5055269,35.8799619 40.71,34.7 C41.1517552,31.4717524 42.4539345,28.4218206 44.48,25.87 C44.6,25.73 44.72,25.59 44.85,25.46 C44.8709744,25.4224863 44.8980054,25.3886975 44.93,25.36 L44.99,25.29 L45.14,25.13 L45.21,25.06 C51.14,18.86 61.57,18.15 68.89,22.19 C72.5503434,24.2505639 75.5843854,27.2638721 77.67,30.91 C77.99,31.51 80.01,36.18 79.06,37.85 Z" id="Shape"></path>
                <path d="M74.42,30.09 C72.7660508,27.2690724 70.243769,25.0590063 67.23,23.79 C63.8691058,22.3757686 60.209396,21.8190803 56.58,22.17 C55.291036,22.2712549 54.0223115,22.5505762 52.81,23 C52.5677596,23.0696934 52.4127694,23.3059023 52.4452646,23.5558656 C52.4777598,23.8058289 52.6879921,23.9945588 52.94,24 C55.6744096,23.7113626 58.4349724,23.7853363 61.15,24.22 C71.15,26.22 74.35,31.03 74.7,31.22 C74.8,31.27 74.92,31.17 74.87,31.07 C74.7408701,30.7292226 74.5940028,30.3954333 74.43,30.07" id="Shape"></path>
                <path d="M29.7,47.54 C29.8716387,47.7815286 30.1415507,47.9345039 30.4369473,47.9576723 C30.7323439,47.9808407 31.0228048,47.8718161 31.23,47.66 C31.5627061,47.3252135 31.8067267,46.9127843 31.94,46.46 C32.2465335,45.2975859 32.1729431,44.0675736 31.73,42.95 C31.444949,42.2368017 30.9268187,41.6411282 30.26,41.26 C30.1381623,41.1828579 29.990531,41.1576525 29.85,41.19 C29.4397927,41.3273438 29.0876199,41.5985168 28.85,41.96 C28.7903788,42.0346755 28.7660544,42.1315285 28.7833169,42.2255132 C28.8005793,42.3194979 28.8577337,42.4013855 28.94,42.45 C29.7525032,42.878884 30.3236848,43.6564281 30.49,44.56 C30.605348,45.4840315 30.3175434,46.4130211 29.7,47.11 C29.5937997,47.2336615 29.5937997,47.4163385 29.7,47.54" id="Shape"></path>
                <path d="M11,49 C10.1368537,48.9283329 9.28094556,49.2052366 8.62334092,49.7688977 C7.96573629,50.3325589 7.56118662,51.1360475 7.5,52 C7.47057884,53.8620442 8.92023306,55.413351 10.78,55.51 C12.5419633,55.6371195 14.0810109,54.3293738 14.24,52.57 C14.3139762,50.6956634 12.8727073,49.1075986 11,49" id="Shape"></path>
                <path d="M104.69,52.5 C104.69171,28.0580643 87.7518297,6.87963351 63.9065483,1.51206649 C40.0612668,-3.85550054 15.6805762,8.02167977 5.20904391,30.1068611 C-5.26248834,52.1920425 0.97248674,78.5854238 20.22,93.65 L21.22,94.44 C21.56,94.7 21.91,94.95 22.22,95.2 C27.5916318,99.0009122 33.6349224,101.749405 40.03,103.3 L40.18,103.3 L41.07,103.51 L41.34,103.56 L42.18,103.74 L42.51,103.8 L43.33,103.95 L43.65,104.01 C44.19,104.096667 44.73,104.176667 45.27,104.25 L45.59,104.3 L46.2,104.37 L46.82,104.44 L47.4,104.5 L48.07,104.56 L48.62,104.56 L49.34,104.56 L49.85,104.56 L50.68,104.56 L51.1,104.56 L52.35,104.56 C52.8,104.56 53.24,104.56 53.68,104.56 L54.12,104.56 L55.01,104.56 L55.54,104.56 L56.32,104.56 L56.89,104.51 L57.62,104.45 L58.22,104.38 L58.92,104.3 L59.53,104.22 L60.2,104.12 L60.82,104.02 L61.47,103.92 L62.1,103.8 L62.74,103.68 L63.37,103.54 L63.99,103.41 L64.62,103.26 L65.23,103.11 L66,103 L66.58,102.84 L67.23,102.66 L67.8,102.49 L68.44,102.28 C68.6299015,102.230573 68.816865,102.170478 69,102.1 L69.65,101.88 L70.19,101.69 L70.84,101.45 L71.36,101.25 L72,101 L72.5,100.8 L73.16,100.52 L73.65,100.31 L74.31,100.01 L74.78,99.79 L75.44,99.47 L75.89,99.24 L76.55,98.91 L76.99,98.67 C77.22,98.56 77.44,98.44 77.65,98.32 L78.08,98.08 L78.74,97.7 L79.14,97.46 L79.81,97.06 L80.19,96.82 L80.86,96.4 L81.22,96.16 L81.89,95.71 L82.23,95.48 L82.91,95 L83.22,94.77 L83.91,94.26 L84.19,94.05 L84.89,93.51 L85.14,93.3 L85.85,92.73 L86.06,92.54 L86.79,91.93 L86.96,91.78 L87.71,91.1 L87.82,91.01 L88.61,90.26 C98.917555,80.414135 104.739946,66.774345 104.72,52.52 M68.35,70 C68.28,69.42 68.21,68.83 68.12,68.25 C68.03,67.67 67.95,67.09 67.84,66.52 C67.73,65.95 67.64,65.37 67.53,64.8 C67.42,64.23 67.28,63.65 67.14,63.13 C67.0555907,62.7371048 67.2835043,62.3443816 67.6665151,62.2227498 C68.0495259,62.101118 68.4622628,62.2903914 68.62,62.66 C68.84,63.28 68.99,63.84 69.15,64.44 C69.31,65.04 69.45,65.61 69.58,66.2 C69.83,67.39 70.03,68.57 70.22,69.76 C70.46,71.32 70.62,72.89 70.75,74.45 C71.75,74.5 72.82,74.57 73.85,74.67 C76.6431242,74.9565683 79.3983126,75.5364316 82.07,76.4 C82.4099539,76.5249979 82.6013177,76.8858561 82.5140737,77.2373979 C82.4268298,77.5889397 82.0889505,77.8184528 81.73,77.77 L81.68,77.77 C80.34,77.54 79.04,77.22 77.68,77.07 L76.68,76.92 L76.18,76.85 L75.68,76.85 L73.68,76.66 C73.34,76.61 73,76.66 72.68,76.59 L71.68,76.53 L70.94,76.53 C70.94,76.7 70.94,76.87 70.94,77.04 L71.02,78.83 L71.02,80.63 C71.02,81.83 71.02,83.03 71.02,84.23 C71.02,85.43 70.93,86.62 70.89,87.81 C70.85,89 70.72,90.2 70.61,91.39 C70.5506717,91.7850189 70.202504,92.0713774 69.8034613,92.0533561 C69.4044187,92.0353348 69.0834803,91.7187587 69.06,91.32 C69.06,90.14 69.06,88.96 69.12,87.78 C69.18,86.6 69.12,85.41 69.12,84.23 C69.12,83.05 69.12,81.87 69.06,80.7 L69,78.93 L69,77 C69,76.77 69,76.55 69,76.33 L67.66,76.33 L65.66,76.33 C64.98,76.33 64.3,76.39 63.66,76.41 C63.02,76.43 62.3,76.48 61.66,76.54 C60.3,76.63 58.94,76.76 57.59,76.91 C54.88,77.22 52.16,77.61 49.51,78.13 C49.1241093,78.2037774 48.7503173,77.9545827 48.67,77.57 C48.6043365,77.2062818 48.8247325,76.8519197 49.18,76.75 C50.55,76.38 51.89,76.09 53.26,75.82 C54.63,75.55 55.99,75.33 57.37,75.12 C58.05,75.01 58.75,74.94 59.44,74.85 C60.13,74.76 60.82,74.69 61.51,74.63 C62.2,74.57 62.89,74.5 63.59,74.47 C64.29,74.44 64.98,74.37 65.68,74.36 C66.78,74.31 67.88,74.3 68.99,74.36 C68.87,72.89 68.73,71.43 68.55,69.98 M41.85,62.89 C41.35,64.55 40.18,68.55 39.45,71.68 C37.5762888,80.8038311 36.2108519,90.0247027 35.36,99.3 C30.8512917,97.6394497 26.6097258,95.3283185 22.77,92.44 C23.5718979,86.4192319 24.8594286,80.4731813 26.62,74.66 C27.2605111,72.5502944 28.1395234,70.520514 29.24,68.61 C30.1214061,67.3256396 31.3391751,66.3085257 32.76,65.67 L33.02,65.55 L33.45,65.31 L34,65.03 C34.38,64.85 34.75,64.67 35.12,64.51 L35.69,64.26 L36.25,64.03 L37.39,63.59 C38.39,63.22 40.09,62.7 41.15,62.39 C41.7,62.23 41.99,62.39 41.85,62.89 M86.39,76.89 C84.83,71.08 82.72,61.98 76.49,59.89 C69.85,57.63 62.71,57.38 55.81,57.82 C50.8979449,58.1354732 46.0371845,59.0043048 41.32,60.41 C39.23,61.02 32.53,63.59 31.2,64.27 C29.6791325,64.9558267 28.3752589,66.0452702 27.43,67.42 C26.2501452,69.4662065 25.3073926,71.6402412 24.62,73.9 C22.9394847,79.4693413 21.6529738,85.150039 20.77,90.9 C19.6,89.9 18.46,88.9 17.37,87.79 C-2.04066785,68.3859879 -2.12828923,36.9459407 17.1739225,17.4340384 C36.4761342,-2.07786401 67.9152929,-2.32994335 87.5278959,16.8699398 C107.140499,36.069823 107.557029,67.507233 88.46,87.22 C87.9947786,83.7387084 87.3033152,80.2914123 86.39,76.9" id="Shape"></path>
            </g>
            <path d="M130.079973,94.8727932 C126.810045,94.8727932 125.68507,92.0810025 125.68507,89.5255538 C125.68507,87.1473617 126.840044,84.1783144 130.079973,84.1783144 C132.074929,84.1783144 133.289902,85.2861679 133.739892,86.37925 L132.119928,87.1030476 C131.594939,86.3201645 131.069951,85.8770231 130.079973,85.8770231 C128.145015,85.8770231 127.545029,87.9007021 127.545029,89.5255538 C127.545029,91.2390338 128.310012,93.1593132 130.079973,93.1593132 C131.024952,93.1593132 131.609939,92.6127721 132.089928,91.829889 L133.754892,92.450287 C133.109906,93.8831108 131.954931,94.8727932 130.079973,94.8727932 Z M136.457054,94.6955366 L136.457054,84.355571 L141.106951,84.355571 C143.716894,84.355571 144.556875,85.8770231 144.556875,87.5018748 C144.556875,88.6835852 143.88189,90.0130093 142.396923,90.4561507 L144.496877,94.6955366 L142.471921,94.6955366 L140.446966,90.6481787 L138.257014,90.6481787 L138.257014,94.6955366 L136.457054,94.6955366 Z M138.257014,88.9642414 L141.136951,88.9642414 C142.306925,88.9642414 142.696916,88.2552152 142.696916,87.5018748 C142.696916,86.80762 142.366924,86.0395083 141.136951,86.0395083 L138.257014,86.0395083 L138.257014,88.9642414 Z M151.608942,94.8727932 C148.234016,94.8727932 147.004043,92.0810025 147.004043,89.5255538 C147.004043,86.9701052 148.234016,84.1783144 151.608942,84.1783144 C154.998867,84.1783144 156.21384,86.9701052 156.21384,89.5255538 C156.21384,92.0810025 154.998867,94.8727932 151.608942,94.8727932 Z M151.608942,93.1740846 C153.633897,93.1740846 154.353881,91.1060914 154.353881,89.5255538 C154.353881,87.8268452 153.648897,85.8770231 151.608942,85.8770231 C149.568987,85.8770231 148.864002,87.9302448 148.864002,89.5255538 C148.864002,91.2094911 149.568987,93.1740846 151.608942,93.1740846 Z M160.310972,94.6955366 L158.061021,84.355571 L159.905981,84.355571 L161.150953,90.4413794 C161.240951,90.9140635 161.30095,91.1947197 161.330949,91.4310618 C161.360948,91.1947197 161.420947,90.9140635 161.540945,90.4413794 L163.08591,84.355571 L164.615877,84.355571 L166.190842,90.426608 C166.325839,90.8992921 166.370838,91.1799483 166.400837,91.4162904 C166.430837,91.1799483 166.475836,90.8992921 166.580833,90.4413794 L167.825806,84.355571 L169.640766,84.355571 L167.375816,94.6955366 L165.725852,94.6955366 L164.03089,88.2995293 C163.910892,87.8859307 163.850893,87.6052745 163.820894,87.3393897 C163.790895,87.6052745 163.730896,87.8859307 163.625898,88.2847579 L161.960935,94.6955366 L160.310972,94.6955366 Z M172.042935,84.355571 L175.282863,84.355571 C178.957782,84.355571 180.337752,86.9553338 180.337752,89.5255538 C180.337752,91.8889745 179.077779,94.6955366 175.222865,94.6955366 L172.042935,94.6955366 L172.042935,84.355571 Z M175.477859,93.0263708 C177.71281,93.0263708 178.477793,91.1504056 178.477793,89.5255538 C178.477793,87.782531 177.637811,86.0247369 175.642855,86.0247369 L173.842895,86.0247369 L173.842895,93.0263708 L175.477859,93.0263708 Z M186.594836,94.8727932 C184.659878,94.8727932 183.20491,93.8387966 182.634923,92.1991735 L184.299886,91.593547 C184.734877,92.5389152 185.574858,93.1888559 186.654834,93.1888559 C187.73481,93.1888559 188.454795,92.7014004 188.454795,91.7560321 C188.454795,90.7663497 187.389818,90.3970652 186.204844,89.998238 C184.704877,89.4960111 183.024914,88.9199273 183.024914,86.9553338 C183.024914,85.4486531 184.269887,84.1783144 186.474838,84.1783144 C188.304798,84.1783144 189.459772,85.1236827 189.834764,86.3940214 L188.2148,86.925791 C187.944806,86.3201645 187.344819,85.8622517 186.354841,85.8622517 C185.409862,85.8622517 184.854874,86.2610789 184.854874,86.9701052 C184.854874,87.7234455 185.769854,88.0336445 186.86483,88.3881576 C188.394796,88.9199273 190.284754,89.569868 190.284754,91.7560321 C190.284754,93.7501684 188.66479,94.8727932 186.594836,94.8727932 Z M197.336821,94.8727932 C193.961895,94.8727932 192.731922,92.0810025 192.731922,89.5255538 C192.731922,86.9701052 193.961895,84.1783144 197.336821,84.1783144 C200.726746,84.1783144 201.941719,86.9701052 201.941719,89.5255538 C201.941719,92.0810025 200.726746,94.8727932 197.336821,94.8727932 Z M197.336821,93.1740846 C199.361776,93.1740846 200.08176,91.1060914 200.08176,89.5255538 C200.08176,87.8268452 199.376776,85.8770231 197.336821,85.8770231 C195.296866,85.8770231 194.591881,87.9302448 194.591881,89.5255538 C194.591881,91.2094911 195.296866,93.1740846 197.336821,93.1740846 Z M208.858788,94.8727932 C206.698836,94.8727932 204.763879,93.853568 204.763879,90.7515783 L204.763879,84.355571 L206.563839,84.355571 L206.563839,90.7515783 C206.563839,92.6423149 207.493818,93.1740846 208.858788,93.1740846 C210.208759,93.1740846 211.153738,92.6423149 211.153738,90.7515783 L211.153738,84.355571 L212.953698,84.355571 L212.953698,90.7515783 C212.953698,93.8092539 211.078739,94.8727932 208.858788,94.8727932 Z M216.150849,94.6955366 L216.150849,84.355571 L220.800747,84.355571 C223.410689,84.355571 224.250671,85.8770231 224.250671,87.5018748 C224.250671,88.6835852 223.575686,90.0130093 222.090718,90.4561507 L224.190672,94.6955366 L222.165717,94.6955366 L220.140761,90.6481787 L217.95081,90.6481787 L217.95081,94.6955366 L216.150849,94.6955366 Z M217.95081,88.9642414 L220.830746,88.9642414 C222.00072,88.9642414 222.390712,88.2552152 222.390712,87.5018748 C222.390712,86.80762 222.060719,86.0395083 220.830746,86.0395083 L217.95081,86.0395083 L217.95081,88.9642414 Z M231.092742,94.8727932 C227.822814,94.8727932 226.697839,92.0810025 226.697839,89.5255538 C226.697839,87.1473617 227.852813,84.1783144 231.092742,84.1783144 C233.087698,84.1783144 234.302671,85.2861679 234.752661,86.37925 L233.132697,87.1030476 C232.607708,86.3201645 232.08272,85.8770231 231.092742,85.8770231 C229.157784,85.8770231 228.557798,87.9007021 228.557798,89.5255538 C228.557798,91.2390338 229.322781,93.1593132 231.092742,93.1593132 C232.037721,93.1593132 232.622708,92.6127721 233.102697,91.829889 L234.767661,92.450287 C234.122675,93.8831108 232.9677,94.8727932 231.092742,94.8727932 Z M237.469823,94.6955366 L237.469823,84.355571 L244.309672,84.355571 L244.309672,86.0247369 L239.269783,86.0247369 L239.269783,88.5211 L242.374715,88.5211 L242.374715,90.1902659 L239.269783,90.1902659 L239.269783,93.0263708 L244.639665,93.0263708 L244.639665,94.6955366 L237.469823,94.6955366 Z M247.386826,84.355571 L250.626755,84.355571 C254.301674,84.355571 255.681643,86.9553338 255.681643,89.5255538 C255.681643,91.8889745 254.421671,94.6955366 250.566756,94.6955366 L247.386826,94.6955366 L247.386826,84.355571 Z M250.82175,93.0263708 C253.056701,93.0263708 253.821684,91.1504056 253.821684,89.5255538 C253.821684,87.782531 252.981703,86.0247369 250.986747,86.0247369 L249.186787,86.0247369 L249.186787,93.0263708 L250.82175,93.0263708 Z M266.335852,94.8727932 C264.400895,94.8727932 262.945927,93.8387966 262.37594,92.1991735 L264.040903,91.593547 C264.475893,92.5389152 265.315875,93.1888559 266.395851,93.1888559 C267.475827,93.1888559 268.195811,92.7014004 268.195811,91.7560321 C268.195811,90.7663497 267.130835,90.3970652 265.945861,89.998238 C264.445894,89.4960111 262.765931,88.9199273 262.765931,86.9553338 C262.765931,85.4486531 264.010904,84.1783144 266.215855,84.1783144 C268.045814,84.1783144 269.200789,85.1236827 269.575781,86.3940214 L267.955816,86.925791 C267.685822,86.3201645 267.085836,85.8622517 266.095857,85.8622517 C265.150878,85.8622517 264.595891,86.2610789 264.595891,86.9701052 C264.595891,87.7234455 265.51087,88.0336445 266.605846,88.3881576 C268.135812,88.9199273 270.025771,89.569868 270.025771,91.7560321 C270.025771,93.7501684 268.405806,94.8727932 266.335852,94.8727932 Z M277.077837,94.8727932 C273.702912,94.8727932 272.472939,92.0810025 272.472939,89.5255538 C272.472939,86.9701052 273.702912,84.1783144 277.077837,84.1783144 C280.467762,84.1783144 281.682735,86.9701052 281.682735,89.5255538 C281.682735,92.0810025 280.467762,94.8727932 277.077837,94.8727932 Z M277.077837,93.1740846 C279.102792,93.1740846 279.822777,91.1060914 279.822777,89.5255538 C279.822777,87.8268452 279.117792,85.8770231 277.077837,85.8770231 C275.037882,85.8770231 274.332898,87.9302448 274.332898,89.5255538 C274.332898,91.2094911 275.037882,93.1740846 277.077837,93.1740846 Z M284.579894,94.6955366 L284.579894,84.355571 L291.359744,84.355571 L291.359744,86.0247369 L286.379854,86.0247369 L286.379854,88.5211 L289.559784,88.5211 L289.559784,90.1902659 L286.379854,90.1902659 L286.379854,94.6955366 L284.579894,94.6955366 Z M297.916821,86.0542796 L297.916821,94.6955366 L296.116861,94.6955366 L296.116861,86.0542796 L293.131927,86.0542796 L293.131927,84.355571 L300.901755,84.355571 L300.901755,86.0542796 L297.916821,86.0542796 Z M305.073885,94.6955366 L302.823935,84.355571 L304.668894,84.355571 L305.913867,90.4413794 C306.003865,90.9140635 306.063864,91.1947197 306.093863,91.4310618 C306.123862,91.1947197 306.183861,90.9140635 306.303858,90.4413794 L307.848824,84.355571 L309.37879,84.355571 L310.953756,90.426608 C311.088753,90.8992921 311.133752,91.1799483 311.163751,91.4162904 C311.19375,91.1799483 311.238749,90.8992921 311.343747,90.4413794 L312.58872,84.355571 L314.403679,84.355571 L312.138729,94.6955366 L310.488766,94.6955366 L308.793803,88.2995293 C308.673806,87.8859307 308.613807,87.6052745 308.583808,87.3393897 C308.553809,87.6052745 308.49381,87.8859307 308.388812,88.2847579 L306.723849,94.6955366 L305.073885,94.6955366 Z M323.315705,94.6955366 L322.490723,92.4355156 L318.335815,92.4355156 L317.510833,94.6955366 L315.605875,94.6955366 L319.520789,84.355571 L321.305749,84.355571 L325.205663,94.6955366 L323.315705,94.6955366 Z M321.920736,90.8402066 L320.765761,87.7382169 C320.645764,87.4427893 320.495767,86.9996479 320.420769,86.689449 C320.330771,86.9996479 320.180774,87.4427893 320.075776,87.7382169 L318.905802,90.8402066 L321.920736,90.8402066 Z M327.532834,94.6955366 L327.532834,84.355571 L332.182731,84.355571 C334.792674,84.355571 335.632655,85.8770231 335.632655,87.5018748 C335.632655,88.6835852 334.95767,90.0130093 333.472703,90.4561507 L335.572656,94.6955366 L333.547701,94.6955366 L331.522746,90.6481787 L329.332794,90.6481787 L329.332794,94.6955366 L327.532834,94.6955366 Z M329.332794,88.9642414 L332.212731,88.9642414 C333.382705,88.9642414 333.772696,88.2552152 333.772696,87.5018748 C333.772696,86.80762 333.442703,86.0395083 332.212731,86.0395083 L329.332794,86.0395083 L329.332794,88.9642414 Z M338.529813,94.6955366 L338.529813,84.355571 L345.369662,84.355571 L345.369662,86.0247369 L340.329773,86.0247369 L340.329773,88.5211 L343.434705,88.5211 L343.434705,90.1902659 L340.329773,90.1902659 L340.329773,93.0263708 L345.699655,93.0263708 L345.699655,94.6955366 L338.529813,94.6955366 Z M352.843941,94.6955366 L352.843941,84.355571 L357.493839,84.355571 C360.103781,84.355571 360.943763,85.8770231 360.943763,87.5018748 C360.943763,88.6835852 360.268778,90.0130093 358.78381,90.4561507 L360.883764,94.6955366 L358.858809,94.6955366 L356.833853,90.6481787 L354.643902,90.6481787 L354.643902,94.6955366 L352.843941,94.6955366 Z M354.643902,88.9642414 L357.523838,88.9642414 C358.693812,88.9642414 359.083804,88.2552152 359.083804,87.5018748 C359.083804,86.80762 358.753811,86.0395083 357.523838,86.0395083 L354.643902,86.0395083 L354.643902,88.9642414 Z M363.840921,94.6955366 L363.840921,84.355571 L370.68077,84.355571 L370.68077,86.0247369 L365.640881,86.0247369 L365.640881,88.5211 L368.745813,88.5211 L368.745813,90.1902659 L365.640881,90.1902659 L365.640881,93.0263708 L371.010763,93.0263708 L371.010763,94.6955366 L363.840921,94.6955366 Z M377.402844,94.8727932 C374.132916,94.8727932 373.007941,92.0810025 373.007941,89.5255538 C373.007941,87.1473617 374.162915,84.1783144 377.402844,84.1783144 C379.397799,84.1783144 380.612773,85.2861679 381.062763,86.37925 L379.442798,87.1030476 C378.91781,86.3201645 378.392822,85.8770231 377.402844,85.8770231 C375.467886,85.8770231 374.8679,87.9007021 374.8679,89.5255538 C374.8679,91.2390338 375.632883,93.1593132 377.402844,93.1593132 C378.347823,93.1593132 378.93281,92.6127721 379.412799,91.829889 L381.077762,92.450287 C380.432777,93.8831108 379.277802,94.8727932 377.402844,94.8727932 Z M387.859835,94.8727932 C384.484909,94.8727932 383.254936,92.0810025 383.254936,89.5255538 C383.254936,86.9701052 384.484909,84.1783144 387.859835,84.1783144 C391.24976,84.1783144 392.464733,86.9701052 392.464733,89.5255538 C392.464733,92.0810025 391.24976,94.8727932 387.859835,94.8727932 Z M387.859835,93.1740846 C389.88479,93.1740846 390.604774,91.1060914 390.604774,89.5255538 C390.604774,87.8268452 389.89979,85.8770231 387.859835,85.8770231 C385.81988,85.8770231 385.114895,87.9302448 385.114895,89.5255538 C385.114895,91.2094911 385.81988,93.1740846 387.859835,93.1740846 Z M404.91668,94.6955366 L403.11672,94.6955366 L403.11672,89.2005835 C403.11672,88.831299 403.146719,88.2404438 403.176719,87.9597876 C403.041722,88.3586148 402.846726,88.8608417 402.696729,89.2301262 L400.146786,94.8727932 L397.596842,89.2005835 C397.431846,88.8460704 397.23685,88.3586148 397.101853,87.9597876 C397.131852,88.2404438 397.161852,88.831299 397.161852,89.2005835 L397.161852,94.6955366 L395.361891,94.6955366 L395.361891,84.355571 L397.176851,84.355571 L399.876792,90.426608 C399.981789,90.6777214 400.086787,90.9583776 400.161785,91.1947197 C400.236784,90.9583776 400.341781,90.6777214 400.446779,90.426608 L403.161719,84.355571 L404.91668,84.355571 L404.91668,94.6955366 Z M417.743619,94.6955366 L415.943659,94.6955366 L415.943659,89.2005835 C415.943659,88.831299 415.973658,88.2404438 416.003658,87.9597876 C415.868661,88.3586148 415.673665,88.8608417 415.523668,89.2301262 L412.973725,94.8727932 L410.423781,89.2005835 C410.258785,88.8460704 410.063789,88.3586148 409.928792,87.9597876 C409.958791,88.2404438 409.988791,88.831299 409.988791,89.2005835 L409.988791,94.6955366 L408.18883,94.6955366 L408.18883,84.355571 L410.00379,84.355571 L412.703731,90.426608 C412.808728,90.6777214 412.913726,90.9583776 412.988724,91.1947197 C413.063723,90.9583776 413.16872,90.6777214 413.273718,90.426608 L415.988658,84.355571 L417.743619,84.355571 L417.743619,94.6955366 Z M421.015769,94.6955366 L421.015769,84.355571 L427.855618,84.355571 L427.855618,86.0247369 L422.815729,86.0247369 L422.815729,88.5211 L425.920661,88.5211 L425.920661,90.1902659 L422.815729,90.1902659 L422.815729,93.0263708 L428.185611,93.0263708 L428.185611,94.6955366 L421.015769,94.6955366 Z M439.092592,94.6955366 L437.457628,94.6955366 L433.107724,88.1665869 C432.972727,87.9597876 432.807731,87.66436 432.672734,87.3984752 C432.702733,87.6348172 432.717733,87.9302448 432.717733,88.1665869 L432.717733,94.6955366 L430.932772,94.6955366 L430.932772,84.355571 L432.672734,84.355571 L436.91764,90.7811211 C437.067637,91.0026918 437.217634,91.2981194 437.352631,91.5640042 C437.322631,91.2981194 437.307632,91.0026918 437.307632,90.7811211 L437.307632,84.355571 L439.092592,84.355571 L439.092592,94.6955366 Z M442.364742,84.355571 L445.604671,84.355571 C449.279589,84.355571 450.659559,86.9553338 450.659559,89.5255538 C450.659559,91.8889745 449.399587,94.6955366 445.544672,94.6955366 L442.364742,94.6955366 L442.364742,84.355571 Z M445.799666,93.0263708 C448.034617,93.0263708 448.7996,91.1504056 448.7996,89.5255538 C448.7996,87.782531 447.959619,86.0247369 445.964663,86.0247369 L444.164702,86.0247369 L444.164702,93.0263708 L445.799666,93.0263708 Z M459.901577,94.6955366 L459.076595,92.4355156 L454.921687,92.4355156 L454.096705,94.6955366 L452.191747,94.6955366 L456.106661,84.355571 L457.891621,84.355571 L461.791535,94.6955366 L459.901577,94.6955366 Z M458.506608,90.8402066 L457.351633,87.7382169 C457.231636,87.4427893 457.081639,86.9996479 457.006641,86.689449 C456.916643,86.9996479 456.766646,87.4427893 456.661649,87.7382169 L455.491674,90.8402066 L458.506608,90.8402066 Z M467.028642,86.0542796 L467.028642,94.6955366 L465.228682,94.6955366 L465.228682,86.0542796 L462.243747,86.0542796 L462.243747,84.355571 L470.013576,84.355571 L470.013576,86.0542796 L467.028642,86.0542796 Z M472.685739,94.6955366 L472.685739,84.355571 L474.485699,84.355571 L474.485699,94.6955366 L472.685739,94.6955366 Z M482.062754,94.8727932 C478.687829,94.8727932 477.457856,92.0810025 477.457856,89.5255538 C477.457856,86.9701052 478.687829,84.1783144 482.062754,84.1783144 C485.452679,84.1783144 486.667653,86.9701052 486.667653,89.5255538 C486.667653,92.0810025 485.452679,94.8727932 482.062754,94.8727932 Z M482.062754,93.1740846 C484.087709,93.1740846 484.807694,91.1060914 484.807694,89.5255538 C484.807694,87.8268452 484.102709,85.8770231 482.062754,85.8770231 C480.022799,85.8770231 479.317815,87.9302448 479.317815,89.5255538 C479.317815,91.2094911 480.022799,93.1740846 482.062754,93.1740846 Z M497.724631,94.6955366 L496.089667,94.6955366 L491.739763,88.1665869 C491.604766,87.9597876 491.439769,87.66436 491.304772,87.3984752 C491.334772,87.6348172 491.349771,87.9302448 491.349771,88.1665869 L491.349771,94.6955366 L489.564811,94.6955366 L489.564811,84.355571 L491.304772,84.355571 L495.549679,90.7811211 C495.699675,91.0026918 495.849672,91.2981194 495.984669,91.5640042 C495.95467,91.2981194 495.93967,91.0026918 495.93967,90.7811211 L495.93967,84.355571 L497.724631,84.355571 L497.724631,94.6955366 Z M504.356706,94.8727932 C502.421749,94.8727932 500.966781,93.8387966 500.396794,92.1991735 L502.061757,91.593547 C502.496747,92.5389152 503.336729,93.1888559 504.416705,93.1888559 C505.496681,93.1888559 506.216665,92.7014004 506.216665,91.7560321 C506.216665,90.7663497 505.151689,90.3970652 503.966715,89.998238 C502.466748,89.4960111 500.786785,88.9199273 500.786785,86.9553338 C500.786785,85.4486531 502.031758,84.1783144 504.236709,84.1783144 C506.066668,84.1783144 507.221643,85.1236827 507.596635,86.3940214 L505.97667,86.925791 C505.706676,86.3201645 505.10669,85.8622517 504.116712,85.8622517 C503.171732,85.8622517 502.616745,86.2610789 502.616745,86.9701052 C502.616745,87.7234455 503.531724,88.0336445 504.6267,88.3881576 C506.156667,88.9199273 508.046625,89.569868 508.046625,91.7560321 C508.046625,93.7501684 506.426661,94.8727932 504.356706,94.8727932 Z" id="CROWDSOURCED-SOFTWAR"></path>
            <path d="M150.988124,57.1622631 L141.922499,57.1622631 C140.674935,57.1622631 140.009568,57.8175035 139.760056,58.8822691 L137.514442,68.1375396 C137.098588,69.9394507 135.767854,70.9223113 133.854923,70.9223113 L128.448816,70.9223113 C126.619057,70.9223113 125.621006,69.9394507 126.120032,68.1375396 L139.344201,18.9945103 C139.843227,17.2745043 141.09079,16.2916437 142.920549,16.2916437 L150.489099,16.2916437 C152.318858,16.2916437 153.566421,17.2745043 154.065447,18.9945103 L167.040104,67.8918245 C167.539129,69.6937356 166.541078,70.9223113 164.711319,70.9223113 L159.055699,70.9223113 C157.142769,70.9223113 155.812035,69.9394507 155.396181,68.1375396 L153.150567,58.8822691 C152.901054,57.8175035 152.235687,57.1622631 150.988124,57.1622631 Z M145.037149,47.6612774 L149.944231,47.6612774 C150.85911,47.6612774 151.441306,47.2517522 151.191794,46.2688916 L147.532275,30.7888373 L143.789586,46.2688916 C143.540073,47.2517522 144.122269,47.6612774 145.037149,47.6612774 Z M181.79535,19.0764153 L181.79535,68.2194447 C181.79535,70.0213558 180.88047,70.9223113 178.96754,70.9223113 L173.727775,70.9223113 C171.898016,70.9223113 170.983136,70.0213558 170.983136,68.2194447 L170.983136,19.0764153 C170.983136,17.1925992 171.898016,16.2916437 173.727775,16.2916437 L178.96754,16.2916437 C180.88047,16.2916437 181.79535,17.1925992 181.79535,19.0764153 Z M188.612035,61.4213256 L188.612035,37.6688614 L187.697156,37.6688614 C185.867396,37.6688614 184.952517,36.7679059 184.952517,34.9659948 L184.952517,31.3621727 C184.952517,29.5602616 185.867396,28.6593061 187.697156,28.6593061 L188.612035,28.6593061 L188.612035,22.6802375 C188.612035,20.9602315 188.944719,18.9945103 191.190332,18.3392699 L195.598389,17.1106942 C198.010344,16.4554538 199.424249,17.2745043 199.424249,19.5678456 L199.424249,28.6593061 L203.000597,28.6593061 C204.830356,28.6593061 205.745236,29.5602616 205.745236,31.3621727 L205.745236,34.9659948 C205.745236,36.7679059 204.830356,37.6688614 203.000597,37.6688614 L199.424249,37.6688614 L199.424249,59.8651297 C199.424249,61.994661 200.671813,62.7318064 202.252059,62.7318064 L203.416452,62.7318064 C204.664015,62.7318064 205.495724,63.1413317 205.495724,65.0251478 L205.495724,67.8099194 C205.495724,70.5946911 202.667914,71.7413618 199.673762,71.7413618 C194.184484,71.7413618 188.612035,68.710875 188.612035,61.4213256 Z M238.178552,42.009829 L238.178552,50.1184289 C238.178552,51.9203399 237.263672,52.8212955 235.433913,52.8212955 L218.882908,52.8212955 L218.882908,55.7698772 C218.882908,60.35656 221.045351,62.8137115 226.118774,62.8137115 C229.611951,62.8137115 230.942685,61.4213256 233.188299,61.4213256 C235.1844,61.4213256 235.932938,62.9775216 235.932938,64.1241922 L235.932938,65.434673 C235.932938,68.8746851 232.606103,71.7413618 225.453407,71.7413618 C214.058997,71.7413618 208.070694,65.1889579 208.070694,54.8689217 L208.070694,42.009829 C208.070694,33.3278938 214.474852,27.8402556 223.124623,27.8402556 C231.774394,27.8402556 238.178552,33.3278938 238.178552,42.009829 Z M227.449508,44.7126956 L227.449508,42.009829 C227.449508,38.0783867 225.786091,36.1126655 223.124623,36.1126655 C220.463155,36.1126655 218.882908,38.0783867 218.882908,42.009829 L218.882908,44.7126956 L227.449508,44.7126956 Z M254.476717,44.4669805 L254.476717,68.2194447 C254.476717,70.0213558 253.561837,70.9223113 251.648907,70.9223113 L246.409142,70.9223113 C244.579383,70.9223113 243.664503,70.0213558 243.664503,68.2194447 L243.664503,31.4440777 C243.664503,29.5602616 244.579383,28.6593061 246.409142,28.6593061 L251.648907,28.6593061 C253.645008,28.6593061 254.476717,29.5602616 254.476717,31.6078878 C256.140135,29.8878818 258.718432,27.8402556 261.962096,27.8402556 C263.958197,27.8402556 264.20771,29.0688313 264.20771,30.1335969 L264.20771,34.4745645 C264.20771,36.8498109 262.128438,37.0955261 260.132337,37.3412412 C256.722331,37.7507665 254.476717,40.4536331 254.476717,44.4669805 Z M288.074425,68.2194447 L288.074425,42.6650694 C288.074425,39.3069624 286.494178,36.8498109 283.333685,36.8498109 C280.173191,36.8498109 278.592945,39.3069624 278.592945,42.6650694 L278.592945,68.2194447 C278.592945,70.0213558 277.678065,70.9223113 275.765135,70.9223113 L270.52537,70.9223113 C268.69561,70.9223113 267.780731,70.0213558 267.780731,68.2194447 L267.780731,31.4440777 C267.780731,29.5602616 268.69561,28.6593061 270.52537,28.6593061 L275.765135,28.6593061 C277.594894,28.6593061 278.592945,29.5602616 278.592945,31.3621727 C278.592945,31.3621727 281.420755,27.8402556 286.993203,27.8402556 C295.060779,27.8402556 298.886639,33.7374191 298.886639,42.6650694 L298.886639,68.2194447 C298.886639,70.0213558 297.971759,70.9223113 296.058829,70.9223113 L290.819064,70.9223113 C288.989305,70.9223113 288.074425,70.0213558 288.074425,68.2194447 Z M317.763102,35.7031403 C312.939191,35.7031403 311.109431,36.931716 309.529185,36.931716 C308.531134,36.931716 307.283571,36.4402857 307.283571,34.8840898 L307.283571,32.6726535 C307.283571,29.1507363 312.689678,27.8402556 317.929443,27.8402556 C325.16531,27.8402556 334.563619,29.6421666 334.563619,41.2726836 L334.563619,68.1375396 C334.563619,70.0213558 333.648739,70.9223113 331.81898,70.9223113 L327.826778,70.9223113 C326.080189,70.9223113 325.16531,70.1851659 324.998968,68.79278 C324.749455,69.0384952 322.087987,71.7413618 317.180905,71.7413618 C309.11333,71.7413618 303.457711,65.7622932 303.457711,58.1451237 C303.457711,45.367936 313.521387,41.6003038 323.751405,40.5355381 C323.585063,37.6688614 322.420671,35.7031403 317.763102,35.7031403 Z M314.269925,56.998453 C314.269925,60.0289398 315.767,62.5679963 319.010665,62.5679963 C322.087987,62.5679963 323.751405,60.1108448 323.751405,56.998453 L323.751405,48.2346127 C318.927494,49.2993784 314.269925,50.8555743 314.269925,56.998453 Z M340.881279,61.4213256 L340.881279,37.6688614 L339.966399,37.6688614 C338.13664,37.6688614 337.22176,36.7679059 337.22176,34.9659948 L337.22176,31.3621727 C337.22176,29.5602616 338.13664,28.6593061 339.966399,28.6593061 L340.881279,28.6593061 L340.881279,22.6802375 C340.881279,20.9602315 341.213962,18.9945103 343.459576,18.3392699 L347.867633,17.1106942 C350.279588,16.4554538 351.693493,17.2745043 351.693493,19.5678456 L351.693493,28.6593061 L355.269841,28.6593061 C357.0996,28.6593061 358.01448,29.5602616 358.01448,31.3621727 L358.01448,34.9659948 C358.01448,36.7679059 357.0996,37.6688614 355.269841,37.6688614 L351.693493,37.6688614 L351.693493,59.8651297 C351.693493,61.994661 352.941056,62.7318064 354.521303,62.7318064 L355.685695,62.7318064 C356.933258,62.7318064 357.764967,63.1413317 357.764967,65.0251478 L357.764967,67.8099194 C357.764967,70.5946911 354.937157,71.7413618 351.943006,71.7413618 C346.453728,71.7413618 340.881279,68.710875 340.881279,61.4213256 Z M372.815569,31.4440777 L372.815569,68.2194447 C372.815569,70.0213558 371.900689,70.9223113 369.987759,70.9223113 L364.747994,70.9223113 C362.918235,70.9223113 362.003355,70.0213558 362.003355,68.2194447 L362.003355,31.4440777 C362.003355,29.5602616 362.918235,28.6593061 364.747994,28.6593061 L369.987759,28.6593061 C371.900689,28.6593061 372.815569,29.5602616 372.815569,31.4440777 Z M372.815569,19.0764153 L372.815569,22.5164274 C372.815569,24.3183385 371.900689,25.219294 369.987759,25.219294 L364.747994,25.219294 C362.918235,25.219294 362.003355,24.3183385 362.003355,22.5164274 L362.003355,19.0764153 C362.003355,17.1925992 362.918235,16.2916437 364.747994,16.2916437 L369.987759,16.2916437 C371.900689,16.2916437 372.815569,17.1925992 372.815569,19.0764153 Z M404.250834,28.6593061 L408.326207,28.6593061 C410.155967,28.6593061 411.486701,29.8878818 410.654992,32.2631282 L398.595215,68.2194447 C398.17936,69.6118305 397.18131,70.9223113 395.018867,70.9223113 L391.193006,70.9223113 C389.030564,70.9223113 388.032513,69.6118305 387.616659,68.2194447 L376.222248,32.2631282 C375.47371,29.8878818 376.721274,28.6593061 378.551033,28.6593061 L383.125431,28.6593061 C385.371045,28.6593061 386.369095,29.7240717 386.78495,31.4440777 L393.43862,54.7051116 L400.591316,31.4440777 C401.090341,29.7240717 402.005221,28.6593061 404.250834,28.6593061 Z M443.836845,42.009829 L443.836845,50.1184289 C443.836845,51.9203399 442.921966,52.8212955 441.092206,52.8212955 L424.541202,52.8212955 L424.541202,55.7698772 C424.541202,60.35656 426.703644,62.8137115 431.777068,62.8137115 C435.270245,62.8137115 436.600979,61.4213256 438.846593,61.4213256 C440.842694,61.4213256 441.591232,62.9775216 441.591232,64.1241922 L441.591232,65.434673 C441.591232,68.8746851 438.264397,71.7413618 431.111701,71.7413618 C419.717291,71.7413618 413.728987,65.1889579 413.728987,54.8689217 L413.728987,42.009829 C413.728987,33.3278938 420.133145,27.8402556 428.782916,27.8402556 C437.432688,27.8402556 443.836845,33.3278938 443.836845,42.009829 Z M433.107802,44.7126956 L433.107802,42.009829 C433.107802,38.0783867 431.444385,36.1126655 428.782916,36.1126655 C426.121448,36.1126655 424.541202,38.0783867 424.541202,42.009829 L424.541202,44.7126956 L433.107802,44.7126956 Z M476.445018,16.2916437 C478.357948,16.2916437 479.272828,17.1925992 479.272828,19.0764153 L479.272828,23.0078577 C479.272828,24.8097688 478.357948,25.7107243 476.445018,25.7107243 L469.292322,25.7107243 C468.211101,25.7107243 467.628905,26.2840596 467.628905,27.3488253 L467.628905,68.2194447 C467.628905,70.0213558 466.714025,70.9223113 464.884266,70.9223113 L459.228646,70.9223113 C457.315716,70.9223113 456.400836,70.0213558 456.400836,68.2194447 L456.400836,27.3488253 C456.400836,26.2840596 455.81864,25.7107243 454.737419,25.7107243 L447.584723,25.7107243 C445.671793,25.7107243 444.756913,24.8097688 444.756913,23.0078577 L444.756913,19.0764153 C444.756913,17.1925992 445.671793,16.2916437 447.584723,16.2916437 L476.445018,16.2916437 Z M477.107058,57.8175035 L477.107058,41.7641139 C477.107058,32.0174131 484.758779,27.8402556 492.576841,27.8402556 C500.394904,27.8402556 508.046625,32.0174131 508.046625,41.7641139 L508.046625,57.8175035 C508.046625,67.5642043 500.394904,71.7413618 492.576841,71.7413618 C484.758779,71.7413618 477.107058,67.5642043 477.107058,57.8175035 Z M487.919272,41.7641139 L487.919272,57.8175035 C487.919272,61.0118004 489.749032,62.7318064 492.576841,62.7318064 C495.404651,62.7318064 497.234411,61.0118004 497.234411,57.8175035 L497.234411,41.7641139 C497.234411,38.569817 495.404651,36.8498109 492.576841,36.8498109 C489.749032,36.8498109 487.919272,38.569817 487.919272,41.7641139 Z" id="AlternativeTo"></path>
        </g>
    </g>
</svg>