<svg xmlns="http://www.w3.org/2000/svg" viewBox="0 0 24 24"><defs><style>.a{fill:none;stroke:currentColor;stroke-linecap:round;stroke-linejoin:round;stroke-width:1.5px;}</style></defs><title>color-brush</title><path class="a" d="M21.75,23.25H2.25A14.213,14.213,0,0,0,3.75,16.9V15.75h16.5V16.9A14.213,14.213,0,0,0,21.75,23.25Z"/><path class="a" d="M14.559,8.208h0A22.775,22.775,0,0,0,15,3.75h0a3,3,0,0,0-3-3h0a3,3,0,0,0-3,3H9a22.775,22.775,0,0,0,.441,4.458h0A1.289,1.289,0,0,1,8.177,9.75H5.25a3,3,0,0,0-3,3V15a.75.75,0,0,0,.75.75H21a.75.75,0,0,0,.75-.75V12.75a3,3,0,0,0-3-3H15.823A1.289,1.289,0,0,1,14.559,8.208Z"/><line class="a" x1="17.25" y1="23.25" x2="17.25" y2="19.5"/><line class="a" x1="14.25" y1="23.25" x2="14.25" y2="20.25"/></svg>