<svg xmlns="http://www.w3.org/2000/svg" viewBox="0 0 200 200"><g><path d="M103.351,135.874c-3.3-1.134-5.788.477-9.27-1.456a2.482,2.482,0,0,1-1.1-1.248,1.887,1.887,0,0,1,.347-1.679c.844-1.18,2.358-1.594,3.738-1.905a28.022,28.022,0,0,1-17.671-8.423q-3.178.206-6.35.5A81.519,81.519,0,0,0,76.5,129.81c.558,1.255,1.087,2.517,1.717,3.738a36.209,36.209,0,0,0,5.4,7.9c7.025-1.667,14.044-3.384,21.136-4.746A3.954,3.954,0,0,0,103.351,135.874Z" fill="#ffffff"></path><path d="M73.209,143.839c2.175-.475,8.216-1.878,10.406-2.387a36.242,36.242,0,0,1-5.4-7.9c-.254-.493-4.278-9.084-5.175-11.887q3.171-.293,6.35-.5-.324-.345-.634-.7c-9.983.677-19.288,1.968-29.206,3.585-11.528,1.881-23.108,4.6-32.526,11.023C7.681,141.446,2.7,151.32,6,162.284c4.88,16.218,24.253,17.137,41.21,17.187a124.987,124.987,0,0,0,21.957-1.534c.6-.105,3.989-.749,4.219-.851a.373.373,0,0,1-.45-.359c-.026-3.026-.08-12.946,0-32.53A.373.373,0,0,1,73.209,143.839Z" fill="#b6dbff"></path><path d="M192.764,110.587c-1.036-5.038-1.676-8.117-3.382-11.737,1.042,2.862,2.606,7.1,2.3,10.129a3.156,3.156,0,0,1-3.782,2.856c.1.139,1.594,2.251,1.677,2.37a2.79,2.79,0,0,0,2.942-.93A3.369,3.369,0,0,0,192.764,110.587Z" fill="#ffd7d7"></path><path d="M190.714,105.67a46.233,46.233,0,0,0-2.053-6.635c-.162-.447.541-.638.711-.207-1.537-3.339-2.524-5.485-5.077-8.044a7.2,7.2,0,0,0-4.314-2.423,10.857,10.857,0,0,0-5.018.766,19.983,19.983,0,0,0-2.907,1.391c.152.2,7.42,9.781,9.987,13.252q-1.6-4.569-3.211-9.136c-.16-.453.559-.645.716-.2q1.619,4.6,3.238,9.209l.355-.276a.377.377,0,0,1,.584.075c.237.5,1.462,3.189,1.831,4.034a.348.348,0,0,1,.116.085,1.8,1.8,0,0,0,2.755.216c.781-.89.38-2.291.214-3.327-.741-4.617-1.515-8.365-4.326-12.582-.266-.4.377-.771.642-.375a25.508,25.508,0,0,1,3.883,9.785c.118.606.712,3.856.77,4.711a2.847,2.847,0,0,1-1.18,2.743,2.4,2.4,0,0,1-2.3.074,5.81,5.81,0,0,0,.981,1.914.371.371,0,0,1,.085.035,2.442,2.442,0,0,0,3.772-2.171A11.126,11.126,0,0,0,190.714,105.67Z" fill="#ffd7d7"></path><path d="M127.1,95.565c-3.05.608-6.554-.21-10.317.051a64.216,64.216,0,0,1-7.045.2A28.884,28.884,0,0,1,97.248,92.4c-6.317-3.4-8.261-6.981-16.45-9.9-.022.024-.046.045-.069.069.844,5.513,1.251,6.757.742,8.53a1.461,1.461,0,0,1-1.463,1.066,1.887,1.887,0,0,1-1.471-1.089,19.738,19.738,0,0,1-1.544-3.627,30.341,30.341,0,0,0-1.884,3.606c1.8,3.992,1.991,4.8,2.924,6.424a22.026,22.026,0,0,1,1.184,2.334c.216.507.5,1.193.147,1.7-1.3,1.855-4.742-1.141-6.353-2.739-.159-.158-.315-.32-.476-.478a15.652,15.652,0,0,0-.368,2.148c-.047.472-.789.476-.743,0,.022-.22.057-.437.087-.656a9.131,9.131,0,0,0-2.662-.652c-.473-.043-.476-.786,0-.743a10.191,10.191,0,0,1,2.777.648c.064-.356.136-.709.219-1.062.132-.568.725.571-1.714-2.235-.029-.032-.639-.761-.807-.969a3.9,3.9,0,0,0-2.968,4.791,3.717,3.717,0,0,0,2.422,2.7,5.8,5.8,0,0,0,3.784.308c-.384,13.807,9.1,25.3,24.5,27.014,11.273-2.542,13.714-.522,18.784-3.348,6.015-3.352,10.5-11.19,12.254-17.553.861-3.123.346-3.98.983-5.245A30.252,30.252,0,0,0,127.1,95.565ZM93.291,109.521a.372.372,0,0,1-.743,0V107.45a.372.372,0,0,1,.743,0Zm5.979-4.083c-3.006.337-5-2.271-7.573-3.816a12.184,12.184,0,0,0-2.692-1.181c-.456-.141-.259-.863.2-.717a15.475,15.475,0,0,1,4.962,2.736c1.456,1.173,3.115,2.458,5.1,2.235C99.745,104.642,99.739,105.386,99.27,105.438Zm.213-1.652c-4.062-.471-6.348-4.189-10.17-4.429-.476-.03-.478-.775,0-.743A6.888,6.888,0,0,1,91.7,99.2c3.707,1.68,4.437,3.273,7.781,3.848C99.953,103.1,99.957,103.841,99.483,103.786Zm.08-.913C92.555,99,92.975,99.211,92.3,98.894a4.456,4.456,0,0,0-2.475-.521c-.469.066-.67-.65-.2-.716,1.862-.263,3.5.813,5.063,1.675q2.622,1.451,5.246,2.9C100.357,102.463,99.981,103.1,99.563,102.873Zm14.021,11.184c-.787,1.257-1.691,2.614-3.317,2.62a4.94,4.94,0,0,1-4.2-2.4c-.281.281-.558.567-.844.844a.372.372,0,0,1-.526-.526c.388-.4.791-.787,1.185-1.183a.371.371,0,0,1,.583.075,4.2,4.2,0,0,0,3.8,2.448c1.323,0,2.047-1.248,2.676-2.252C113.2,113.276,113.838,113.65,113.584,114.057Zm7.132-4.536a.372.372,0,0,1-.743,0V107.45a.372.372,0,0,1,.743,0Zm1.6-4.273a6.4,6.4,0,0,0-1.087-1.886,1.96,1.96,0,0,0-1.735-.808,4.895,4.895,0,0,0-3.316,2.043c-.273.388-.916.018-.641-.375a5.639,5.639,0,0,1,4.064-2.417c1.791-.076,2.885,1.777,3.432,3.245C123.2,105.5,122.482,105.693,122.318,105.248Zm.84-1.3a7.207,7.207,0,0,0-1.251-2.16,2.228,2.228,0,0,0-2-.895,5.565,5.565,0,0,0-3.723,2.313c-.273.388-.916.018-.641-.375a6.15,6.15,0,0,1,4.471-2.689c2.015-.17,3.251,1.957,3.865,3.608C124.042,104.2,123.322,104.391,123.158,103.946Zm.672-1.564a7.9,7.9,0,0,0-1.362-2.355,2.461,2.461,0,0,0-2.2-.994,6.076,6.076,0,0,0-4.093,2.534c-.273.388-.92.015-.641-.375a6.741,6.741,0,0,1,4.841-2.909c2.174-.125,3.506,2.12,4.166,3.9C124.713,102.634,123.993,102.827,123.83,102.382Z" fill="#ffd7d7"></path><path d="M169.422,158.157s-19.638-19.588-21.376-21.375a.375.375,0,0,1-.066-.428q-.831,1.863-1.732,3.7c-2.055-2.343-3.817-4.607-5.756-6.64a94.409,94.409,0,0,1-23.844,24.744,118.441,118.441,0,0,0,15.038,15.259c4.173,3.418,7.1,4.518,10.328,4.957,13.317,1.811,21.351-8.566,27.977-20.266l.006-.016A.374.374,0,0,1,169.422,158.157Zm-27.484,15.835h6.708a.372.372,0,0,1,0,.743h-6.708a.372.372,0,0,1,0-.743Z" fill="#b6dbff"></path><path d="M130.369,90.711a29.5,29.5,0,0,0-3.143-4.911c-.2.136-1.19.762-1.48.935A16.091,16.091,0,0,1,120.4,89.1c-.29.049-.621-.251-.42-.546a73.3,73.3,0,0,0,3.969-6.328,31.025,31.025,0,0,0-3.253-2.657c-1.76,4.745-5.65,8.886-9.446,12.395a6.868,6.868,0,0,1-3.383,1.717,2.452,2.452,0,0,1-1.562-.215,1.8,1.8,0,0,1-.859-1.32,6.5,6.5,0,0,1,.3-2.7,51.961,51.961,0,0,1,6.1-14.15,42.126,42.126,0,0,0-10.29-1.329c-1.138,2.233-.278,4.012,1.508,5.858a.371.371,0,0,1-.525.525c-1.859-1.787-2.849-4.052-1.8-6.388a43.061,43.061,0,0,0-4.763.263c-1.339,1.1-3.021,2.025-2.346,3.789,1.081,2.224,2.583,2.051,4.268,4.184.3.376-.355.751-.642.375-.881-1.151-1.569-1.178-3.384-2.87a3.592,3.592,0,0,1-1.132-2.667,3.786,3.786,0,0,1,1.805-2.622,29.269,29.269,0,0,0-9.94,3.229c-.447,3.458,3.165,6.938,7.252,6.308.47-.072.668.637.2.717-4.234.718-8.281-2.6-8.222-6.572a18.7,18.7,0,0,0-3.4,2.586c.05.309.24,1.519.282,1.8,8.4,2.958,10.037,6.433,16.534,9.926a28.888,28.888,0,0,0,12.49,3.422,64.223,64.223,0,0,0,7.045-.2c4.363-.3,8.326.87,11.892-.521a4.476,4.476,0,0,0,2.1-1.646C131.32,92.5,130.811,91.58,130.369,90.711Z" fill="#ffaaaa"></path><path d="M146.6,118.241a.352.352,0,0,0-.129-.1c-1.067-.468-2.138.132-3.054.671a30.546,30.546,0,0,0-5.457,4.309,29.009,29.009,0,0,0,3.9-9,4.2,4.2,0,0,0,.139-2.624,1.882,1.882,0,0,0-1.959-1.022c-2.1.182-3.757,1.841-5.182,3.22q-2.556,2.475-4.931,5.127a62.656,62.656,0,0,0,3.2-9.652c.419-1.727,1.158-4.039.05-5.662-.993-1.456-3.173-1.9-4.08-.068-.5,1.02-.326,2.075-.605,3.607a30.982,30.982,0,0,1-2.754,7.763c-2.245,4.481-5.416,8.941-9.878,11.428-5,2.788-7.624.831-18.784,3.348-1.38.311-2.894.725-3.738,1.905a1.887,1.887,0,0,0-.347,1.679,2.482,2.482,0,0,0,1.1,1.248,8.368,8.368,0,0,0,4.183,1.029c2.169-.027,4.888-.222,6.487,1.259-10.077,1.936-20.088,4.614-31.542,7.133a.374.374,0,0,0-.272.358v32.53a.373.373,0,0,0,.45.359h.02a138.253,138.253,0,0,0,18-5.5,103.186,103.186,0,0,0,34.866-21.378,85.991,85.991,0,0,0,17.319-21.974c1.385-2.5,2.785-5.357,3.35-6.639a4.547,4.547,0,0,0,.4-1.961A1.779,1.779,0,0,0,146.6,118.241ZM131.96,132.086l-2.361,2.768c-.31.364-.834-.164-.525-.526l2.361-2.767C131.746,131.2,132.269,131.724,131.96,132.086Zm-6.2-5.933-1.733,2.084c-.307.368-.829-.16-.526-.525l1.734-2.085C125.542,125.259,126.065,125.788,125.761,126.153Z" fill="#ffd7d7"></path><path d="M188.43,108.735a2.847,2.847,0,0,0,1.18-2.743c-.056-.815-.234-1.634-.366-2.44-.761-4.635-1.7-8.184-4.287-12.056-.265-.4-.908-.025-.642.375,2.745,4.112,3.554,7.77,4.326,12.582.166,1.036.567,2.437-.214,3.327a1.8,1.8,0,0,1-2.755-.216.348.348,0,0,0-.116-.085c.041.091.424.977.572,1.33A2.4,2.4,0,0,0,188.43,108.735Z" fill="#ffaaaa"></path><path d="M178.832,94.634c3.568,10.152,3.118,9.007,3.425,9.423l.529-.411q-1.62-4.605-3.238-9.209C179.391,93.989,178.672,94.181,178.832,94.634Z" fill="#ffaaaa"></path><path d="M188.661,99.035a44.816,44.816,0,0,1,2.053,6.635,11.126,11.126,0,0,1,.252,2.917,2.442,2.442,0,0,1-3.772,2.171.371.371,0,0,0-.085-.035c.264.369.524.742.787,1.112a3.156,3.156,0,0,0,3.782-2.856c.347-2.993-1.23-7.291-2.3-10.142C189.215,98.4,188.5,98.588,188.661,99.035Z" fill="#ffaaaa"></path><path d="M173.251,104.485c-4.082,1.218-8.4.389-12.426-.632a.372.372,0,0,1,.2-.716c3.913.962,8.083,1.813,12.042.628a4.9,4.9,0,0,0,1.468-1.4,2.418,2.418,0,0,0,.068-2.777,8.062,8.062,0,0,0-2.318-2.176,14.176,14.176,0,0,0-6.182-2.341c-.418-.06-.331-.054-.888-.729a8.869,8.869,0,0,0-5.235,2.574c-2.4,2.456-2.626,5.247-3.087,8.475a108.314,108.314,0,0,1-8.911,30.967.382.382,0,0,0,.066.428c1.738,1.787,21.376,21.375,21.376,21.375a.374.374,0,0,0,.575-.066c6.37-11.215,13.817-28.554,15.918-40.891C182.574,114.088,176.3,108,173.251,104.485Z" fill="#ffd7d7"></path><path d="M161.023,103.137a.372.372,0,0,0-.2.716c4.03,1.021,8.344,1.85,12.426.632-.061-.07-.123-.137-.184-.206a.39.39,0,0,1,0-.514C169.106,104.95,164.936,104.1,161.023,103.137Z" fill="#ffaaaa"></path><path d="M161.626,78.874s-4.336,3.535-4.482,3.671a1.253,1.253,0,0,0-.047,1.782,1.225,1.225,0,0,0,1.35.309c.852-.476,1-1.044,4.376-3.657a1.408,1.408,0,0,0,.712-1.148A1.212,1.212,0,0,0,161.626,78.874Z" fill="#c0c195"></path><path d="M192.046,117.814c-.794-1.223-4.964-7.129-4.978-7.149-.7-.842-.349-.841-3.343-7.22a.377.377,0,0,0-.584-.075l-.884.687c-.071-.1-16.382-21.572-17.2-22.621a.369.369,0,0,0-.45-.058,64,64,0,0,0-5.673,4.8.379.379,0,0,0,0,.525c2.071,2.564,6.674,8.129,6.761,8.223.406.385,2.66-.058,6.587,2.486a8.062,8.062,0,0,1,2.318,2.176c.99,1.451.049,3.209-1.459,4.111a.392.392,0,0,0-.075.584c4.073,4.65,15.329,15.542,16.694,16.277A1.877,1.877,0,0,0,192.046,117.814Z" fill="#c0c195"></path><path d="M192.668,120.534c-.31-.365-.833.163-.525.525l2.238,2.63c.31.365.833-.163.525-.525Z" fill="#000000"></path><path d="M92.548,107.45v2.071a.372.372,0,0,0,.743,0V107.45a.372.372,0,0,0-.743,0Z" fill="#000000"></path><path d="M119.973,107.45v2.071a.372.372,0,0,0,.743,0V107.45a.372.372,0,0,0-.743,0Z" fill="#000000"></path><path d="M112.943,113.682c-.629,1-1.352,2.251-2.676,2.252a4.2,4.2,0,0,1-3.8-2.448.371.371,0,0,0-.583-.075c-.394.4-.8.782-1.185,1.183a.372.372,0,0,0,.526.526c.286-.277.563-.563.844-.844a4.94,4.94,0,0,0,4.2,2.4c1.626-.006,2.53-1.363,3.317-2.62C113.838,113.65,113.2,113.277,112.943,113.682Z" fill="#000000"></path><path d="M99.483,103.043c-3.293-.566-4.118-2.188-7.781-3.848a6.882,6.882,0,0,0-2.389-.581c-.478-.032-.476.713,0,.743,3.851.242,6.083,3.955,10.17,4.429C99.957,103.841,99.953,103.1,99.483,103.043Z" fill="#ffaaaa"></path><path d="M116.18,101.567a6.072,6.072,0,0,1,4.093-2.534,2.461,2.461,0,0,1,2.2.994,7.868,7.868,0,0,1,1.362,2.355c.163.445.883.252.716-.2-.66-1.78-1.992-4.026-4.166-3.9a6.738,6.738,0,0,0-4.841,2.909C115.26,101.581,115.907,101.955,116.18,101.567Z" fill="#ffaaaa"></path><path d="M116.18,103.2a5.565,5.565,0,0,1,3.723-2.313,2.229,2.229,0,0,1,2,.895,7.186,7.186,0,0,1,1.251,2.16c.164.445.884.252.717-.2-.613-1.651-1.851-3.778-3.865-3.608a6.152,6.152,0,0,0-4.471,2.689C115.265,103.222,115.907,103.592,116.18,103.2Z" fill="#ffaaaa"></path><path d="M116.18,104.6a4.895,4.895,0,0,1,3.316-2.043,1.961,1.961,0,0,1,1.735.808,6.4,6.4,0,0,1,1.087,1.886c.164.444.884.252.717-.2-.546-1.467-1.641-3.322-3.432-3.245a5.641,5.641,0,0,0-4.064,2.417C115.265,104.615,115.907,104.985,116.18,104.6Z" fill="#ffaaaa"></path><path d="M99.27,104.7c-1.99.223-3.649-1.062-5.1-2.235A15.464,15.464,0,0,0,89.2,99.724c-.457-.146-.654.576-.2.717a12.164,12.164,0,0,1,2.692,1.181c2.568,1.545,4.567,4.153,7.573,3.816C99.74,105.386,99.745,104.642,99.27,104.7Z" fill="#ffaaaa"></path><path d="M99.938,102.231l-5.246-2.9c-1.559-.862-3.2-1.938-5.063-1.675-.471.066-.271.782.2.716a4.456,4.456,0,0,1,2.475.521c.663.312.208.081,7.261,3.979C99.981,103.1,100.357,102.463,99.938,102.231Z" fill="#ffaaaa"></path><path d="M72,97.762a.338.338,0,0,0-.159.217c-.085.361-.16.727-.219,1.062a10.32,10.32,0,0,0-2.777-.648c-.476-.043-.473.7,0,.743a9.309,9.309,0,0,1,2.662.652c-.051.344-.08.589-.087.656-.046.476.7.472.743,0a15.779,15.779,0,0,1,.368-2.148Q72.268,98.032,72,97.762Z" fill="#000000"></path><path d="M71.859,144.213A301.819,301.819,0,0,1,38.168,146.5a.372.372,0,0,0,0,.743,294.515,294.515,0,0,0,33.691-2.29C72.327,144.9,72.333,144.153,71.859,144.213Z" fill="#6596e1"></path><path d="M125.236,125.627l-1.734,2.085c-.3.365.219.893.526.525l1.733-2.084C126.065,125.788,125.542,125.259,125.236,125.627Z" fill="#ffaaaa"></path><path d="M129.6,134.854q1.18-1.385,2.361-2.768c.309-.362-.214-.89-.525-.525l-2.361,2.767C128.765,134.69,129.289,135.218,129.6,134.854Z" fill="#ffaaaa"></path><path d="M11.48,157.73q.325,2.762.652,5.525c.055.469.8.475.743,0l-.652-5.525C12.167,157.261,11.424,157.255,11.48,157.73Z" fill="#6596e1"></path><path d="M141.938,174.735h6.708a.372.372,0,0,0,0-.743h-6.708a.372.372,0,0,0,0,.743Z" fill="#6596e1"></path><path d="M84.956,81.656a7.279,7.279,0,0,0,7.1,3c.47-.08.272-.789-.2-.717-5.167.8-8.851-4.708-6.65-7.9A4.592,4.592,0,0,1,88.088,74.5a8.12,8.12,0,0,0,3.168-1.259,4.855,4.855,0,0,0,1.223-6.212C91.2,64.775,88.628,64.429,86.317,64c-5.493-1.016-7.136-4.52-6.234-7.183,1.7-4.173,8.318-4.3,8.894-8.778a4.1,4.1,0,0,0-1.163-2.972c-2.147-2.222-5.8-3.293-8.864-3.415-.478-.02-.477.723,0,.742a16,16,0,0,1,4.108.736c2.141.666,5.019,2.219,5.179,4.461.155,2.19-2.306,3.608-4.291,4.663A17.686,17.686,0,0,0,81.3,54.007c-3.935,3.106-2.438,8.723,3.365,10.383,2.209.632,5.03.455,6.676,2.315a4.114,4.114,0,0,1-.384,5.816c-1.891,1.656-4.489.726-6.366,3.113A5.423,5.423,0,0,0,84.956,81.656Z" fill="#6596e1"></path><path d="M92.743,77.029A3.592,3.592,0,0,0,93.875,79.7c1.855,1.729,2.484,1.694,3.384,2.87.287.376.938,0,.642-.375-1.691-2.141-3.185-1.955-4.268-4.184-.683-1.785,1.091-2.761,2.346-3.789,3.066-2.512,2.992-7.215.789-10.224-3.557-4.86-8.145-3.9-9.141-6.128a2.97,2.97,0,0,1,.41-2.733,9.546,9.546,0,0,1,2.285-2.2,11.018,11.018,0,0,0,3.749-4.785,6.13,6.13,0,0,0-.772-5.764A8.923,8.923,0,0,0,88.63,39.6c-.438-.138-.878-.271-1.323-.385a.372.372,0,0,0-.2.716c1.724.509,3.621.985,4.974,2.231a5.253,5.253,0,0,1,1.393,5.4,9.965,9.965,0,0,1-3.6,4.775c-1.526,1.211-3.345,2.689-3.164,4.866a2.865,2.865,0,0,0,1.4,2.255,10.706,10.706,0,0,0,2.514,1.011,12.007,12.007,0,0,1,4.756,3c2.522,2.593,3.142,6.847.633,9.692C94.573,74.578,92.922,75.205,92.743,77.029Z" fill="#6596e1"></path><path d="M100.457,74.746c-.555,2.086.531,4.1,2.086,5.6a.371.371,0,0,0,.525-.525c-1.451-1.5-2.477-3.148-1.817-5.118.769-2.294,2.627-3.257,4.245-6.1a5.049,5.049,0,0,0,.2-4.49c-1.489-3.454-4.861-4.172-8.285-8.081a5.468,5.468,0,0,1-1.442-2.4c-.227-1.641.8-2.643,2.067-4.258a7.229,7.229,0,0,0-3.5-11.6.372.372,0,0,0-.2.717,6.471,6.471,0,0,1,4.344,8.173c-.812,2.6-3.4,3.9-3.5,6.5a4.332,4.332,0,0,0,.968,2.491c3.64,4.542,6.567,5,8.467,7.98a4.582,4.582,0,0,1,.323,4.427,17.4,17.4,0,0,1-2.419,3.274A9.14,9.14,0,0,0,100.457,74.746Z" fill="#6596e1"></path><path d="M121.278,42.1c-.4-2.005-1.452-4.158-3.543-4.81-2.356-.735-4.774.844-5.829,2.9-2.289,4.461.438,8.507-.832,17.188-.774,5.289-3.177,10.107-1.648,13.9a2.131,2.131,0,0,0,2.3,1.321,3.346,3.346,0,0,0,2.116-1.881A68.468,68.468,0,0,0,116.916,64a3.451,3.451,0,0,1-.042-2.019,16.9,16.9,0,0,1,1.023-3.726,2.046,2.046,0,0,1,1.472-1.244,62.5,62.5,0,0,0,1.594-6.41A22.56,22.56,0,0,0,121.278,42.1Z" fill="#6596e1"></path><path d="M119.279,71.216a4.191,4.191,0,0,0-3.2.373c-2.684,1.221-4.475,3.738-5.836,6.352a58.412,58.412,0,0,0-4.5,11.5,6.5,6.5,0,0,0-.3,2.7,1.8,1.8,0,0,0,.859,1.32,2.452,2.452,0,0,0,1.562.215,6.868,6.868,0,0,0,3.383-1.717c3.572-3.3,7.289-7.219,9.166-11.687a16.813,16.813,0,0,0,1.082-3.74C121.884,74.415,121.361,72.024,119.279,71.216Z" fill="#d5e04f"></path><path d="M120.525,57.543a1.323,1.323,0,0,0-1.433-.475,2.287,2.287,0,0,0-1.195,1.189,17.7,17.7,0,0,0-1.063,3.939c-.388,1.767.442,2.726,1.449,2.759,1.664.054,2.378-1.931,2.674-3.248S121.416,58.675,120.525,57.543Z" fill="#d5e04f"></path><path d="M137.734,41.073a1.259,1.259,0,0,0-1.911-.825,4.437,4.437,0,0,0-1.849,2.2,1.987,1.987,0,0,0,.941,2.477C136.6,45.614,138.109,43.182,137.734,41.073Z" fill="#d5e04f"></path><path d="M153.263,59.852a1.665,1.665,0,0,0-1.9.2,3.85,3.85,0,0,0-1.4,1.8c-.255.8.014,1.893,1.011,1.942s1.864-.915,2.406-1.633S154.128,60.43,153.263,59.852Z" fill="#ffc431"></path><path d="M138.768,64.053a3.47,3.47,0,0,0-.932-2.147,2.514,2.514,0,0,0-2.557-.319,7.813,7.813,0,0,0-3.9,3.711c-2.269,3.873-3.655,8.217-5.317,12.365a51.015,51.015,0,0,1-6.081,10.887c-.2.3.13.595.42.546a16.091,16.091,0,0,0,5.345-2.361A25.916,25.916,0,0,0,136.69,74.6,23.44,23.44,0,0,0,138.768,64.053Z" fill="#ffc431"></path><path d="M130.632,27.812c-1-3.055-2.392-6.736-5.555-7.238-1.8-.286-3.8.654-4.06,2.541a7.89,7.89,0,0,0,.949,3.8c1.022,2.6,2.091,5.185,2.983,7.834,3.285,9.752,4,22.179-.388,31.624a.372.372,0,0,0,.641.375A43.591,43.591,0,0,0,131,54.626,45.93,45.93,0,0,0,130.632,27.812Z" fill="#6596e1"></path><path d="M80.875,83.515A80.128,80.128,0,0,0,76.8,66.644c-.931-2.483-1.788-5.255-3.89-7.026-2.124-1.791-3.82-.807-4.025,1.665A21.958,21.958,0,0,0,70.4,69.969c.055.15,3.4,8.839,3.458,8.981,3.233,8.32,1.906,4.922,3.137,8.5a19.675,19.675,0,0,0,1.544,3.627,1.886,1.886,0,0,0,1.471,1.089A1.462,1.462,0,0,0,81.471,91.1C81.983,89.313,81.534,87.826,80.875,83.515ZM76.289,79.03q-.552-1.769-1.1-3.537c-.142-.458.575-.652.717-.2l1.1,3.536C77.148,79.29,76.43,79.485,76.289,79.03Zm-1.5-14.041,1.1,3.536c.143.459-.575.653-.716.2q-.55-1.769-1.1-3.536C73.93,64.728,74.647,64.534,74.789,64.989Z" fill="#c0c195"></path><path d="M66.146,50.436c-.2-.94-.814-2.157-1.983-1.724-2.953,1.095-2.29,6.973.343,8.594,1.595.982,1.752-1.774,1.832-2.7A14.323,14.323,0,0,0,66.146,50.436Z" fill="#c0c195"></path><path d="M62.46,73.386c-.109.863-.192,1.839.642,2.36a2.139,2.139,0,0,0,2.084.075,4.975,4.975,0,0,0,1.819-1.9c.264-.4-.379-.773-.642-.375a4.1,4.1,0,0,1-1.552,1.635,1.313,1.313,0,0,1-1.518-.247,1.519,1.519,0,0,1-.144-1.068c.223-2.3.869-3.034.6-4.121a2.346,2.346,0,0,0-3.163-1.383,3.68,3.68,0,0,0-1.648,1.379,22.274,22.274,0,0,0-1.116,2.255,2.185,2.185,0,0,1-1.6,1.307,1.507,1.507,0,0,1-1.332-.832c-.852-1.414-.118-3.012.138-4.487a3.558,3.558,0,0,0-.123-2.173,1.44,1.44,0,0,0-1.836-.689c-1.432.5-2.175,2.031-2.9,3.238a4.552,4.552,0,0,1-1.75,1.717,1.767,1.767,0,0,1-2.042-.314c-1.433-1.387-.677-3.528-.083-5.117.168-.448-.55-.642-.716-.2-.6,1.593-1.171,3.386-.341,5.011a2.6,2.6,0,0,0,3.639,1.218c1.444-.782,2.066-2.321,2.974-3.586.4-.555,1.047-1.322,1.793-1.332.823-.012.785,1.12.723,1.681-.181,1.637-1.02,3.247-.367,4.884.516,1.294,1.843,2.2,3.193,1.436,1.539-.868,1.577-2.842,2.717-4.039.983-1.172,2.944-1.07,3.159.428C63,71.378,62.716,71.365,62.46,73.386Z" fill="#ffc431"></path><path d="M139.653,81.864c.769-.144,1.251.575,1.539,1.167.358.737.641,1.643,1.441,2.015a1.44,1.44,0,0,0,2.011-1.123c.126-.871.04-1.066-.218-3.486-.05-.47-.794-.475-.743,0a19.166,19.166,0,0,1,.271,3.117c-.1.985-.92,1.3-1.567.242a8.837,8.837,0,0,0-1.274-2.18,1.855,1.855,0,0,0-1.944-.366c-.823.4-.749,1.372-.6,2.125a6.277,6.277,0,0,1,.343,2.73c-.1.406-.352.854-.835.757a1.863,1.863,0,0,1-.97-.685c-.5-.588-1.014-1.258-1.852-1.321a2.127,2.127,0,0,0-1.971,1.478,4.712,4.712,0,0,0,.42,3.156c.172.44.891.248.716-.2a3.883,3.883,0,0,1-.4-2.8,1.163,1.163,0,0,1,1.723-.689c.664.472,1,1.246,1.752,1.63a1.427,1.427,0,0,0,2.024-.805,4.169,4.169,0,0,0-.036-2.615C139.362,83.5,138.8,82.025,139.653,81.864Z" fill="#ffc431"></path><path d="M79.217,99.812c-.811-1.9-1.377-2.442-2.189-4.351-.492-1.156-2.493-5.652-2.772-6.278a35.894,35.894,0,0,0-3.676-6.529,15.1,15.1,0,0,0-2.511-2.683,6.17,6.17,0,0,0-3.349-1.727,2.466,2.466,0,0,0-2.514,1.863c-1,3.82,1.83,7.529,4.3,10.922A51.13,51.13,0,0,0,72,97.762c1.794,1.835,5.887,5.858,7.36,3.751C79.719,101.005,79.433,100.319,79.217,99.812Z" fill="#ffe660"></path><path d="M107.675,30.283c1.128.222,1.251,1.865,1.958,2.833a1.707,1.707,0,0,0,2.152.7,2.327,2.327,0,0,0,1.089-2.355,20.654,20.654,0,0,1-.421-2.683c.045-.949.3-.987.924-.615a5.173,5.173,0,0,1,1.534,1.775c.245.41.894.033.641-.375a5.7,5.7,0,0,0-1.8-2.042,1.177,1.177,0,0,0-2.01.946c-.234,1.589,1.026,3.25,0,4.465a.836.836,0,0,1-.991.223c-.727-.342-.94-1.35-1.242-2.014a2.458,2.458,0,0,0-1.654-1.584,1.676,1.676,0,0,0-1.783,1.237,4.879,4.879,0,0,0,.232,2.829c.36,1.133-.2,2.25-.9,2.184-.508-.047-.963-.586-1.256-.959a4.614,4.614,0,0,1-.78-1.519.372.372,0,0,0-.716.2c.4,1.343,2.253,4.183,3.864,2.563a2.659,2.659,0,0,0,.544-2.5c-.187-.891-.656-1.878-.194-2.763A.874.874,0,0,1,107.675,30.283Z" fill="#ffc431"></path><path d="M84.819,70.293l-1.1-3.536c-.142-.455-.859-.261-.717.2l1.1,3.536C84.244,70.946,84.962,70.752,84.819,70.293Z" fill="#000000"></path><path d="M75.738,56.737c.142.455.859.261.716-.2L75.353,53c-.142-.455-.859-.261-.716.2Z" fill="#000000"></path><path d="M78.1,49.412q-.551-1.769-1.1-3.536c-.141-.455-.859-.261-.716.2l1.1,3.536C77.524,50.064,78.241,49.87,78.1,49.412Z" fill="#000000"></path><path d="M68.866,42.061l1.1,3.536c.142.455.859.261.716-.2l-1.1-3.536C69.441,41.409,68.723,41.6,68.866,42.061Z" fill="#000000"></path><path d="M75.339,37.854l-1.1-3.536c-.141-.455-.859-.261-.716.2l1.1,3.537C74.765,38.507,75.482,38.312,75.339,37.854Z" fill="#000000"></path><path d="M62.4,33.08c-.142-.455-.859-.261-.716.2l1.1,3.537c.141.455.859.26.716-.2Z" fill="#000000"></path><path d="M67.562,29.242q-.551-1.769-1.1-3.537c-.141-.455-.859-.26-.716.2l1.1,3.536C66.987,29.894,67.7,29.7,67.562,29.242Z" fill="#000000"></path><path d="M75.89,68.525l-1.1-3.536c-.142-.455-.859-.261-.717.2q.552,1.767,1.1,3.536C75.315,69.178,76.033,68.984,75.89,68.525Z" fill="#000000"></path><path d="M75.9,75.3c-.142-.455-.859-.261-.717.2q.551,1.769,1.1,3.537c.141.455.859.26.716-.2Z" fill="#000000"></path></g><g><path d="M161.626,78.874s-4.336,3.535-4.482,3.671a1.254,1.254,0,0,0-.048,1.782,1.227,1.227,0,0,0,1.351.309c.853-.476,1-1.044,4.376-3.658a1.4,1.4,0,0,0,.711-1.148A1.211,1.211,0,0,0,161.626,78.874Zm.767,1.506a47.267,47.267,0,0,0-3.645,3.081c-.187.17-.434.5-.7.522a.566.566,0,0,1-.569-.512c-.021-.263.195-.4.373-.55l4.163-3.412a.465.465,0,0,1,.7.088C162.937,79.94,162.648,80.183,162.393,80.38Z" fill="#000000"></path><path d="M192.668,120.534c-.31-.365-.833.163-.525.525l2.238,2.63c.31.365.834-.163.525-.525Z" fill="#000000"></path><path d="M92.549,107.45v2.071a.371.371,0,0,0,.742,0V107.45a.371.371,0,0,0-.742,0Z" fill="#000000"></path><path d="M119.973,107.45v2.071a.372.372,0,0,0,.743,0V107.45a.372.372,0,0,0-.743,0Z" fill="#000000"></path><path d="M112.943,113.682c-.674,1.077-1.384,2.25-2.676,2.253a4.255,4.255,0,0,1-3.682-2.249c-.037-.067-.084-.13-.116-.2a.372.372,0,0,0-.584-.075c-.393.4-.8.782-1.184,1.183a.372.372,0,0,0,.526.526c.284-.275.558-.559.838-.838a5.048,5.048,0,0,0,4.2,2.4c1.626-.007,2.53-1.363,3.317-2.62C113.838,113.65,113.2,113.277,112.943,113.682Zm-7.154.037a.392.392,0,0,1,.173-.35A.4.4,0,0,0,105.789,113.719Z" fill="#000000"></path><path d="M99.483,103.043c-3.292-.566-4.118-2.188-7.781-3.848a6.893,6.893,0,0,0-2.389-.581c-.478-.032-.476.712,0,.743,3.771.246,6.162,3.964,10.17,4.429C99.957,103.841,99.953,103.1,99.483,103.043Z" fill="#000000"></path><path d="M124.546,102.184c-.66-1.781-1.992-4.026-4.166-3.9a6.738,6.738,0,0,0-4.841,2.909c-.279.389.365.761.641.375a6.1,6.1,0,0,1,4.093-2.534,2.461,2.461,0,0,1,2.2.994,8.071,8.071,0,0,1,1.362,2.355C123.994,102.826,124.713,102.634,124.546,102.184Z" fill="#000000"></path><path d="M123.875,103.748c-.665-1.8-1.938-3.748-3.865-3.608a6.268,6.268,0,0,0-4.471,2.689c-.28.389.365.761.641.375a5.454,5.454,0,0,1,3.723-2.313,2.186,2.186,0,0,1,2,.895,7.327,7.327,0,0,1,1.251,2.16C123.323,104.39,124.04,104.2,123.875,103.748Z" fill="#000000"></path><path d="M121.231,103.362a6.553,6.553,0,0,1,1.088,1.886c.165.444.882.252.716-.2-.593-1.6-1.727-3.346-3.432-3.245a5.591,5.591,0,0,0-4.064,2.417c-.281.388.365.76.641.375a4.92,4.92,0,0,1,3.316-2.043A1.96,1.96,0,0,1,121.231,103.362Z" fill="#000000"></path><path d="M99.27,105.438c.469-.052.475-.8,0-.743-1.8.2-3.318-.84-4.751-1.957A16.036,16.036,0,0,0,89.2,99.724c-.457-.146-.653.575-.2.717a12.176,12.176,0,0,1,2.691,1.181C94.265,103.167,96.264,105.775,99.27,105.438Z" fill="#000000"></path><path d="M99.938,102.231l-5.246-2.9c-1.559-.862-3.2-1.938-5.063-1.675-.472.066-.271.781.2.716,1.585-.221,3.335.962,4.814,1.78l4.922,2.72C99.981,103.1,100.357,102.463,99.938,102.231Z" fill="#000000"></path><path d="M38.168,147.245a294.515,294.515,0,0,0,33.691-2.29c.468-.058.474-.8,0-.742-8.636,1.077-17.427,1.792-26.26,2.112-2.476.09-4.954.119-7.431.177a.372.372,0,0,0,0,.743Z" fill="#000000"></path><path d="M124.028,128.237l1.733-2.084c.3-.365-.219-.894-.525-.526l-1.734,2.085C123.2,128.077,123.721,128.6,124.028,128.237Z" fill="#000000"></path><path d="M129.6,134.854l2.362-2.768c.308-.362-.215-.89-.526-.526l-2.361,2.769C128.765,134.69,129.288,135.218,129.6,134.854Z" fill="#000000"></path><path d="M12.875,163.255l-.653-5.525c-.055-.469-.8-.475-.742,0q.325,2.762.652,5.525C12.187,163.724,12.931,163.729,12.875,163.255Z" fill="#000000"></path><path d="M148.646,174.735a.372.372,0,0,0,0-.743h-6.708a.372.372,0,0,0,0,.743Z" fill="#000000"></path><path d="M117.735,37.287c-2.356-.735-4.774.844-5.829,2.9-2.289,4.461.438,8.507-.833,17.188-.773,5.289-3.175,10.107-1.647,13.9a2.131,2.131,0,0,0,2.3,1.321,3.346,3.346,0,0,0,2.116-1.881,68.5,68.5,0,0,0,3.077-6.707,1.554,1.554,0,0,0,1.369.948c1.664.054,2.378-1.931,2.674-3.248.723-3.211-.417-4.8-1.588-4.694a62.5,62.5,0,0,0,1.594-6.41,22.56,22.56,0,0,0,.315-8.506C120.88,40.092,119.826,37.939,117.735,37.287Zm1.887,20.477c.4.122.611.655.7,1.014a7.2,7.2,0,0,1-.349,3.657,3.213,3.213,0,0,1-.926,1.525.93.93,0,0,1-1.432-.193,2.53,2.53,0,0,1-.026-1.586C117.866,60.954,118.423,57.394,119.622,57.764Zm-1.178-.294a2.714,2.714,0,0,0-.547.787,18.224,18.224,0,0,0-1.071,3.959c-.989,2.617-1.528,3.714-2.415,5.691a20.678,20.678,0,0,1-1.529,2.934c-1.11,1.689-2.873,1.39-3.156-1.273-.352-3.311.957-6.521,1.682-9.888,1.79-8.324-.139-12.322.38-16.577.7-5.725,6.644-7.217,8.385-2.211C121.8,45.569,119.9,52.743,118.444,57.47Z" fill="#000000"></path><path d="M137.734,41.073a1.259,1.259,0,0,0-1.911-.826,4.444,4.444,0,0,0-1.849,2.2,1.986,1.986,0,0,0,.941,2.477C136.6,45.614,138.11,43.182,137.734,41.073Zm-3.044,1.576c.179-.49,1.765-2.691,2.269-1.567a2.71,2.71,0,0,1-.108,1.772c-.188.611-.512,1.291-1.211,1.425C134.735,44.452,134.448,43.309,134.69,42.649Z" fill="#000000"></path><path d="M151.364,60.055a3.7,3.7,0,0,0-1.4,1.8c-.275.8.014,1.893,1.011,1.942s1.864-.915,2.406-1.633.748-1.739-.117-2.318A1.667,1.667,0,0,0,151.364,60.055Zm.529,2.609c-.955.792-1.514.314-1.214-.607.221-.676,1.587-2.35,2.345-1.436C153.536,61.239,152.3,62.324,151.893,62.664Z" fill="#000000"></path><path d="M124.712,66.878a.376.376,0,0,0,.49-.129A43.591,43.591,0,0,0,131,54.626a45.934,45.934,0,0,0-.367-26.815,15,15,0,0,0-2.967-5.851c-2.478-2.571-6.3-1.393-6.648,1.155a7.892,7.892,0,0,0,.949,3.8c1.252,3.187,2.6,6.4,3.577,9.7,2.744,9.242,3.129,20.9-.982,29.755A.372.372,0,0,0,124.712,66.878Zm3-23.995c-1.271-7.909-3.921-13.031-5.6-17.64-.352-.963-.683-2.161.055-3.018a3.349,3.349,0,0,1,4.563-.113c1.616,1.346,2.376,3.524,3.034,5.449A44.565,44.565,0,0,1,126.6,63.17,44.658,44.658,0,0,0,127.716,42.883Z" fill="#000000"></path><path d="M192.515,113.275a3.369,3.369,0,0,0,.249-2.688c-1.082-5.262-1.627-7.931-3.591-12.192-1.428-3.095-2.437-5.164-4.878-7.611a7.2,7.2,0,0,0-4.314-2.423A13.372,13.372,0,0,0,172,90.556c-3.485-4.584-6.6-8.676-6.943-9.12a.369.369,0,0,0-.45-.058,64,64,0,0,0-5.673,4.8.379.379,0,0,0,0,.525c1.679,2.079,5.024,6.131,6.275,7.64a9.069,9.069,0,0,0-7.821,7.8c-.838,4.6-2.054,19.358-11.141,37.91-2.055-2.343-3.816-4.606-5.754-6.639a93.826,93.826,0,0,0,6.449-11.814,4.547,4.547,0,0,0,.4-1.961,1.779,1.779,0,0,0-.751-1.4.352.352,0,0,0-.129-.1c-1.067-.468-2.139.132-3.054.671a30.621,30.621,0,0,0-5.457,4.308,28.97,28.97,0,0,0,3.9-9,4.2,4.2,0,0,0,.139-2.624,1.882,1.882,0,0,0-1.959-1.022c-2.1.182-3.757,1.841-5.182,3.22q-2.556,2.475-4.931,5.127a62.656,62.656,0,0,0,3.2-9.652c.419-1.727,1.158-4.039.05-5.662-.986-1.444-3.164-1.894-4.085-.109a30.8,30.8,0,0,0-1.977-7.85,5.393,5.393,0,0,0,3.675-2.1c.543-.946.033-1.869-.409-2.738a30.1,30.1,0,0,0-3.142-4.914,25.521,25.521,0,0,0,9.463-11.2,23.44,23.44,0,0,0,2.078-10.542,3.47,3.47,0,0,0-.932-2.147,2.513,2.513,0,0,0-2.556-.319c-5.2,1.8-7.294,13.022-11.323,20.64a31.513,31.513,0,0,0-3.26-2.662,17.34,17.34,0,0,0,.8-3.032c.386-2.118-.138-4.509-2.219-5.317-1.749-.679-4.21.7-5.593,1.976a13.7,13.7,0,0,0-1.837,2.1,42.418,42.418,0,0,0-10.293-1.332c1.381-2.808,6.041-5.428,4.135-9.846-1.49-3.454-4.861-4.172-8.285-8.081a5.468,5.468,0,0,1-1.442-2.4c-.227-1.641.8-2.643,2.067-4.258a7.229,7.229,0,0,0-3.5-11.6.372.372,0,0,0-.2.717,6.471,6.471,0,0,1,4.344,8.173c-.811,2.6-3.4,3.9-3.5,6.5a4.332,4.332,0,0,0,.968,2.491c3.64,4.542,6.567,5,8.467,7.98a4.582,4.582,0,0,1,.323,4.427c-1.651,2.931-3.145,3.557-4.2,5.892a43.147,43.147,0,0,0-4.755.263c3.066-2.512,2.992-7.215.789-10.224-3.557-4.86-8.145-3.9-9.141-6.128a2.972,2.972,0,0,1,.41-2.734,9.561,9.561,0,0,1,2.285-2.2,11.023,11.023,0,0,0,3.749-4.785,6.13,6.13,0,0,0-.772-5.764A8.923,8.923,0,0,0,88.63,39.6c-.438-.138-.878-.271-1.324-.385a.372.372,0,0,0-.2.716c1.724.509,3.621.985,4.974,2.231a5.253,5.253,0,0,1,1.393,5.4,9.959,9.959,0,0,1-3.6,4.775c-1.526,1.211-3.345,2.689-3.164,4.866a2.865,2.865,0,0,0,1.4,2.255,10.721,10.721,0,0,0,2.516,1.011,12.011,12.011,0,0,1,4.755,3c2.522,2.593,3.143,6.847.633,9.692a18.531,18.531,0,0,1-1.473,1.237,29.542,29.542,0,0,0-9.95,3.234,3.662,3.662,0,0,1,.613-1.6A4.589,4.589,0,0,1,88.089,74.5a8.106,8.106,0,0,0,3.167-1.259,4.855,4.855,0,0,0,1.223-6.212C91.2,64.775,88.628,64.429,86.317,64c-5.493-1.016-7.136-4.52-6.234-7.183,1.7-4.174,8.318-4.3,8.894-8.778a4.1,4.1,0,0,0-1.163-2.972c-2.147-2.222-5.8-3.293-8.864-3.415-.478-.02-.477.723,0,.742a15.963,15.963,0,0,1,4.108.737c2.14.665,5.019,2.218,5.179,4.46.155,2.19-2.306,3.608-4.291,4.663A17.747,17.747,0,0,0,81.3,54.007c-3.934,3.106-2.437,8.723,3.366,10.383,2.209.632,5.03.455,6.676,2.315a4.114,4.114,0,0,1-.384,5.816c-1.891,1.656-4.489.726-6.366,3.113a4.46,4.46,0,0,0-.754,2.449,19.184,19.184,0,0,0-3.417,2.6A73.311,73.311,0,0,0,76.8,66.644c-.931-2.483-1.788-5.255-3.89-7.026-2.124-1.791-3.82-.807-4.025,1.665A21.958,21.958,0,0,0,70.4,69.969c.055.15,3.4,8.839,3.458,8.981,3.719,9.571,1.841,4.852,3.135,8.5A31.253,31.253,0,0,0,75.1,91.066c-1.731-3.994-3.861-8.431-7.034-11.095a6.17,6.17,0,0,0-3.349-1.727,2.467,2.467,0,0,0-2.514,1.862c-1,3.821,1.83,7.53,4.3,10.923.809,1.112,1.808,2.5,2.815,3.747a3.9,3.9,0,0,0-2.966,4.79,3.719,3.719,0,0,0,2.422,2.7,5.8,5.8,0,0,0,3.784.308,25.9,25.9,0,0,0,6.191,17.889c-9.925.673-19.181,1.952-29.2,3.585-11.528,1.881-23.108,4.6-32.526,11.023C10.9,139.251,6.21,145.253,5.2,152.576a21.342,21.342,0,0,0,9.786,21.311c8.768,5.3,21.863,5.553,32.227,5.584a120.475,120.475,0,0,0,23.506-1.82,132.462,132.462,0,0,0,20.691-6.06,105.384,105.384,0,0,0,25.227-13.438c4.7,5.563,12.938,14.551,19.224,18.177a19.52,19.52,0,0,0,14.553,1.487c7.732-2.283,12.963-8.943,17.211-15.733,9.161-14.641,16.475-34.252,18.3-44.888.96.9,1.849,1.714,2.625,2.415a4.7,4.7,0,0,0,1.217.945,1.877,1.877,0,0,0,2.347-2.639c-.143-.263-1.349-2-2.532-3.683A2.922,2.922,0,0,0,192.515,113.275Zm-3.854-14.24a44.938,44.938,0,0,1,2.053,6.635,11.169,11.169,0,0,1,.252,2.917c.019,1.643-1.293,3.376-3.857,2.136a7.907,7.907,0,0,1-.99-1.922,2.451,2.451,0,0,0,2.311-.066,2.847,2.847,0,0,0,1.18-2.743,53.308,53.308,0,0,0-1.846-8.831C188.588,98.877,188.752,99.286,188.661,99.035ZM174.123,90.27c2.067-.966,5.162-1.73,7.254-.772a11.4,11.4,0,0,1,2.95,2.391c2.735,4.105,3.543,7.759,4.314,12.564.166,1.036.567,2.437-.214,3.327-1.257,1.435-2.77-.254-2.87-.3-.4-.922-.971-2.2-1.832-4.034a.377.377,0,0,0-.518-.126c-.051.031.125-.1-.422.326l-3.237-9.208c-.158-.448-.875-.255-.716.2,2.728,7.761,3.107,8.92,3.272,9.221-.887-1.169-5.46-7.19-9.651-12.7C172.966,90.859,173.6,90.515,174.123,90.27ZM126.142,79.407c3.414-8.083,5.857-17.41,10.5-17.275,1.44.2,1.518,2.336,1.409,3.786-.066.873-.142,1.745-.29,2.608a25.234,25.234,0,0,1-7.233,13.692,28.008,28.008,0,0,1-9.376,5.929A49.625,49.625,0,0,0,126.142,79.407ZM117.5,71.874c2.136-.549,3.551,1.449,3.371,3.578-.492,5.819-4.733,10.762-8.936,14.833-1.306,1.265-2.924,2.767-4.762,2.682a1.033,1.033,0,0,1-.852-.521,2.727,2.727,0,0,1-.086-1.752,50.372,50.372,0,0,1,4.048-11.151C111.769,76.3,114.03,72.766,117.5,71.874ZM83.886,78.925a7.1,7.1,0,0,0,8.172,5.736c.47-.08.272-.789-.2-.717a6.347,6.347,0,0,1-7.289-5.437,27.951,27.951,0,0,1,8.949-3.178,2.87,2.87,0,0,0-.778,1.7,3.588,3.588,0,0,0,1.132,2.666c1.855,1.73,2.485,1.7,3.384,2.871.287.376.938,0,.642-.375-1.691-2.141-3.185-1.955-4.268-4.184-.488-1.274.276-2.135,1.21-2.9a40,40,0,0,1,5.626-.408c-.559,2.134.492,4.121,2.074,5.642a.371.371,0,0,0,.525-.525c-1.453-1.5-2.476-3.149-1.816-5.118a42.186,42.186,0,0,1,10.166,1.22,54.991,54.991,0,0,0-5.667,13.519,6.5,6.5,0,0,0-.3,2.7,1.8,1.8,0,0,0,.859,1.32,2.452,2.452,0,0,0,1.562.215,6.868,6.868,0,0,0,3.383-1.717c3.572-3.3,7.289-7.219,9.166-11.687a27.863,27.863,0,0,1,3.165,2.619c-1.113,1.962-2.371,3.854-3.6,5.658-.2.3.13.595.42.546a18.494,18.494,0,0,0,6.206-2.892,29.268,29.268,0,0,1,3.337,5.319,1.68,1.68,0,0,1,.254,1.431c-.617,1.374-3.071,2-4.579,2.056a55.435,55.435,0,0,1-5.734-.157,64.257,64.257,0,0,0-6.864.251,31.014,31.014,0,0,1-12.756-2.12c-4.039-1.6-7.058-4.067-10.581-6.633a31.107,31.107,0,0,0-9.105-4.715l0-.03A16.152,16.152,0,0,1,83.886,78.925ZM76.8,84.475c-.077-.234-4.513-11.654-4.589-11.845-1.589-4.022-2.425-6.363-2.6-10.1a6.627,6.627,0,0,1,.137-1.881c.17-.7.639-1.357,1.445-1.166,2.007.477,3.535,3.687,4.249,5.628a83.164,83.164,0,0,1,5.009,20.408,38.616,38.616,0,0,1,.5,3.9c.145,1.635-.764,2.494-1.336,1.844a5.626,5.626,0,0,1-1.052-1.774C77.886,87.96,77.3,86,76.8,84.475ZM64.055,86.049c-1.045-1.806-2.066-5.109-.649-6.593.9-.944,2.268-.288,3.16.313,3.389,2.281,5.34,6.1,7.049,9.789.609,1.316,2.96,6.792,3.177,7.21.4.773,1.415,2.463,1.826,3.507.4,1.014-.095,1.3-1.081.94C73.533,99.739,66.213,89.774,64.055,86.049Zm8.693,15.682a4.75,4.75,0,0,1-3.239.018,3.38,3.38,0,0,1-2.333-1.931,3.721,3.721,0,0,1,.413-3.132,3.238,3.238,0,0,1,2.275-1.252c.517.611,1.339,1.527,2.125,2.338a.342.342,0,0,0-.145.207c-.084.363-.156.729-.215,1.065a10.431,10.431,0,0,0-2.78-.651c-.476-.043-.473.7,0,.743a9.155,9.155,0,0,1,2.661.651c-.051.345-.079.59-.085.657-.047.476.7.472.742,0a15.747,15.747,0,0,1,.363-2.123c2.433,2.424,5.6,4.957,6.834,3.192.355-.508.069-1.194-.147-1.7a22.026,22.026,0,0,0-1.184-2.334,56.82,56.82,0,0,1-2.517-5.452,30.638,30.638,0,0,1,1.806-3.656,15.822,15.822,0,0,0,1.215,2.7,1.887,1.887,0,0,0,1.471,1.089A1.461,1.461,0,0,0,81.471,91.1c.512-1.785.062-3.272-.6-7.583a8.883,8.883,0,0,1,.686-.736c7.655,2.885,9.428,6.252,15.687,9.617a28.884,28.884,0,0,0,12.49,3.422,63.968,63.968,0,0,0,7.045-.2c3.437-.238,6.625.439,9.566.057A28.07,28.07,0,0,1,128.482,107a31.684,31.684,0,0,1-2.756,7.815c-2.245,4.481-5.415,8.941-9.878,11.428-4.592,2.56-7.18,1.119-16.215,2.816-17.44-.881-26.87-13.056-26.326-27A.376.376,0,0,0,72.748,101.731Zm6.638,19.432a28.1,28.1,0,0,0,17.655,8.428,5.926,5.926,0,0,0-3.715,1.9,1.89,1.89,0,0,0-.347,1.679,2.482,2.482,0,0,0,1.1,1.248,8.378,8.378,0,0,0,4.183,1.029c2.169-.027,4.888-.222,6.487,1.259-6.915,1.328-13.8,3.007-21.139,4.743a36.259,36.259,0,0,1-5.394-7.9c-.63-1.221-1.159-2.483-1.717-3.738a81.519,81.519,0,0,1-3.458-8.149Q76.211,121.368,79.386,121.163Zm-6.177,22.676a.374.374,0,0,0-.272.358s0,28.962,0,32.231a101.732,101.732,0,0,1-21.2,2.3c-15.573.059-36.7.521-43.646-13.178-4.507-8.889-2.852-20.095,6.974-28.077,8.547-6.943,20.425-10.217,31.322-12.118,8.992-1.568,16.955-2.771,25.845-3.62a67.577,67.577,0,0,0,2.862,6.9c1.834,3.865,3.218,8.006,7.65,13.018C79.662,142.381,76.5,143.116,73.209,143.839Zm38.125,17.06c-11.267,7.164-24.81,12.348-37.655,15.358,0-.1.027-31.667.021-31.768,10.373-2.271,21.888-5.3,31.847-7.185a.373.373,0,0,0,.222-.545,5.42,5.42,0,0,0-3.934-1.974c-2.293-.283-4.4.329-6.855-.731a2.419,2.419,0,0,1-1.247-1,1.374,1.374,0,0,1,.531-1.515,5.285,5.285,0,0,1,2.161-1.024c10.857-2.472,13.848-1.11,18.093-2.828,4.64-1.879,8.093-5.939,10.577-10.158,1.818-3.087,3.814-7.643,4.248-11.293.124-1.035-.061-2.719,1.134-3.193,1.237-.336,2.754.683,2.473,3.18a20.855,20.855,0,0,1-.617,3.013,61.532,61.532,0,0,1-4.057,11.466c-.166.353.289.8.583.45a97.152,97.152,0,0,1,8-8.33c1.046-.907,3.445-2.3,4.316-1.247.484.588.132,1.636-.023,2.289-1.158,4.875-3.147,8-6.032,12.235-.235.347.3.768.584.451,2.267-2.569,5.711-5.913,8.77-7.474a1.966,1.966,0,0,1,1.621-.3c1.076.593.24,2.56-.347,3.638a92.541,92.541,0,0,1-7.064,12.395A97.552,97.552,0,0,1,111.334,160.9Zm48.676,10.046a21.632,21.632,0,0,1-13.823,6.84,18.236,18.236,0,0,1-8.3-1.265c-6.424-2.706-16.088-13.444-20.649-18.81a94.055,94.055,0,0,0,22.844-23.666c1.949,2.082,4.269,5.008,5.992,6.943a.374.374,0,0,0,.583-.075q.91-1.848,1.754-3.727c1.184,1.185,19.639,19.639,20.795,20.795C166.728,162.311,163.517,167.373,160.01,170.945Zm9.591-13.66-20.854-20.853A117.011,117.011,0,0,0,157.7,104.9a15.17,15.17,0,0,1,1.621-5.962,8.3,8.3,0,0,1,4.947-3.615c2.62-.7,5.727.609,8.012,2.089a8.062,8.062,0,0,1,2.318,2.176,2.418,2.418,0,0,1-.068,2.777c-2.1,3.358-9.706,1.711-13.51.776a.372.372,0,0,0-.2.716c4.029,1.021,8.343,1.85,12.424.633,3.064,3.467,8.021,8.341,12.006,12.088C183.5,128.182,175.98,145.961,169.6,157.285Zm21.8-39.1a1.143,1.143,0,0,1-.869,1.765,1.488,1.488,0,0,1-1.094-.534c-4.171-3.727-11.926-11.2-15.543-15.324a3.768,3.768,0,0,0,1.648-4.292,6.933,6.933,0,0,0-2.546-2.8,14.738,14.738,0,0,0-6.83-2.669c-1.818-2.194-4.662-5.635-6.464-7.86a58.568,58.568,0,0,1,5.022-4.261c1.627,2.088,15.581,20.445,17.135,22.552a.382.382,0,0,0,.584.075l.813-.632c2.339,5,2.352,5.472,2.809,6.333C186.484,111.188,189.06,114.656,191.405,118.189Zm-2.487-5.024a.905.905,0,0,0-.147-.076c-.326-.465-.629-.894-.88-1.25a3.173,3.173,0,0,0,3.787-2.86q.188.9.37,1.805c.171.848.307,1.87-.518,2.4A2.417,2.417,0,0,1,188.918,113.165Z" fill="#000000"></path><path d="M64.506,57.306c1.595.982,1.753-1.774,1.832-2.7a14.325,14.325,0,0,0-.192-4.17c-.2-.939-.814-2.157-1.983-1.724C61.21,49.807,61.873,55.685,64.506,57.306Zm-.545-7.634c.865-.717,1.272-.035,1.489,1.075a15.12,15.12,0,0,1-.152,5.747c-.095.227-.2.307-.417.171C63.068,55.549,62.108,51.207,63.961,49.672Z" fill="#000000"></path><path d="M63.1,75.746a2.139,2.139,0,0,0,2.084.075,4.975,4.975,0,0,0,1.819-1.9c.25-.38-.356-.808-.665-.34a4.026,4.026,0,0,1-1.529,1.6,1.315,1.315,0,0,1-1.518-.248,1.521,1.521,0,0,1-.144-1.069c.223-2.3.871-3.025.6-4.12a2.344,2.344,0,0,0-3.163-1.382c-1.8.745-2.12,2.446-2.764,3.633a2.185,2.185,0,0,1-1.6,1.307,1.505,1.505,0,0,1-1.332-.832c-.852-1.414-.118-3.01.138-4.488A3.551,3.551,0,0,0,54.9,65.81a1.438,1.438,0,0,0-1.836-.69c-2.5,1.037-2.364,3.754-4.654,4.954a1.765,1.765,0,0,1-2.042-.313c-1.386-1.342-.74-3.344-.083-5.117.168-.449-.55-.642-.717-.2-.6,1.593-1.17,3.386-.34,5.011a2.6,2.6,0,0,0,3.639,1.218c1.452-.786,2.087-2.35,2.973-3.586.4-.555,1.048-1.321,1.794-1.332.823-.012.786,1.12.724,1.68-.181,1.635-1.022,3.244-.368,4.885.516,1.294,1.843,2.2,3.193,1.436,1.242-.7,1.515-2.117,2.162-3.273,1.265-2.256,3.5-1.815,3.714-.338-.061,1.129-.362,1.353-.6,3.239C62.35,74.249,62.268,75.225,63.1,75.746Z" fill="#000000"></path><path d="M139.653,81.864c.769-.144,1.251.575,1.539,1.167.359.737.641,1.643,1.441,2.015a1.44,1.44,0,0,0,2.011-1.123c.126-.871.04-1.066-.218-3.486-.05-.47-.794-.475-.743,0a19.305,19.305,0,0,1,.271,3.117c-.1.985-.92,1.3-1.567.242a8.837,8.837,0,0,0-1.274-2.18,1.855,1.855,0,0,0-1.944-.366c-.823.4-.749,1.372-.6,2.125a6.277,6.277,0,0,1,.343,2.73c-.1.406-.352.854-.835.757a1.857,1.857,0,0,1-.97-.685c-.5-.588-1.014-1.258-1.852-1.321a2.128,2.128,0,0,0-1.971,1.478,4.712,4.712,0,0,0,.42,3.156c.172.44.891.248.717-.2a3.878,3.878,0,0,1-.405-2.8,1.163,1.163,0,0,1,1.723-.689c.663.472,1,1.246,1.752,1.63a1.427,1.427,0,0,0,2.024-.805,4.176,4.176,0,0,0-.036-2.615C139.362,83.5,138.8,82.025,139.653,81.864Z" fill="#000000"></path><path d="M105.4,35.81c-.508-.047-.963-.586-1.256-.959a4.752,4.752,0,0,1-.78-1.519.378.378,0,0,0-.475-.24.371.371,0,0,0-.241.438c.4,1.343,2.253,4.183,3.864,2.563a2.659,2.659,0,0,0,.544-2.5c-.223-1.062-.636-1.744-.194-2.763a.888.888,0,0,1,.817-.546c1.049.207,1.075,1.392,1.958,2.833a1.721,1.721,0,0,0,2.152.7,2.366,2.366,0,0,0,1.089-2.355c-.125-.941-.185-.94-.352-1.812-.086-.446-.149-1.434.175-1.674.16-.118.53.1.68.188a5.132,5.132,0,0,1,1.534,1.775c.251.406.894.033.641-.375a5.7,5.7,0,0,0-1.8-2.042,1.177,1.177,0,0,0-2.01.946,6.287,6.287,0,0,0,.27,2.252,6.629,6.629,0,0,1,.132.91c.077.935-.592,1.9-1.4,1.526-.725-.341-.937-1.344-1.242-2.014a2.458,2.458,0,0,0-1.654-1.584,1.693,1.693,0,0,0-1.783,1.237,4.8,4.8,0,0,0,.232,2.829C106.659,34.759,106.1,35.876,105.4,35.81Z" fill="#000000"></path><path d="M84.819,70.293l-1.1-3.536c-.142-.455-.859-.26-.717.2q.55,1.767,1.1,3.536C84.244,70.946,84.962,70.752,84.819,70.293Z" fill="#000000"></path><path d="M74.637,53.2l1.1,3.536c.142.455.859.26.716-.2L75.353,53C75.211,52.548,74.494,52.742,74.637,53.2Z" fill="#000000"></path><path d="M78.1,49.412q-.551-1.769-1.1-3.536c-.141-.455-.859-.261-.716.2l1.1,3.536C77.524,50.064,78.241,49.87,78.1,49.412Z" fill="#000000"></path><path d="M70.683,45.4l-1.1-3.536c-.141-.455-.859-.261-.716.2l1.1,3.536C70.109,46.052,70.826,45.858,70.683,45.4Z" fill="#000000"></path><path d="M74.239,34.318c-.143-.455-.86-.261-.717.2l1.1,3.536c.142.455.859.26.717-.2Q74.788,36.085,74.239,34.318Z" fill="#000000"></path><path d="M62.4,33.08c-.142-.455-.859-.261-.717.2q.552,1.769,1.1,3.537c.142.454.859.26.716-.2Z" fill="#000000"></path><path d="M67.562,29.242l-1.1-3.537c-.141-.455-.859-.26-.716.2l1.1,3.536C66.987,29.894,67.7,29.7,67.562,29.242Z" fill="#000000"></path><path d="M75.89,68.525l-1.1-3.536c-.142-.455-.859-.261-.717.2q.552,1.767,1.1,3.536C75.315,69.178,76.033,68.984,75.89,68.525Z" fill="#000000"></path><path d="M75.9,75.3c-.142-.455-.859-.261-.717.2q.551,1.769,1.1,3.536c.142.456.86.261.717-.2Z" fill="#000000"></path></g></svg>