<svg xmlns="http://www.w3.org/2000/svg" viewBox="0 0 200 200"><g><path d="M163.894,158.258h-18.15a3.2,3.2,0,0,1-1.949,2.189c.075.108,2.48,3.581,3.6,5.213a1.928,1.928,0,0,1,.484,1.013,1.141,1.141,0,0,1-1.98.771c-.489-.524-2.606-2.693-2.988-3.084a3.563,3.563,0,0,1-.853.767,6.89,6.89,0,0,1-3.658.885,3.2,3.2,0,0,1-.648,4.571,11.492,11.492,0,0,1-2.9,1.59c-1.3.5-2.585,1.041-3.884,1.548-11.3,4.4-22.757,8.072-34.677,9.648,0,.405.019.839.019.839a.372.372,0,0,0,.367.367h67.214a.372.372,0,0,0,.367-.367V158.625A.372.372,0,0,0,163.894,158.258Z" fill="#ffe660"></path><path d="M147.4,165.66c-1.122-1.632-3.527-5.1-3.6-5.213a2.365,2.365,0,0,1-.414.1,3.49,3.49,0,0,1-.468,3.81q1.459,1.5,2.92,3a1.142,1.142,0,0,0,2.048-.691A1.928,1.928,0,0,0,147.4,165.66Z" fill="#6596e1"></path><path d="M114.394,120.047a.291.291,0,0,0-.4-.076c-.221.151-2.019,1.647-7.141,5.875a.375.375,0,0,0,0,.518c4.258,4.6,4.666,5.422,15.5,16.77a21.156,21.156,0,0,1,10.694,2.066C126.475,136.02,114.478,120.156,114.394,120.047Z" fill="#6596e1"></path><path d="M117.712,15.851a10.812,10.812,0,0,0-7.668-7.127c-2.045-.509,2.749-.355-65.982-.355-.71,0-1.425-.018-2.133.048A11.038,11.038,0,0,0,31.907,19.409V41.13c6.986-3.226,13.949.584,15.141,6.3A141.089,141.089,0,0,1,65.892,35.507c1.738-.86,3.832-1.439,5.488-.119a5.058,5.058,0,0,1,1.834,4.417c-.408,4.61-5.424,8.459-9.033,11.32h53.751a.372.372,0,0,0,.366-.367V37.979h-3.11a.37.37,0,0,1-.316-.551c.231-.4,1.587-2.723,3.426-5.881V23.56c-1.568.51-3.12-.519-3.287-2.654-.109-1.394.47-3.717-1.159-4.471a1.374,1.374,0,0,0-1.738.818,4.673,4.673,0,0,0-.354,2.234c.021,1.33.19,3.435-1.509,3.811a2.877,2.877,0,0,1-1.973-.259A2.994,2.994,0,0,1,107,21.334a13.1,13.1,0,0,1,.016-4.926c.057-.462.8-.466.732,0a27.779,27.779,0,0,0-.246,2.937,4.408,4.408,0,0,0,.486,2.394,1.788,1.788,0,0,0,2.732.452c.836-1.546-.336-4.071,1.124-5.835a2.023,2.023,0,0,1,1.975-.708,2.52,2.52,0,0,1,1.556,1.368c.716,1.549-.024,3.3.608,4.859a1.676,1.676,0,0,0,2.319.9V20.623A13.577,13.577,0,0,0,117.712,15.851ZM66.662,19.9l-5.213,6.3c.143.154,3.5,3.807,5.036,5.479.319.347-.2.867-.518.518-.217-.236-3.713-4.064-5.262-5.725a.379.379,0,0,1,0-.518c.224-.269,3.849-4.648,5.439-6.568C66.445,19.016,66.961,19.537,66.662,19.9Zm15.458.442S73.369,29.2,70.23,32.23a.367.367,0,0,1-.518-.519c.861-.89,8.751-8.854,11.889-11.889a.367.367,0,0,1,.519.518Zm8.616,6.126c-.218.235-3.724,4.053-5.261,5.725-.32.349-.837-.171-.518-.518l5.035-5.479c-.147-.179-3.622-4.376-5.212-6.3-.3-.361.217-.882.518-.518l5.438,6.568A.377.377,0,0,1,90.736,26.466Z" fill="#b6dbff"></path><path d="M66.144,19.38l-5.439,6.568a.379.379,0,0,0,0,.518c1.549,1.661,5.045,5.489,5.262,5.725.32.348.837-.171.518-.518l-5.036-5.479,5.213-6.3C66.961,19.537,66.445,19.016,66.144,19.38Z" fill="#6596e1"></path><path d="M116.563,62.275a.367.367,0,0,0,0-.733h-1l-.636.733Z" fill="#6596e1"></path><path d="M89.992,26.194l-5.035,5.479c-.319.347.2.867.518.518,1.537-1.672,5.043-5.49,5.261-5.725a.377.377,0,0,0,0-.518L85.3,19.38c-.3-.364-.817.157-.518.518C90.864,27.246,89.22,25.261,89.992,26.194Z" fill="#6596e1"></path><path d="M82.12,20.34a.367.367,0,0,0-.519-.518c-3.139,3.035-11.028,11-11.889,11.889a.367.367,0,0,0,.518.519C73.369,29.2,82.12,20.34,82.12,20.34Z" fill="#6596e1"></path><path d="M118.028,57.613c0-4.181.027-3.942-.061-4.073a.4.4,0,0,1-.046.446S94.02,81.543,92.832,82.9a16.412,16.412,0,0,1-12.944,5.657H51.351c-.217.466-.432.933-.652,1.4,4.371-.893,6.658.568,9.091-.851a.369.369,0,0,1,.505.145,6.754,6.754,0,0,1-.306,3.417c-.085.248-.18.492-.288.732,0,0,18.918,0,20.7,0a16.424,16.424,0,0,0,12.874-6.164c1.933-2.267,23.827-27.463,24.452-28.183a.924.924,0,0,0,.3-.509A8.5,8.5,0,0,0,118.028,57.613Z" fill="#b6dbff"></path><path d="M117.662,53.36H61.472c-2.557,2.24-4.828,4.805-5.338,8.182H71.88a.367.367,0,0,1,0,.733H56.059A4.767,4.767,0,0,0,59.6,67.561a62.783,62.783,0,0,0,6.332,1.058c5.314.8,6.945.913,8.783,1.626h8.593a.367.367,0,0,1,0,.733H76.03C79,73.11,77.9,77.461,74.751,79.253H93.485a.367.367,0,0,1,0,.733H73.175A23.181,23.181,0,0,1,68.109,81a90.434,90.434,0,0,1-13.58.333c-.982,2.413-2.083,4.886-3.178,7.228H79.888A16.414,16.414,0,0,0,92.832,82.9c1.188-1.359,25.089-28.916,25.089-28.916A.374.374,0,0,0,117.662,53.36Zm-8.3,8.915H95.114a.367.367,0,0,1,0-.733h14.25A.389.389,0,0,1,109.364,62.275Zm-32.827,0a.367.367,0,0,1,0-.733h13.94a.367.367,0,0,1,0,.733Zm11.221,8.7a.367.367,0,0,1,0-.733h13.819a.367.367,0,0,1,0,.733Z" fill="#6596e1"></path><path d="M95.114,62.275h14.25a.367.367,0,0,0,0-.733H95.114a.367.367,0,0,0,0,.733Z" fill="#6596e1"></path><path d="M90.477,61.542H76.537a.367.367,0,0,0,0,.733h13.94a.367.367,0,0,0,0-.733Z" fill="#6596e1"></path><path d="M76.537,94.54a.366.366,0,0,0,0,.732H85.7a.366.366,0,0,0,0-.732Z" fill="#6596e1"></path><path d="M71.88,62.275a.367.367,0,0,0,0-.733H56.134c-.036.243-.061.488-.075.733Z" fill="#6596e1"></path><path d="M101.577,70.245H87.758a.367.367,0,0,0,0,.733h13.819a.367.367,0,0,0,0-.733Z" fill="#6596e1"></path><path d="M83.306,70.245H74.713a6.086,6.086,0,0,1,1.317.733h7.276A.371.371,0,0,0,83.306,70.245Z" fill="#6596e1"></path><path d="M93.485,79.986a.367.367,0,0,0,0-.733H74.751a9.245,9.245,0,0,1-1.576.733Z" fill="#6596e1"></path><path d="M74.713,70.245c-1.811-.717-3.728-.869-8.783-1.626-4.16-.623-4.91-.7-6.332-1.058-2.2-.551-3.71-2.451-3.539-5.286.221-3.659,2.657-6.506,5.413-8.915,4.218-3.686,11.25-7.993,11.742-13.555a5.058,5.058,0,0,0-1.834-4.417c-1.656-1.32-3.75-.741-5.488.119A139.8,139.8,0,0,0,47.048,47.431,9.577,9.577,0,0,0,41.5,40.854c-5.019-2.221-10.713-.2-14.363,3.777-1.65-2.971-5.361-4.067-8.594-3.613-4.133.581-7.187,3.813-9.009,7.372a42.54,42.54,0,0,0-3.85,14.244c-.361,3.832-.212,4.258-.317,29.823a.371.371,0,0,1,.366-.366c3.739-.027-11.912,0,39.742,0a14.8,14.8,0,0,1,5.22-2.134c1.718-3.625,2.956-6.479,3.83-8.626A90.434,90.434,0,0,0,68.109,81a21.99,21.99,0,0,0,5.066-1.012C78.414,78.2,79.512,72.143,74.713,70.245ZM39.22,58.136c-.176.432-.884.243-.707-.194a22.252,22.252,0,0,1,6.163-8.573c.357-.3.878.212.518.518A21.473,21.473,0,0,0,39.22,58.136ZM20.144,54.192a25.507,25.507,0,0,1,4.88-7.311c.326-.343.843.176.518.518a24.967,24.967,0,0,0-4.765,7.162C20.588,54.993,19.956,54.619,20.144,54.192Z" fill="#ffd7d7"></path><path d="M144.277,154.171a43.288,43.288,0,0,0-9.415-8c-5.712-3.414-10.831-3.456-17.326-2.582-4.114.553-10.635,1.777-10.915,1.9a.366.366,0,0,1,.436.353c0,.543.153,19.611,0,35.256a.369.369,0,0,1-.243.342,153.837,153.837,0,0,0,16.263-4.787c7.009-2.471,9.386-3.567,11.778-4.48a11.461,11.461,0,0,0,2.9-1.59,3.2,3.2,0,0,0,.648-4.571,6.89,6.89,0,0,0,3.658-.885,3.579,3.579,0,0,0,1.321-4.577,3.105,3.105,0,0,0,2.442-2.805A5.394,5.394,0,0,0,144.277,154.171Zm-19.725,9.974q5.2.363,10.365,1.1a.367.367,0,0,1,.256.451.377.377,0,0,1-.451.256q-5.064-.724-10.17-1.078C124.084,164.845,124.082,164.112,124.552,164.145ZM128,153.24c-.421-.214-.049-.846.37-.633l12.216,6.193c.421.213.05.845-.37.632Z" fill="#ffd7d7"></path><path d="M107.057,145.842a.365.365,0,0,0-.372-.36c-1.255.021-19.84,4.742-29.067,6.644a61.308,61.308,0,0,0-3.633-11.148,36.682,36.682,0,0,0-6.067-9.731c-8.4-9.549-22.335-11.493-34.857-7.463q3.251-5.888,6.431-11.816a11.187,11.187,0,0,1,.173-8.8,5.39,5.39,0,0,1,1.9-2.19,5.549,5.549,0,0,1,.356-.846c-1.037-1.145-.51-3.137.225-4.522a9.835,9.835,0,0,1,3.338-3.517H5.737a.37.37,0,0,0-.366.366C5.31,98.852,5,184.064,5,184.511a.37.37,0,0,0,.366.366H78.7a.371.371,0,0,0,.367-.366c0-.159,0-.317,0-.476a96.572,96.572,0,0,0,27.718-2.584l.026-.011a.369.369,0,0,0,.243-.342C107.058,181,107.061,146.32,107.057,145.842ZM83.119,180h5.044a.367.367,0,0,1,0,.733H83.119a.367.367,0,0,1,0-.733ZM77.241,152.2c.461-.093.657.614.2.707-9.955,2-14.422,2.5-23.94-.935-10.577-3.817-18.89-8.151-28.63-11.8-.438-.165-.247-.873.2-.707,10.538,3.951,26.29,11.836,35,13.706C65.829,154.4,71.452,153.369,77.241,152.2ZM23.234,102.656c.1.46-.6.654-.707.195a5.3,5.3,0,0,1,2.386-5.708,5.54,5.54,0,0,1,5,.123A8.09,8.09,0,0,1,32.6,100.1c1.23,1.813,4.013,6.8,5.074,8.721a.366.366,0,0,1-.632.37c-2.559-4.278-5.235-10.058-7.435-11.251a4.615,4.615,0,0,0-4.468-.079A4.517,4.517,0,0,0,23.234,102.656ZM8.353,96.781a.367.367,0,0,1,.733,0v5.945a.367.367,0,0,1-.733,0Zm70.355,87.23c-16.82-1.139-27.358-6.773-40.934-15.964-10.306-6.977-13.753-9.969-20.83-14.824-.386-.265-.019-.9.37-.632,7.949,5.453,9.58,7.22,22.134,15.7,12.714,8.59,23.529,13.989,39.26,14.985C79.164,183.307,79.185,184.043,78.708,184.011Z" fill="#c0c195"></path><path d="M41.341,102.074c-2.093,2.121-2.306,6.26-1.391,9.028q1.489-2.79,2.955-5.592A3.979,3.979,0,0,1,41.341,102.074Z" fill="#c0c195"></path><path d="M25.024,46.881a25.507,25.507,0,0,0-4.88,7.311c-.188.427.444.8.633.369A24.967,24.967,0,0,1,25.542,47.4C25.867,47.057,25.35,46.538,25.024,46.881Z" fill="#ffaaaa"></path><path d="M44.676,49.369a22.252,22.252,0,0,0-6.163,8.573c-.177.437.531.626.707.194a21.473,21.473,0,0,1,5.974-8.249C45.554,49.581,45.033,49.064,44.676,49.369Z" fill="#ffaaaa"></path><path d="M60.341,89.422a.371.371,0,0,0-.551-.316c-2.072,1.209-4.168.317-7.526.6-3.8.323-8.3,2.464-10.123,5.9-.732,1.378-1.26,3.378-.225,4.522,1.922-3.688,6.768-4.023,9.852-1.723a3.418,3.418,0,0,1,.656.572,12.336,12.336,0,0,0,5.551-3.036A8.117,8.117,0,0,0,60.341,89.422Z" fill="#000000"></path><path d="M45.635,101.005a4.794,4.794,0,0,0-4.294,1.069c-.307,3.679,4.95,6.275,9.23,4.228C49.878,103.806,48.149,101.54,45.635,101.005Z" fill="#ffd7d7"></path><path d="M53.537,101.056c-.965-4.692-9.992-6.129-11.977-.08a4.267,4.267,0,0,1,.977-.483c3.347-1.183,7.278.7,8.686,5.42A5.066,5.066,0,0,0,53.537,101.056Z" fill="#ffd7d7"></path><path d="M32.6,100.1a8.09,8.09,0,0,0-2.693-2.83,5.54,5.54,0,0,0-5-.123,5.3,5.3,0,0,0-2.386,5.708c.106.459.812.265.707-.195a4.517,4.517,0,0,1,1.909-4.8,4.615,4.615,0,0,1,4.468.079c2.2,1.194,4.823,6.884,7.435,11.251a.366.366,0,0,0,.632-.37C36.618,106.9,33.834,101.909,32.6,100.1Z" fill="#000000"></path><path d="M68.206,107.019c-1.428-7.856-9.524-8.759-11.824-3.853a10.341,10.341,0,0,0-.972,4.819c-.113-.06.158-.041-3.8-.041-.267-3.1-2.02-6.305-4.934-7.4a5.428,5.428,0,0,0-7.009,2.622,11.2,11.2,0,0,0-.414,8.167,7.256,7.256,0,0,0,2.705,3.686c4.2,2.994,9.778.167,9.69-6.343,3.9,0,3.67.029,3.8-.066a11.8,11.8,0,0,0,.524,2.723c1.033,3.252,4.4,5.537,7.723,4.7C66.753,115.256,69.033,111.565,68.206,107.019Zm-19.327,7.1c-2.786,2.706-7.261,1.026-8.7-2.385-1.268-3-1.04-8.346,1.785-10.162a5.064,5.064,0,0,1,3.672-.572C50.666,102.076,52.846,110.271,48.879,114.124Zm16.717,0c-2.8,2.718-7.3,1.013-8.7-2.385a11.243,11.243,0,0,1-.222-7.374,5.327,5.327,0,0,1,2.007-2.788,5.122,5.122,0,0,1,3.672-.572C67.415,102.1,69.544,110.29,65.6,114.124Z" fill="#000000"></path><path d="M128,153.24l12.216,6.192c.42.213.791-.419.37-.632l-12.216-6.193C127.952,152.394,127.58,153.026,128,153.24Z" fill="#ffaaaa"></path><path d="M124.552,164.878q5.1.356,10.17,1.078a.377.377,0,0,0,.451-.256.367.367,0,0,0-.256-.451q-5.162-.738-10.365-1.1C124.082,164.112,124.084,164.845,124.552,164.878Z" fill="#ffaaaa"></path><path d="M112.389,118.842l-6.818,5.8c-.359.306.161.822.519.518l6.817-5.8C113.267,119.055,112.746,118.538,112.389,118.842Z" fill="#6596e1"></path><path d="M105.15,124.029q3.5-2.791,6.865-5.739c.355-.311-.165-.828-.518-.518q-3.368,2.946-6.865,5.739C104.263,123.805,104.785,124.321,105.15,124.029Z" fill="#6596e1"></path><path d="M83.119,180.734h5.044a.367.367,0,0,0,0-.733H83.119a.367.367,0,0,0,0,.733Z" fill="#c0c195"></path><path d="M8.353,96.781v5.945a.367.367,0,0,0,.733,0V96.781a.367.367,0,0,0-.733,0Z" fill="#c0c195"></path><path d="M51.368,175.563c-12.611-6.784-25.72-17.254-34.054-22.972-.389-.268-.756.367-.37.632,6.726,4.614,10.833,8.053,20.83,14.824,13.676,9.263,24.206,14.831,40.934,15.964.477.032.457-.7,0-.733A65.6,65.6,0,0,1,51.368,175.563Z" fill="#c0c195"></path><path d="M60.059,153.163c-8.775-1.885-24.307-9.7-35-13.706-.442-.166-.633.542-.2.707,9.785,3.669,18.053,7.986,28.63,11.8,9.532,3.441,14,2.932,23.94.935.462-.093.266-.8-.2-.707C71.412,153.377,65.8,154.4,60.059,153.163Z" fill="#c0c195"></path><path d="M173.005,184.156v-30.94a6.3,6.3,0,0,1,12.594-.051c0,.34-.006.679,0,1.018a.367.367,0,0,0,.733,0,9.4,9.4,0,0,0-.376-3.248,7.031,7.031,0,0,0-13.684,2.312c0,.659,0,30.876,0,30.909a.367.367,0,0,0,.733,0Z" fill="#ffc431"></path><path d="M185.127,145.2a10.9,10.9,0,0,0-10.288-.793,9.465,9.465,0,0,0-5.411,8.58c-.006,1.081-.024,26.732,0,30.586a7.288,7.288,0,0,1-5.143,7.035c-1.686.414-5.046.2-67.816.29a.363.363,0,0,0-.354.379.367.367,0,0,0,.354.354h65.573a7.909,7.909,0,0,0,8.116-7.7c0-.069,0-29.144,0-29.144a14.77,14.77,0,0,1,.369-4.345c2.914-9.358,18.573-8.225,17.914,3.734a.367.367,0,0,0,.733,0C189.342,150.455,188.159,147.327,185.127,145.2Z" fill="#ffc431"></path><path d="M188.408,144.387a12.911,12.911,0,0,0-20,2.3,13.371,13.371,0,0,0-1.978,7.337s-.008,28.891,0,29.39a3.788,3.788,0,0,1-1.286,2.953,4.593,4.593,0,0,1-3.277.846H96.574a.367.367,0,0,0,0,.733s65.256-.009,66.057,0a4.438,4.438,0,0,0,4.526-4.309c0-.015,0-28.886,0-30.05a12.181,12.181,0,1,1,24.341.7.367.367,0,0,0,.733,0A12.989,12.989,0,0,0,188.408,144.387Z" fill="#ffc431"></path><path d="M192.109,144.149a15.689,15.689,0,0,0-28.5,9.112c0,1.128,0,3.714,0,3.714a.367.367,0,0,0,.733,0,33.135,33.135,0,0,1,.421-7.3,14.961,14.961,0,0,1,29.5,3.691v.76a.367.367,0,0,0,.733,0A15.81,15.81,0,0,0,192.109,144.149Z" fill="#ffc431"></path><path d="M151.169,112.791c-.96-1.752-8.531-14.657-8.9-15.283a.371.371,0,0,0-.633,0c-1.02,1.718-8.541,14.651-8.9,15.283a.37.37,0,0,0,.316.551h6.992v-3.05a.367.367,0,0,1,.733,0v3.05h10.082A.379.379,0,0,0,151.169,112.791Z" fill="#ffc431"></path><path d="M132.888,84.624h-6.405a.37.37,0,0,0-.366.366V91.4a.37.37,0,0,0,.366.367c4.367.031,5.817.041,6.327.007.238-.015.43-.042.457-.453.033-.491.019-1.908-.012-6.326A.37.37,0,0,0,132.888,84.624Z" fill="#d5e04f"></path><path d="M158.331,77.97a7.661,7.661,0,1,0,4.93,8.391A7.651,7.651,0,0,0,158.331,77.97Z" fill="#ffe660"></path><path d="M150.127,135.879c1.939-.832,4.151.116,6.091-.77a3.035,3.035,0,0,0,1.68-1.934,2.481,2.481,0,0,0-.976-2.417c-2.528-1.908-7.16.274-7.706-2.194a2.527,2.527,0,0,1,.617-2.291,3.962,3.962,0,0,1,2.444-.964,24,24,0,0,1,4.749.264c.467.058.463-.675,0-.732-1.093-.135-2.19-.25-3.291-.3a8.98,8.98,0,0,0-2.806.269,3.655,3.655,0,0,0-2.1,1.564,3.471,3.471,0,0,0-.3,2.459c.521,2.124,3.312,1.759,4.96,1.752a5.218,5.218,0,0,1,2.695.548,1.743,1.743,0,0,1,.876,2.237c-1.019,2.017-3.793,1.333-5.586,1.454a4.443,4.443,0,0,0-2.544.974,2.953,2.953,0,0,0-.056,4.178,4.232,4.232,0,0,0,2.853,1.039,22.461,22.461,0,0,1,2.62.134,3.234,3.234,0,0,1,2,1c.9,1.276-.215,2.881-1.887,3.074a27.19,27.19,0,0,1-6.054.072c-.468-.05-.465.684,0,.733a24.433,24.433,0,0,0,6.924-.249c1.643-.557,2.682-2.457,1.679-3.959a3.465,3.465,0,0,0-1.912-1.248,8.657,8.657,0,0,0-2.518-.264,5.9,5.9,0,0,1-2.668-.462A2.2,2.2,0,0,1,150.127,135.879Z" fill="#d5e04f"></path><path d="M129.71,61.516a.371.371,0,0,0,.317.552h8.535a.377.377,0,0,0,.357-.4c-.014-.282-4.231-7.348-4.308-7.478a.37.37,0,0,0-.633,0C132.713,56.32,129.885,61.212,129.71,61.516Z" fill="#d5e04f"></path><path d="M147.187,30.118a7.653,7.653,0,0,0-7.29-5.357h-1.784a.372.372,0,0,0-.367.366V31.6a.37.37,0,0,0,.367.367,2.159,2.159,0,0,1,2.21,2.23v3.88a.371.371,0,0,0,.366.366h6.477a.371.371,0,0,0,.367-.366C147.576,32.057,147.615,31.562,147.187,30.118Z" fill="#b6dbff"></path><path d="M128.375,37.428c-.692-1.263-6.166-10.593-6.435-11.046a.37.37,0,0,0-.633,0c-.735,1.237-6.173,10.589-6.435,11.046a.37.37,0,0,0,.316.551h12.871A.379.379,0,0,0,128.375,37.428Z" fill="#6596e1"></path><path d="M115.979,21.875c-.632-1.555.108-3.31-.608-4.859a2.52,2.52,0,0,0-1.556-1.368,2.026,2.026,0,0,0-1.975.708c-1.45,1.752-.307,4.325-1.124,5.835a1.789,1.789,0,0,1-2.732-.452,4.408,4.408,0,0,1-.486-2.394,27.779,27.779,0,0,1,.246-2.937c.063-.466-.675-.463-.732,0-.11.892-.2,1.788-.243,2.686-.069,1.586.181,3.1,1.509,3.945a2.878,2.878,0,0,0,1.973.259c1.7-.376,1.53-2.481,1.509-3.811a4.673,4.673,0,0,1,.354-2.234,1.374,1.374,0,0,1,1.738-.818c1.629.754,1.05,3.077,1.159,4.471.154,1.967,1.542,3.187,3.287,2.654a2.314,2.314,0,0,0,1.044-.646c1.534-1.93.057-4.407,1.565-5.823a1.347,1.347,0,0,1,1.9.191,2.527,2.527,0,0,1,.586,1.561,20.727,20.727,0,0,1,.006,4.475c-.05.469.684.465.733,0a19.381,19.381,0,0,0-.213-5.6,2.258,2.258,0,0,0-3.224-1.384,2.778,2.778,0,0,0-1.049,1.516c-.522,1.9.075,2.556-.575,4.175A1.7,1.7,0,0,1,115.979,21.875Z" fill="#6596e1"></path><path d="M140.038,128.306a.367.367,0,0,0,.733,0V110.292a.367.367,0,0,0-.733,0Z" fill="#000000"></path><path d="M135.535,76.605V92.457a.366.366,0,0,0,.732,0V76.605a.366.366,0,0,0-.732,0Z" fill="#000000"></path><path d="M141.3,53.546v22.7a.367.367,0,0,0,.733,0v-22.7a.367.367,0,0,0-.733,0Z" fill="#000000"></path><path d="M145.262,47.962V65.256a.367.367,0,0,0,.733,0V47.962a.367.367,0,0,0-.733,0Z" fill="#000000"></path><path d="M92.626,144.925c-.438.164-.248.873.195.706A66.8,66.8,0,0,1,108.3,141.85c.463-.056.468-.789,0-.733A67.185,67.185,0,0,0,92.626,144.925Z" fill="#000000"></path><path d="M107.435,137.9a72.758,72.758,0,0,0-15.819,4.419c-.432.175-.243.884.2.707a72.754,72.754,0,0,1,15.819-4.419C108.094,138.534,107.9,137.828,107.435,137.9Z" fill="#000000"></path><path d="M8.918,28.121c1.726,2.5,5.9,8.558,5.9,8.558.266.386.9.019.632-.37l-5.9-8.558C9.285,27.365,8.65,27.731,8.918,28.121Z" fill="#000000"></path><path d="M19.617,36.005c.1.461.809.266.706-.194-.315-1.422-2.8-12.632-2.8-12.632-.1-.461-.809-.266-.707.2C17.3,25.585,19.025,33.345,19.617,36.005Z" fill="#000000"></path></g><g><path d="M163.9,158.258H145.741c.351-1.436-.458-2.88-1.464-4.087a39.8,39.8,0,0,0-11.234-8.972c-5.693-8.121-18.08-24.419-18.649-25.152a.292.292,0,0,0-.4-.076c-.21.144-7.026,5.78-7.14,5.875a.375.375,0,0,0,0,.518c4.676,5.051,4.075,4.784,15.5,16.77-11.191.448-30.412,6.041-44.732,8.992a59.121,59.121,0,0,0-3.632-11.148,36.707,36.707,0,0,0-6.067-9.731c-8.606-9.651-22.593-11.41-34.857-7.463q3.251-5.888,6.431-11.816c1.491,3.532,5.6,5.3,8.74,3.55,2.43-1.361,3.45-4.161,3.414-6.841,3.9,0,3.67.028,3.8-.067a11.751,11.751,0,0,0,.524,2.723,6.684,6.684,0,0,0,7.723,4.7c3.668-.994,5.209-5.2,4.515-9.01-1.422-7.826-9.521-8.781-11.824-3.854a10.338,10.338,0,0,0-.972,4.819c-.112-.059.158-.041-3.8-.041a9.526,9.526,0,0,0-.385-2.031c2.383-1.577,3.274-4.843,1.2-6.934,3.2-.931,5.911-2.511,7.277-5.579,0,0,18.918.006,20.7,0a16.559,16.559,0,0,0,12.874-6.164l21.656-24.961h1.634a.367.367,0,0,0,0-.733h-1c2.538-2.925,2.4-2.715,2.463-3a8.5,8.5,0,0,0,0-.931c0-2.137.015-3.135,0-3.624-.019-.667-.148-.6-.529-.61-1.752-.048-10.769-.019-56.026-.019.879-.769,1.839-1.547,2.708-2.235h53.751a.372.372,0,0,0,.366-.367V37.979h9.761a.378.378,0,0,0,.358-.4c-.008-.136.415.636-6.477-11.2a.37.37,0,0,0-.633,0c-.724,1.244-3.009,5.165-3.009,5.165V23.56a2.253,2.253,0,0,0,1.045-.646c1.533-1.93.056-4.407,1.563-5.822a1.347,1.347,0,0,1,1.9.19,2.449,2.449,0,0,1,.586,1.562,20.654,20.654,0,0,1,.006,4.474c-.05.469.683.465.733,0a19.406,19.406,0,0,0-.213-5.6,2.258,2.258,0,0,0-3.224-1.384,2.768,2.768,0,0,0-1.049,1.516c-.53,1.93.089,2.519-.575,4.175a1.663,1.663,0,0,1-.768.744V20.623a13.577,13.577,0,0,0-.586-4.772,10.952,10.952,0,0,0-7.668-7.127,17.406,17.406,0,0,0-3.56-.355c-5.137-.111-62.684-.134-64.555.048A11.058,11.058,0,0,0,31.907,19.409V41.13a15.162,15.162,0,0,0-4.766,3.5c-1.65-2.971-5.361-4.067-8.594-3.613-4.133.581-7.162,3.826-9.009,7.372a42.515,42.515,0,0,0-3.85,14.244C5.333,66.742,5.009,181.4,5,184.511a.371.371,0,0,0,.366.366H78.7a.372.372,0,0,0,.367-.366c0-.159,0-.317,0-.476a89.447,89.447,0,0,0,17.224-.666c0,.4.019.839.019.839a.373.373,0,0,0,.367.367H163.9a.373.373,0,0,0,.366-.367V158.625A.373.373,0,0,0,163.9,158.258ZM56.673,104.365a5.243,5.243,0,0,1,2.007-2.788,5.068,5.068,0,0,1,3.672-.572c5.009,1.04,7.225,9.266,3.244,13.119-2.738,2.67-7.245,1.064-8.7-2.385A11.115,11.115,0,0,1,56.673,104.365Zm50.961,21.78,6.442-5.318c7.039,9.635,12.132,16.092,17.658,23.8a20.6,20.6,0,0,0-8.4-1.513C118.151,137.685,112.667,131.844,107.634,126.145Zm-.523,21.115c0-.368.031-.758.015-1.132,3.032-.62,6.078-1.178,9.14-1.626a39.369,39.369,0,0,1,9.282-.6c6.944.436,12.744,4.964,17.545,10.039.986,1.045,2.037,2.287,2,3.8-.029,1.106-1.233,2.376-2.408,2.039-.332-.095-.649.373-.356.612,1.062.868.805,2.669-.035,3.6-1.226,1.364-3.412,1.334-5.087,1.257a.369.369,0,0,0-.1.72,2.022,2.022,0,0,1,1.259,1.923,2.882,2.882,0,0,1-1.335,2.331,13.878,13.878,0,0,1-2.887,1.447c-5.775,2.173-14.575,5.989-27.033,8.946Zm36.608,14.362c.285.411,3.017,4.357,3.273,4.738.145.216.243.449,0,.643-.227.181-.429.058-.6-.118-.329-.334-3.059-3.154-3.059-3.154A3.552,3.552,0,0,0,143.719,161.622ZM41.341,102.073a3.869,3.869,0,0,0,1.019,2.912q-1.331,2.547-2.687,5.081C39.141,107.417,39.422,104.019,41.341,102.073Zm.824-.608c2.876-1.492,6.626-.12,8.178,4.129C46.551,107.483,41.19,105.206,42.165,101.465Zm6.714,12.659c-2.728,2.656-7.553,1.18-8.929-3.022q1.489-2.79,2.955-5.592a7.336,7.336,0,0,0,7.667.792C51.314,108.975,50.951,112.118,48.879,114.124Zm3.758-13.536a4.116,4.116,0,0,1-1.658,4.61c-1.621-4.261-5.29-5.792-8.443-4.7A5.26,5.26,0,0,1,44.9,98.206C47.677,97.043,51.445,98.016,52.637,100.588Zm5.318-5.713a11.194,11.194,0,0,1-6.187,3.532c-3.066-2.258-7.431-1.847-9.448,1.037a2.3,2.3,0,0,1-.215-1.368c.457-3.254,3.28-5.512,6.354-6.706a15.527,15.527,0,0,1,7.688-.9A7.65,7.65,0,0,0,59.65,90,7.272,7.272,0,0,1,57.955,94.875ZM117.3,58.432c-1.127,1.3-23.027,26.541-24.708,28.478a15.822,15.822,0,0,1-12.23,5.758c-1.745,0-20.334,0-20.368,0a7.3,7.3,0,0,0,.353-3.246.371.371,0,0,0-.38-.362,6.482,6.482,0,0,1-3.815.682,18.459,18.459,0,0,0-5.448.215c.22-.465.435-.932.652-1.4H79.888A16.525,16.525,0,0,0,92.832,82.9c1.188-1.36,22.946-26.447,24.463-28.195Zm-.462-4.308L92.587,82.069a15.821,15.821,0,0,1-12.23,5.757c-1.747,0-28.665,0-28.665,0,.99-2.145,1.946-4.307,2.838-6.495A82.794,82.794,0,0,0,68.11,81a21.887,21.887,0,0,0,5.065-1.012h20.31a.367.367,0,0,0,0-.733H74.751c3.141-1.789,4.264-6.134,1.279-8.275h7.276a.371.371,0,0,0,0-.733H74.713c-3.641-1.412-11.466-1.738-15.115-2.684-2.146-.519-3.706-2.4-3.54-5.286H71.88a.367.367,0,0,0,0-.733H56.135c.461-2.992,2.313-5.383,4.525-7.449C60.66,54.093,115.957,54.145,116.833,54.124ZM121.624,27.3l5.8,9.951h-11.6C115.926,37.075,121.523,27.467,121.624,27.3ZM32.64,19.409A10.342,10.342,0,0,1,43.33,9.1h63.827a10.311,10.311,0,0,1,10.41,10.211c0,.035,0,1.015,0,3.63-.026,0-.05.009-.077.008a1.7,1.7,0,0,1-1.509-1.076c-.632-1.555.128-3.319-.608-4.859a2.489,2.489,0,0,0-1.556-1.368,2.024,2.024,0,0,0-1.975.708c-1.45,1.753-.307,4.325-1.123,5.835a1.789,1.789,0,0,1-2.732-.452,4.4,4.4,0,0,1-.487-2.394,25.324,25.324,0,0,1,.246-2.937c.058-.467-.675-.462-.733,0A13.194,13.194,0,0,0,107,21.334a3.031,3.031,0,0,0,1.282,1.705,2.852,2.852,0,0,0,1.973.259c1.7-.362,1.53-2.481,1.509-3.811a4.673,4.673,0,0,1,.354-2.234,1.374,1.374,0,0,1,1.738-.818c1.629.754,1.05,3.077,1.159,4.471.119,1.524,1.024,2.8,2.554,2.778v9.121c-.632,1.085-2.428,4.167-2.693,4.623a.37.37,0,0,0,.316.551h2.377V50.392H65.105A31.707,31.707,0,0,0,70.857,45a9.638,9.638,0,0,0,2.357-5.192,5.028,5.028,0,0,0-1.834-4.417c-1.656-1.32-3.75-.741-5.488.119A140.063,140.063,0,0,0,47.048,47.431,9.664,9.664,0,0,0,41.5,40.854a11.324,11.324,0,0,0-8.864-.038ZM6.207,65.679c.238-8.011,3.077-20.911,10.742-23.53,3.615-1.234,8.177-.28,9.793,3.3a.369.369,0,0,0,.576.074c4.873-5.613,12.435-6.619,17-1.761a8.1,8.1,0,0,1,2.122,4.409.369.369,0,0,0,.453.255A147.652,147.652,0,0,1,65.8,36.377a7.734,7.734,0,0,1,2.967-1.039,3.55,3.55,0,0,1,3.592,2.868,6.826,6.826,0,0,1-1.346,5.348c-3.672,5.511-10.694,8.22-14.211,14.081-1.491,2.485-2.279,6.148-.412,8.664a6.672,6.672,0,0,0,4.5,2.295c10.117,1.718,14.89,1.332,15.985,4.656a4.578,4.578,0,0,1-1.239,4.4A8.817,8.817,0,0,1,70.7,79.914a78.2,78.2,0,0,1-16.4.672c-.538.01,0,.128-4.508,9.586a14.541,14.541,0,0,0-4.307,1.919s-38.913-.041-39.374-.02C6.144,82.373,6.174,66.527,6.207,65.679ZM77.835,183.208a65.71,65.71,0,0,1-26.468-7.645c-12.637-6.83-27.547-18.5-34.052-22.972-.39-.268-.757.367-.37.632,6.769,4.644,10.749,7.994,20.829,14.824,13.465,9.116,23.992,14.741,40.564,15.934l0,.163s-72.355-.013-72.6-.008c0-4.206.365-90.672.368-91.312H44.493a9.163,9.163,0,0,0-2.352,2.784c-.712,1.387-1.269,3.365-.229,4.517a6.048,6.048,0,0,0-.352.851,5.513,5.513,0,0,0-1.9,2.19,11.181,11.181,0,0,0-.5,7.859c-1.147,2.145-5.932,10.939-7.178,13.191a.371.371,0,0,0,.414.538c16.543-5.438,32.889-1.029,40.369,15.321A57,57,0,0,1,76.9,152.264c-5.753,1.159-11.046,2.11-16.839.9-9.217-2.033-23.781-9.488-35-13.706-.442-.166-.633.542-.2.707,14.306,5.363,29.55,13.9,39.565,14.275,9.208.346,25.946-4.8,41.893-8.144V179.66c0,.34-.064.779-.03,1.15A94.27,94.27,0,0,1,77.835,183.208Zm85.693.634H97.046v-.574c11.571-1.618,23.062-5.277,33.925-9.548,1.3-.506,2.582-1.05,3.884-1.547a11.241,11.241,0,0,0,2.9-1.59,3.2,3.2,0,0,0,.648-4.572,6.88,6.88,0,0,0,3.658-.884,3.563,3.563,0,0,0,.853-.767q1.459,1.5,2.92,3a1.142,1.142,0,0,0,2.048-.691,1.935,1.935,0,0,0-.484-1.013c-1.122-1.632-3.527-5.1-3.6-5.213a3.2,3.2,0,0,0,1.66-1.456h18.073Z" fill="#000000"></path><path d="M65.967,32.191c.32.349.837-.171.518-.518,0,0-4.893-5.325-5.036-5.479l5.213-6.3c.3-.361-.217-.882-.518-.518l-5.439,6.568a.379.379,0,0,0,0,.518C67.74,34.017,65.539,31.726,65.967,32.191Z" fill="#000000"></path><path d="M89.992,26.194l-5.035,5.479c-.319.347.2.867.518.518l5.262-5.725a.378.378,0,0,0,0-.518L85.3,19.38c-.3-.364-.817.157-.518.518Z" fill="#000000"></path><path d="M70.23,32.23C73.371,29.2,82.12,20.34,82.12,20.34a.367.367,0,0,0-.519-.518c-3.139,3.034-11.028,11-11.889,11.889a.367.367,0,0,0,.518.519Z" fill="#000000"></path><path d="M95.114,62.275h14.25a.367.367,0,0,0,0-.733H95.114a.367.367,0,0,0,0,.733Z" fill="#000000"></path><path d="M76.537,62.275h13.94a.367.367,0,0,0,0-.733H76.537a.367.367,0,0,0,0,.733Z" fill="#000000"></path><path d="M76.537,94.54a.366.366,0,0,0,0,.732H85.7a.366.366,0,0,0,0-.732Z" fill="#000000"></path><path d="M101.577,70.245H87.758a.367.367,0,0,0,0,.733h13.819a.367.367,0,0,0,0-.733Z" fill="#000000"></path><path d="M20.777,54.561A25.341,25.341,0,0,1,25.542,47.4c.325-.342-.192-.861-.518-.518a25.528,25.528,0,0,0-4.88,7.311C19.956,54.619,20.588,54.993,20.777,54.561Z" fill="#000000"></path><path d="M39.22,58.136A21.9,21.9,0,0,1,45.2,49.887c.359-.306-.162-.822-.519-.518a22.257,22.257,0,0,0-6.163,8.573C38.336,58.378,39.045,58.568,39.22,58.136Z" fill="#000000"></path><path d="M25.143,97.857a4.618,4.618,0,0,1,4.468.079,7.328,7.328,0,0,1,2.373,2.549c1.562,2.308,4.286,7.4,5.062,8.7a.363.363,0,0,0,.505.115.366.366,0,0,0,.127-.485c-3.639-6.438-5.665-10.456-7.768-11.551a5.5,5.5,0,0,0-5-.123,5.3,5.3,0,0,0-2.385,5.708.36.36,0,0,0,.446.247.381.381,0,0,0,.261-.442A4.527,4.527,0,0,1,25.143,97.857Z" fill="#000000"></path><path d="M128,153.24l12.216,6.192c.42.213.791-.419.37-.632l-12.216-6.193C127.951,152.394,127.58,153.026,128,153.24Z" fill="#000000"></path><path d="M135.173,165.7a.367.367,0,0,0-.256-.451q-5.162-.738-10.365-1.1c-.47-.033-.468.7,0,.733q5.1.356,10.17,1.078A.377.377,0,0,0,135.173,165.7Z" fill="#000000"></path><path d="M112.389,118.843l-6.817,5.8c-.36.306.16.822.518.518l6.817-5.8C113.267,119.055,112.746,118.538,112.389,118.843Z" fill="#000000"></path><path d="M105.15,124.029q3.5-2.791,6.865-5.739c.355-.311-.165-.828-.519-.518q-3.366,2.947-6.864,5.739C104.263,123.805,104.784,124.321,105.15,124.029Z" fill="#000000"></path><path d="M88.163,180H83.119a.367.367,0,0,0,0,.733h5.044a.367.367,0,0,0,0-.733Z" fill="#000000"></path><path d="M8.707,96.427a.367.367,0,0,0-.354.354v5.945a.367.367,0,0,0,.733,0V96.781A.367.367,0,0,0,8.707,96.427Z" fill="#000000"></path><path d="M177.03,146.555a7.03,7.03,0,0,0-4.758,6.692c0,.659,0,30.876,0,30.909a.367.367,0,0,0,.733,0s0-30.777,0-30.94a6.3,6.3,0,0,1,12.594-.05c0,.339-.006.678,0,1.017a.367.367,0,0,0,.733,0,9.118,9.118,0,0,0-.377-3.248A6.976,6.976,0,0,0,177.03,146.555Z" fill="#000000"></path><path d="M185.127,145.2a10.907,10.907,0,0,0-10.287-.793,9.461,9.461,0,0,0-5.412,8.58c-.006,1.081,0,30.586,0,30.586.041,3.408-2.207,7.182-7.354,7.328-4.363.123-17.71-.085-65.605,0a.363.363,0,0,0-.354.379.368.368,0,0,0,.354.354h65.573a7.909,7.909,0,0,0,8.116-7.7c0-.069,0-29.144,0-29.144a14.838,14.838,0,0,1,.37-4.345c2.909-9.341,18.574-8.23,17.914,3.734a.366.366,0,0,0,.732,0A9.72,9.72,0,0,0,185.127,145.2Z" fill="#000000"></path><path d="M168.4,146.687a13.517,13.517,0,0,0-1.978,7.337s-.008,28.891,0,29.39a3.814,3.814,0,0,1-1.286,2.953,4.629,4.629,0,0,1-3.277.846H96.574a.367.367,0,0,0,0,.733s65.256,0,66.057,0a4.418,4.418,0,0,0,4.526-4.309c0-.015,0-28.886,0-30.05a12.181,12.181,0,1,1,24.341.7.367.367,0,0,0,.733,0,13.082,13.082,0,0,0-3.824-9.9A12.911,12.911,0,0,0,168.4,146.687Z" fill="#000000"></path><path d="M170.242,140.4a15.686,15.686,0,0,0-6.631,12.865c0,1.128,0,3.714,0,3.714a.366.366,0,0,0,.732,0,33.01,33.01,0,0,1,.421-7.3,14.961,14.961,0,0,1,29.5,3.691v.76a.367.367,0,0,0,.733,0A15.718,15.718,0,0,0,170.242,140.4Z" fill="#000000"></path><path d="M133.147,91.653c.163-.223.16.486.108-6.663a.37.37,0,0,0-.367-.366h-6.405a.372.372,0,0,0-.367.366V91.4a.372.372,0,0,0,.367.367C133.583,91.814,132.966,91.807,133.147,91.653Zm-.625-.624h-5.673V85.356h5.673Z" fill="#000000"></path><path d="M155.675,92.826a7.672,7.672,0,1,0-7.663-7.681A7.67,7.67,0,0,0,155.675,92.826Zm-2.441-14.2a6.958,6.958,0,1,1-4.088,8.951A6.962,6.962,0,0,1,153.234,78.626Z" fill="#000000"></path><path d="M150.127,135.879a5.881,5.881,0,0,1,2.556-.376,7.672,7.672,0,0,0,3.535-.394,3,3,0,0,0,1.68-1.934,2.448,2.448,0,0,0-.975-2.417c-1.715-1.311-3.831-.73-5.8-.925-.869-.087-1.71-.324-1.906-1.269a2.5,2.5,0,0,1,.617-2.291,3.961,3.961,0,0,1,2.445-.964,23.06,23.06,0,0,1,4.748.264c.467.058.463-.676,0-.732a16.56,16.56,0,0,0-6.1-.033,3.7,3.7,0,0,0-2.1,1.564,3.449,3.449,0,0,0-.3,2.459c.51,2.127,3.311,1.759,4.96,1.752a5.143,5.143,0,0,1,2.693.548,1.743,1.743,0,0,1,.877,2.237c-.761,1.506-2.5,1.48-4.08,1.44a5.414,5.414,0,0,0-4.05.988,2.957,2.957,0,0,0,.237,4.442,4.666,4.666,0,0,0,2.56.775,21.417,21.417,0,0,1,2.62.134,3.239,3.239,0,0,1,2,1c.9,1.276-.214,2.881-1.887,3.074a26.1,26.1,0,0,1-6.054.072c-.468-.05-.465.683,0,.733a24.5,24.5,0,0,0,6.924-.249c1.649-.559,2.681-2.459,1.679-3.959a3.465,3.465,0,0,0-1.912-1.248,9.236,9.236,0,0,0-2.517-.264,5.979,5.979,0,0,1-2.669-.462A2.2,2.2,0,0,1,150.127,135.879Z" fill="#000000"></path><path d="M129.851,62.02c.126.072-.4.048,8.711.048a.379.379,0,0,0,.316-.552l-4.267-7.324a.371.371,0,0,0-.509-.125c-.134.082.17-.363-4.392,7.449A.37.37,0,0,0,129.851,62.02Zm4.443-6.916,3.63,6.231h-7.26C130.817,61.074,134.215,55.242,134.294,55.1Z" fill="#000000"></path><path d="M138.113,31.97a2.159,2.159,0,0,1,2.21,2.231v3.88a.372.372,0,0,0,.366.367h6.477a.372.372,0,0,0,.367-.367c.043-5.935.086-6.418-.346-7.963a7.659,7.659,0,0,0-7.29-5.357h-1.784a.372.372,0,0,0-.367.366V31.6A.369.369,0,0,0,138.113,31.97Zm.366-6.476H139.9a6.9,6.9,0,0,1,6.9,7.437v4.784h-5.744v-2.33a4.624,4.624,0,0,0-.591-3.046,2.84,2.84,0,0,0-1.986-1.081Z" fill="#000000"></path><path d="M140.417,128.66a.367.367,0,0,0,.354-.354V113.342h10.082a.378.378,0,0,0,.358-.4c-.011-.238-2.92-5.105-8.945-15.435a.37.37,0,0,0-.633,0l-8.9,15.282a.371.371,0,0,0,.14.5c.131.073-.281.047,7.168.047v14.964A.367.367,0,0,0,140.417,128.66Zm-6.733-16.051,8.266-14.188,8.265,14.188h-9.444v-2.318a.367.367,0,0,0-.733,0v2.318Z" fill="#000000"></path><path d="M136.267,92.457V76.605a.367.367,0,0,0-.733,0V92.457a.367.367,0,0,0,.733,0Z" fill="#000000"></path><path d="M142.032,76.244v-22.7a.367.367,0,0,0-.733,0v22.7a.367.367,0,0,0,.733,0Z" fill="#000000"></path><path d="M146,65.256V47.962a.367.367,0,0,0-.733,0V65.256a.367.367,0,0,0,.733,0Z" fill="#000000"></path><path d="M92.821,145.632A67.213,67.213,0,0,1,108.3,141.85c.462-.056.467-.789,0-.733a67.183,67.183,0,0,0-15.673,3.808C92.188,145.089,92.378,145.8,92.821,145.632Z" fill="#000000"></path><path d="M107.435,137.9a72.788,72.788,0,0,0-15.819,4.419c-.432.175-.243.884.2.707a73.1,73.1,0,0,1,15.819-4.419C108.094,138.534,107.9,137.827,107.435,137.9Z" fill="#000000"></path><path d="M14.818,36.679c.266.385.9.019.632-.37l-5.9-8.558c-.266-.386-.9-.02-.633.37Z" fill="#000000"></path><path d="M19.616,36.005c.1.461.81.266.707-.194-.315-1.422-2.8-12.632-2.8-12.632-.1-.46-.809-.266-.707.2C17.127,24.794,19.275,34.469,19.616,36.005Z" fill="#000000"></path></g></svg>