<svg xmlns="http://www.w3.org/2000/svg" viewBox="0 0 200 200"><g><path d="M138.361,99.214a2.439,2.439,0,0,1,.149-1.946,6.659,6.659,0,0,1,1.079-1.541c-1.3-1.985-2.581-3.983-3.914-5.945-1.624-2.388-3.482-4.609-5.13-6.981a.281.281,0,0,1,.072-.366.1.1,0,0,0-.026.011,106.136,106.136,0,0,0-8.829,7.962,3.05,3.05,0,0,0-.1.894,1.346,1.346,0,0,0,1.114,1.425c1.083.174,2.058-.94,2.665-1.688a13.177,13.177,0,0,1,2.288-2.276c2.8-2.1,6.291-.48,5.907,2.192a4.477,4.477,0,0,1-1.427,2.429c-2.026,1.824-6.1,2.8-5.73,5.749.146.615.752.723,1.3.8,2.25.3,5.074-.184,6.876,1.577a2.535,2.535,0,0,1,.686,1.181,2.051,2.051,0,0,1-.942,2.076,4.807,4.807,0,0,1-2.863.669,6.693,6.693,0,0,0-4.89,1.9,17.829,17.829,0,0,0-3.221,4.225c-.649,1.147-2.208,3.979-2.35,4.241,6.408-2.218,16.023-8.323,19.582-11.6C138.35,99.215,138.376,99.315,138.361,99.214Z" fill="#c0c195"></path><path d="M169.428,94.036c-1.025-6.139-5.359-11.621-10.693-14.687-8.508-4.891-20.1-2.878-28.086,3.054-.011.01-.022.021-.032.032a.28.28,0,0,0-.072.366c1.648,2.372,3.506,4.593,5.13,6.981,1.333,1.961,2.615,3.96,3.914,5.945a18.563,18.563,0,0,1,10.491-5.045,13.012,13.012,0,0,0-5.033,1.26,6.15,6.15,0,0,1-3.847.6,2.65,2.65,0,0,1-1.732-3.864c1.036-2.257,3.71-3.3,5.992-3.628a.527.527,0,0,1,.636.361.518.518,0,0,1-.361.636c-2.07.229-4.54,1.252-5.356,3.111a1.648,1.648,0,0,0,1.588,2.455c2.37.108,4.151-2.083,9.307-1.98a5.8,5.8,0,0,1,2.726.692,2.567,2.567,0,0,1,1.291,2.063,5.6,5.6,0,0,1-1.108,3.274,16.443,16.443,0,0,0-2.523,4c-.6,1.39,1.152,2.583,3.17,1.47a9.773,9.773,0,0,0,1.939-1.381c1.226-1.372,1.05-1.145,2.034-2.239.407-.451,1.129.178.813.627a13.663,13.663,0,0,1-2.126,2.355c-.813.911-2.023,2.109-1.571,3.265a2.053,2.053,0,0,0,1.62,1.089,4.326,4.326,0,0,0,2.445-.446,30.783,30.783,0,0,1,2.884-1.311.518.518,0,0,1,.37.958c-.043.023-.23.077-3.2,1.588-1.058.538-2.365,1.131-2.2,2.161a1.4,1.4,0,0,0,.309.678,2.8,2.8,0,0,0,1.9.805c2.252.081,4.175-1.224,6.028-2.3a.5.5,0,0,1,.673.176,6.036,6.036,0,0,0,1.322-1.285C170.489,102.624,170.1,98.036,169.428,94.036Zm-6.861-1.085-.832,1.739c-.287.6-1.179.076-.893-.522q.415-.87.832-1.739C161.961,91.828,162.853,92.354,162.567,92.951Zm4.909,6.351a5.059,5.059,0,0,1-1.408,2.389c-.479.463-1.213-.269-.731-.732a4.32,4.32,0,0,0,1.141-1.932.518.518,0,0,1,1,.275Z" fill="#ae877c"></path><path d="M70.161,58.8a5.457,5.457,0,0,0-7.075,4.381,5.122,5.122,0,0,0,5.823,5.526,5.221,5.221,0,0,0,3.941-4.367C73.135,62.217,72.28,59.659,70.161,58.8Z" fill="#ae877c"></path><path d="M99.8,92.864a23.2,23.2,0,0,1-1.085-4.9c-1.548-1.271-3.085-2.556-4.678-3.771a44.159,44.159,0,0,0-19.4-8.64c-.153,0,.133,0,.145.272.262,5.659.663,9.956-.843,14.661a8.824,8.824,0,0,1-1.928,3.4,2.949,2.949,0,0,1-3.26.7,7.7,7.7,0,0,1-2.912-2.254c-3.665-4.415-4.636-10.284-5.787-15.708a.306.306,0,0,1,.169-.345l-.03,0c-24,6.753-35.437,34.058-24.482,52.654,10.3-.064,9.863-.084,9.971-.041a2.349,2.349,0,0,1,1.54.786,8.209,8.209,0,0,1,1.731,3.591,20.957,20.957,0,0,1,.286,8.384c6.992,3.789,15.272,6.047,28.619,5.223a65.04,65.04,0,0,0,16.94-3.151c.022-.008.028-.028.047-.038l-.046.017a.292.292,0,0,1-.358-.2c-.178-1.082-8.757-23.534-9.638-27.015a.3.3,0,0,1,.2-.358c.675-.218,1.331-.49,1.993-.747a41.1,41.1,0,0,0,9.5-5.2,10.711,10.711,0,0,0,3.027-3.4C101.4,102.669,100.909,97.264,99.8,92.864ZM74.746,115.6c-5.813-2.075-9.84-6.555-12.268-12.31a.527.527,0,0,1,.185-.708.518.518,0,0,1,.708.186,21.478,21.478,0,0,0,7.174,9.466,20.417,20.417,0,0,0,12.275,3.66.518.518,0,0,1,0,1.035A22.534,22.534,0,0,1,74.746,115.6Zm11.673,23.172a.526.526,0,0,1,.732,0,.519.519,0,0,1,0,.732,8.058,8.058,0,0,1-5.968,1.788.526.526,0,0,1-.517-.517.519.519,0,0,1,.517-.518A7.048,7.048,0,0,0,86.419,138.772Z" fill="#c0c195"></path><path d="M74.783,75.825a.31.31,0,0,0-.214-.281,35.06,35.06,0,0,0-14.314.72.31.31,0,0,0-.2.361c1.151,5.424,2.122,11.293,5.787,15.708a7.7,7.7,0,0,0,2.912,2.254,2.949,2.949,0,0,0,3.26-.7,8.824,8.824,0,0,0,1.928-3.4C75.415,85.88,75.071,82.041,74.783,75.825Z" fill="#ae877c"></path><path d="M135.333,102.686a2.535,2.535,0,0,0-.686-1.181c-1.8-1.762-4.62-1.277-6.876-1.577-.544-.072-1.15-.18-1.3-.8-.374-2.949,3.7-3.925,5.73-5.749a4.477,4.477,0,0,0,1.427-2.429c.38-2.648-3.074-4.313-5.907-2.192a13.177,13.177,0,0,0-2.288,2.276c-.607.748-1.582,1.863-2.665,1.688a1.346,1.346,0,0,1-1.114-1.425,4.109,4.109,0,0,1,.977-2.589c1.1-1.364,2.909-3.367,1.554-5.171a3.4,3.4,0,0,0-4.437-.564c-1.82,1.173-2.535,3.34-3.19,5.279-.762,2.255-1.945,3.967-4.141,4.7a5.809,5.809,0,0,1-7.373-3.809,10.6,10.6,0,0,0-1.288-3.1,3.057,3.057,0,0,0-2.426-1.406c-1.658.106-3.063,1.747-2.477,4.64.424,2.091,1.865,5.639,1.93,10.814a16.609,16.609,0,0,1-1.265,6.691,10.711,10.711,0,0,1-3.027,3.4,40.932,40.932,0,0,1-9.5,5.2c-.662.256-1.318.528-1.993.747a.3.3,0,0,0-.2.358c.867,3.428,9.538,26.405,9.638,27.015a.292.292,0,0,0,.358.2,34.522,34.522,0,0,0,5.873-2.645c11.2-6.435,16.872-19.117,22.746-29.506,1.17-2.07,3.074-4.677,5.347-5.625a6.921,6.921,0,0,1,2.764-.5,4.807,4.807,0,0,0,2.863-.669A2.052,2.052,0,0,0,135.333,102.686Zm-15.19-7.074-1.4,2.615c-.315.588-1.208.065-.894-.522l1.4-2.615C119.564,94.5,120.457,95.026,120.143,95.612Zm1.955,8.01q.681-1.11,1.361-2.222c.347-.567,1.242-.047.893.522l-1.36,2.223C122.644,104.712,121.75,104.192,122.1,103.622Z" fill="#ae877c"></path><path d="M71.216,48.347a13.652,13.652,0,0,0-4.7.053c1.376-3.077,2.58-6.395,1.7-9.782a6.465,6.465,0,0,0-7.346-5.033,12.286,12.286,0,0,0-4.345,1.446c1.122-5.528-2.4-11.413-7.91-11.8A8.853,8.853,0,0,0,40.932,26.7a8.621,8.621,0,0,0-1.4-5.313c-1.741-2.343-4.84-2.941-7.554-2.354a22.267,22.267,0,0,0-5.221,1.953c-.595.3-.076,1.178.523.893,2.5-1.191,5.281-2.418,8.125-1.87a5.524,5.524,0,0,1,3.136,1.778A6.277,6.277,0,0,1,39.8,25.029a22.055,22.055,0,0,1-.056,4.291c-.061.582.882.7,1.016.137.769-3.214,4.075-5.209,7.253-5.214C53.378,24.234,57.1,30.405,55.194,36a.523.523,0,0,0,.76.584c2.432-1.6,5.937-2.908,8.688-1.3,2.633,1.539,3.259,5,2.665,7.754a22.926,22.926,0,0,1-2.1,5.77.526.526,0,0,0,.584.76c2.828-.512,6.108-.759,8.383,1.344a9.211,9.211,0,0,1,2.48,7.87A21.932,21.932,0,0,1,73.634,67.5a9.242,9.242,0,0,1-6.97,4.493,5.53,5.53,0,0,1-5.928-4.646.52.52,0,0,0-1.016-.137c-1.85,4.2-6.477,6.476-10.2,5.752-2.763-.7-2.3-4.316-3.685-6.692a.521.521,0,0,0-.964.261c.55,8.5-7.938,13.966-12.025,11.6a5.04,5.04,0,0,1-1.767-2.07,13.876,13.876,0,0,0-1.541-2.529.521.521,0,0,0-.865.228C27.428,82.414,22,84.816,18.26,83.207a7.308,7.308,0,0,1-3.138-3.194,23.021,23.021,0,0,1-1.891-5.172.518.518,0,0,0-1,.275c.81,3.222,2.02,7.068,5.126,8.789,3.6,1.993,7.944.064,10.034-3.237a14.709,14.709,0,0,0,2.069-5.452c.733,1.233,1.231,2.612,2.428,3.516,3.9,2.947,12.606-1.043,13.9-9.569.513,1.9.962,3.855,2.972,4.64,2.937,1.148,8.59-.432,11.266-4.981,2.327,5.922,11.861,6.342,15.975-3.662C80.148,55.088,76.086,49.171,71.216,48.347Z" fill="#ffaaaa"></path><path d="M126.108,163.068c.06,2.706-4.942,3.762-7.656,3.912a22,22,0,0,1-4.362-.161c-2.312-.331-6.212-1.481-6.041-3.754-.04.1-.152-.882-.021,17.62a.294.294,0,0,0,.291.291h17.518a.294.294,0,0,0,.291-.291C126.259,162.275,126.147,163.168,126.108,163.068Z" fill="#ffd7d7"></path><path d="M125.785,162.088a5.617,5.617,0,0,0-2.921-1.905,19.943,19.943,0,0,0-10.505-.32,8.04,8.04,0,0,0-3.536,1.69,2.092,2.092,0,0,0-.6,2.423,5.279,5.279,0,0,0,3.074,2.176,19.749,19.749,0,0,0,11,.181,6.729,6.729,0,0,0,3.277-1.807A1.992,1.992,0,0,0,125.785,162.088Z" fill="#c0c195"></path><path d="M149.124,163.068c.06,2.706-4.939,3.761-7.656,3.912a21.916,21.916,0,0,1-4.362-.161c-2.336-.333-6.211-1.49-6.041-3.755-.04.1-.152-.881-.021,17.621a.294.294,0,0,0,.291.291h17.518a.294.294,0,0,0,.291-.291C149.275,162.275,149.163,163.169,149.124,163.068Z" fill="#ffd7d7"></path><path d="M148.8,162.088a5.617,5.617,0,0,0-2.921-1.905,19.943,19.943,0,0,0-10.5-.32,8.036,8.036,0,0,0-3.535,1.69,2.091,2.091,0,0,0-.606,2.423,5.279,5.279,0,0,0,3.074,2.176,19.756,19.756,0,0,0,11,.181,6.722,6.722,0,0,0,3.278-1.807A1.992,1.992,0,0,0,148.8,162.088Z" fill="#ffaaaa"></path><path d="M171.838,163.068c.06,2.706-4.94,3.761-7.656,3.912a22.036,22.036,0,0,1-4.362-.161c-2.307-.33-6.212-1.479-6.041-3.754-.04.1-.152-.882-.021,17.62a.294.294,0,0,0,.291.291h17.518a.294.294,0,0,0,.291-.291C171.989,162.275,171.877,163.168,171.838,163.068Z" fill="#ffd7d7"></path><path d="M171.515,162.088a5.617,5.617,0,0,0-2.921-1.905,19.943,19.943,0,0,0-10.5-.32,8.025,8.025,0,0,0-3.535,1.69,2.091,2.091,0,0,0-.606,2.423,5.279,5.279,0,0,0,3.074,2.176,19.749,19.749,0,0,0,11,.181,6.728,6.728,0,0,0,3.278-1.807A1.993,1.993,0,0,0,171.515,162.088Z" fill="#c0c195"></path><path d="M194.974,163.068c.06,2.709-4.949,3.762-7.656,3.912a21.913,21.913,0,0,1-4.362-.161c-2.347-.335-6.211-1.494-6.041-3.755-.04.1-.153-.881-.021,17.621a.294.294,0,0,0,.291.291H194.7a.294.294,0,0,0,.291-.291C195.125,162.275,195.013,163.169,194.974,163.068Z" fill="#ffd7d7"></path><path d="M194.651,162.088a5.617,5.617,0,0,0-2.921-1.905,19.947,19.947,0,0,0-10.506-.32,8.041,8.041,0,0,0-3.535,1.69,2.092,2.092,0,0,0-.6,2.423,5.28,5.28,0,0,0,3.074,2.176,19.756,19.756,0,0,0,11.005.181,6.737,6.737,0,0,0,3.277-1.807A1.992,1.992,0,0,0,194.651,162.088Z" fill="#ffaaaa"></path><path d="M157.675,105.887c-2.4-.215-3.356-1.985-2.656-3.7a3.326,3.326,0,0,1-3.439-.082,2.347,2.347,0,0,1-.993-1.283,2.71,2.71,0,0,1,.134-1.612,14.949,14.949,0,0,1,2.569-4.066,9.736,9.736,0,0,0,.508-.9c-2.655,4.408-12.708,8.163-15.151,5.431-.25-.28-1.9-3.92,6.755,14.812a.3.3,0,0,0,.4.1l11.623-5.4A2.2,2.2,0,0,1,157.675,105.887Z" fill="#ffd7d7"></path><path d="M137.61,141.483c.06,2.7-4.934,3.761-7.656,3.912a21.972,21.972,0,0,1-4.362-.161c-2.336-.333-6.211-1.49-6.041-3.755-.04.1-.152-.882-.021,17.621a.3.3,0,0,0,.291.291h17.518a.294.294,0,0,0,.291-.291C137.761,140.69,137.65,141.583,137.61,141.483Z" fill="#ffd7d7"></path><path d="M137.288,140.5a5.623,5.623,0,0,0-2.922-1.9,19.943,19.943,0,0,0-10.505-.32,8.025,8.025,0,0,0-3.535,1.69,2.091,2.091,0,0,0-.6,2.423,5.278,5.278,0,0,0,3.073,2.176,19.758,19.758,0,0,0,11.006.18,6.721,6.721,0,0,0,3.277-1.806A1.992,1.992,0,0,0,137.288,140.5Z" fill="#c0c195"></path><path d="M160.627,141.483c.059,2.706-4.942,3.761-7.656,3.912a21.979,21.979,0,0,1-4.363-.161c-2.316-.331-6.211-1.485-6.041-3.755-.04.1-.152-.882-.02,17.621a.294.294,0,0,0,.291.291h17.518a.3.3,0,0,0,.291-.291C160.777,140.69,160.666,141.583,160.627,141.483Z" fill="#ffd7d7"></path><path d="M160.3,140.5a5.617,5.617,0,0,0-2.921-1.9,19.947,19.947,0,0,0-10.506-.32,8.025,8.025,0,0,0-3.535,1.69,2.092,2.092,0,0,0-.605,2.423,5.283,5.283,0,0,0,3.074,2.176,19.748,19.748,0,0,0,11,.18,6.72,6.72,0,0,0,3.277-1.806A1.992,1.992,0,0,0,160.3,140.5Z" fill="#ffaaaa"></path><path d="M183.34,141.483c.06,2.706-4.942,3.761-7.655,3.912a21.979,21.979,0,0,1-4.363-.161c-2.336-.333-6.211-1.49-6.041-3.755-.04.1-.152-.882-.02,17.621a.294.294,0,0,0,.291.291h17.517a.294.294,0,0,0,.291-.291C183.491,140.69,183.38,141.583,183.34,141.483Z" fill="#ffd7d7"></path><path d="M183.018,140.5a5.623,5.623,0,0,0-2.922-1.9,19.943,19.943,0,0,0-10.5-.32,8.025,8.025,0,0,0-3.535,1.69,2.092,2.092,0,0,0-.605,2.423,5.28,5.28,0,0,0,3.074,2.176,19.752,19.752,0,0,0,11,.18,6.72,6.72,0,0,0,3.277-1.806A1.992,1.992,0,0,0,183.018,140.5Z" fill="#c0c195"></path><path d="M149.124,119.877c.06,2.707-4.942,3.762-7.656,3.912a21.863,21.863,0,0,1-4.363-.161c-2.336-.334-6.21-1.49-6.04-3.754-.04.1-.153-.882-.021,17.621a.3.3,0,0,0,.291.291h17.518a.3.3,0,0,0,.291-.291C149.275,119.084,149.163,119.978,149.124,119.877Z" fill="#ffd7d7"></path><path d="M148.8,118.9a5.623,5.623,0,0,0-2.921-1.905,19.963,19.963,0,0,0-10.5-.32,8.047,8.047,0,0,0-3.535,1.69,2.093,2.093,0,0,0-.606,2.423,5.285,5.285,0,0,0,3.074,2.177,19.771,19.771,0,0,0,11.006.18,6.74,6.74,0,0,0,3.277-1.806A1.994,1.994,0,0,0,148.8,118.9Z" fill="#c0c195"></path><path d="M153.128,91.039c-3.556-1.343-9.18,1.118-12.175,3.458a8,8,0,0,0-2.443,2.771,2.184,2.184,0,0,0,.137,2.405c2.619,2.928,14.116-1.692,15.489-6.288A1.825,1.825,0,0,0,153.128,91.039Z" fill="#ffaaaa"></path><path d="M23.3,140.634a2.4,2.4,0,0,1-1.057,1.968c-2.51,2.058-7.949,2.3-11.277,1.792-2.315-.354-6.124-1.538-5.951-3.769-.04.1-.155-.918-.021,17.849a.294.294,0,0,0,.291.291H23.028a.294.294,0,0,0,.291-.291C23.452,139.88,23.339,140.734,23.3,140.634Z" fill="#ffd7d7"></path><path d="M22.978,139.646a5.672,5.672,0,0,0-2.958-1.934,20.224,20.224,0,0,0-10.609-.334,8.213,8.213,0,0,0-3.6,1.709,2.125,2.125,0,0,0-.637,2.432c1.75,3.782,13.827,4.078,17.252.934A2.1,2.1,0,0,0,22.978,139.646Z" fill="#c0c195"></path><path d="M171.838,119.877c.06,2.709-4.95,3.762-7.656,3.912a21.9,21.9,0,0,1-4.363-.161c-2.311-.33-6.211-1.482-6.04-3.754-.04.1-.153-.882-.021,17.621a.3.3,0,0,0,.291.291h17.518a.3.3,0,0,0,.291-.291C171.989,119.084,171.877,119.978,171.838,119.877Z" fill="#ffd7d7"></path><path d="M171.515,118.9a5.623,5.623,0,0,0-2.921-1.905,19.964,19.964,0,0,0-10.5-.32,8.047,8.047,0,0,0-3.535,1.69,2.091,2.091,0,0,0-.606,2.423,5.285,5.285,0,0,0,3.074,2.177,19.767,19.767,0,0,0,11,.18,6.737,6.737,0,0,0,3.278-1.806A2,2,0,0,0,171.515,118.9Z" fill="#ffaaaa"></path><path d="M48.422,166.45s-12.748-11.266-13.284-11.763a.3.3,0,0,0-.411,0C22.179,168.862,22.933,167.979,22.9,168.08a2.391,2.391,0,0,1,2.158-.779c3.2.187,9.208,4.279,11.544,9.172.563,1.18.924,2.821-.017,3.728.158-.082,9.346-10.526,11.837-13.34A.423.423,0,0,0,48.422,166.45Z" fill="#ffd7d7"></path><path d="M24.2,167.338a2,2,0,0,0-1.722,1.746,5.751,5.751,0,0,0,.95,3.369,20.238,20.238,0,0,0,7.753,7.282,7.989,7.989,0,0,0,3.829,1.085,2.1,2.1,0,0,0,2.06-1.443C38.167,175.335,29.021,166.632,24.2,167.338Z" fill="#c0c195"></path><path d="M42.009,141.344a21.346,21.346,0,0,1,.032-7.063c.38-2.13,1.52-5.54,3.64-5.386-.113-.045-17.75.089-17.85.09a.293.293,0,0,0-.291.291c-.008,2,.1,17.013.11,17.744a.3.3,0,0,0,.291.291c.611,0,17.7-.077,17.839-.131C43.453,147.231,42.392,143.65,42.009,141.344Z" fill="#ffd7d7"></path><path d="M48.952,133.272a8.209,8.209,0,0,0-1.731-3.591,2.308,2.308,0,0,0-1.54-.786c-3.386-.3-5.148,8.9-3.042,15a6.217,6.217,0,0,0,1.645,2.727,2.017,2.017,0,0,0,2.483.225,5.665,5.665,0,0,0,1.916-2.968A20.151,20.151,0,0,0,48.952,133.272Z" fill="#ffaaaa"></path><path d="M37.047,37.954c-.867-2.039-2.85-6.694-2.973-6.983-.066-.157-.269-.159-.4-.105l-6.983,2.973a.233.233,0,0,0-.139.3c.064.179,2.965,6.983,3.008,7.083a.3.3,0,0,0,.4.105l6.983-2.973C37.1,38.285,37.1,38.082,37.047,37.954Z" fill="#ffd7d7"></path><path d="M34.572,62.89a8.168,8.168,0,0,0-2.835-3.808c-.654-.49-2.075-1.3-2.686-.3a2.149,2.149,0,0,0,0,1.732,8.673,8.673,0,0,0,3.074,4.013,3.08,3.08,0,0,0,1.547.609C34.912,65.15,34.867,63.728,34.572,62.89Z" fill="#c0c195"></path><path d="M18.075,50.462a8.11,8.11,0,0,0-4.749-.349c-.813.179-2.369.746-1.956,1.874a2.227,2.227,0,0,0,1.335,1.1,8.644,8.644,0,0,0,5.023.283A3.029,3.029,0,0,0,19.2,52.59C20,51.658,18.892,50.787,18.075,50.462Z" fill="#ffaaaa"></path><path d="M60.224,45.7a8.673,8.673,0,0,0-5.03-.109c-2.039.538-2.362,2.162-.263,2.924a8.055,8.055,0,0,0,4.759.185C62.48,47.977,61.953,46.159,60.224,45.7Z" fill="#ffaaaa"></path><path d="M56.147,56.515c-6.692-3.121-6.834-3.209-6.938-3.223a.239.239,0,0,0-.338.119c-.884,2.032-3.075,6.594-3.208,6.879a.3.3,0,0,0,.105.4L52.646,63.9a.3.3,0,0,0,.4-.1c.936-2.008,3.075-6.593,3.207-6.878A.294.294,0,0,0,56.147,56.515Z" fill="#ffd7d7"></path><path d="M15.118,63.723c-1.416.83-2.033,2.4-2.541,3.867-.218.63.781.9,1,.275.429-1.241.924-2.623,2.151-3.3a1.881,1.881,0,0,1,1.665-.089c1.642.99,1.372,3.441,2.856,4.8a3.329,3.329,0,0,0,5.563-2.784.529.529,0,0,0-.517-.518.519.519,0,0,0-.518.518,2.3,2.3,0,0,1-3.294,2.383c-1.72-.878-1.408-3.3-2.88-4.766A2.86,2.86,0,0,0,15.118,63.723Z" fill="#c0c195"></path><path d="M36.86,50.8a.526.526,0,0,0,.518-.518c.083-.81.212-1.949,1.066-2.335.77-.348,1.544.357,1.932.957.459.712.911,1.521,1.833,1.653a2.288,2.288,0,0,0,2.15-1.155c.633-.987.491-2.248.609-3.362a.517.517,0,0,0-.517-.517.526.526,0,0,0-.517.517c-.106.995.132,3.1-1.325,3.488-.768.1-1.016-.707-1.5-1.38-1.06-1.476-2.584-1.622-3.567-.843a4.094,4.094,0,0,0-1.2,2.978A.518.518,0,0,0,36.86,50.8Z" fill="#c0c195"></path><path d="M49.767,34.464c.659-.055.665-1.09,0-1.035-.967.08-2.073.316-2.375,1.395a1.294,1.294,0,0,0,.361,1.3,2.684,2.684,0,0,0,1.55.533c.766.076,2.163-.135,2.579.727.52,1.076-1.391.8-1.888.846-.658.058-.664,1.093,0,1.035.982-.085,2.227.2,2.821-.843a1.818,1.818,0,0,0-.892-2.383c-.984-.475-2.042-.227-3.058-.5-.368-.1-.65-.285-.369-.661S49.358,34.5,49.767,34.464Z" fill="#c0c195"></path><path d="M14.945,34.728a2.127,2.127,0,0,1,1.329-.291,1.478,1.478,0,0,1,.864.7,1.9,1.9,0,0,1-.844,2.391c-.559.358-.044,1.248.522.893A3.21,3.21,0,0,0,18.331,36.1a2.469,2.469,0,0,0-2.359-2.734,4.864,4.864,0,0,0-1.515.447c-.789.272-1.939.384-2.4-.492s.663-1.612,1.284-2c.562-.354.044-1.25-.522-.894a3.825,3.825,0,0,0-1.826,1.947C10.458,34.462,12.939,35.675,14.945,34.728Z" fill="#c0c195"></path><path d="M81.183,140.257a.519.519,0,0,0-.517.518.526.526,0,0,0,.517.517,8.058,8.058,0,0,0,5.968-1.788.519.519,0,0,0,0-.732.526.526,0,0,0-.732,0A7.048,7.048,0,0,1,81.183,140.257Z" fill="#c0c195"></path><path d="M65.943,109.229a20.64,20.64,0,0,0,16.877,7.7.518.518,0,0,0,0-1.035,19.544,19.544,0,0,1-18.085-10.327c-.5-.911-.947-1.847-1.364-2.8a.518.518,0,0,0-.708-.186.527.527,0,0,0-.185.708A26.2,26.2,0,0,0,65.943,109.229Z" fill="#c0c195"></path><path d="M103.473,49.544a.518.518,0,0,0,.894-.522c-.866-1.554-1.742-3.1-2.66-4.626a.517.517,0,0,0-.893.522C101.679,46.472,102.555,48.021,103.473,49.544Z" fill="#000000"></path><path d="M110.77,48.69a.518.518,0,0,0,1.035,0l-.124-6.257a.518.518,0,0,0-1.035,0S110.763,48.426,110.77,48.69Z" fill="#000000"></path><path d="M119.42,49.544l2.463-4.615c.314-.587-.579-1.111-.893-.522l-2.463,4.615C118.213,49.609,119.106,50.133,119.42,49.544Z" fill="#000000"></path><path d="M120.379,62.905c.06,2.7-4.935,3.761-7.656,3.911a21.889,21.889,0,0,1-4.362-.16c-2.315-.331-6.212-1.485-6.041-3.755-.04.1-.152-.882-.021,17.621a.294.294,0,0,0,.291.291h17.518a.294.294,0,0,0,.291-.291C120.53,62.111,120.418,63.005,120.379,62.905Z" fill="#ffd7d7"></path><path d="M120.056,61.924a5.621,5.621,0,0,0-2.921-1.9,19.943,19.943,0,0,0-10.505-.32,8.025,8.025,0,0,0-3.535,1.69,2.09,2.09,0,0,0-.606,2.422,5.285,5.285,0,0,0,3.074,2.177,19.748,19.748,0,0,0,11,.18,6.727,6.727,0,0,0,3.278-1.806A1.994,1.994,0,0,0,120.056,61.924Z" fill="#ffaaaa"></path><path d="M177.411,106.071l4.716-4.983c.457-.484-.273-1.217-.732-.732l-4.715,4.984C176.222,105.823,176.952,106.556,177.411,106.071Z" fill="#000000"></path><path d="M179.684,111.486c-.626.214-.357,1.213.275,1l6.5-2.21c.627-.213.358-1.213-.275-1Z" fill="#000000"></path><path d="M161.735,94.69q.417-.868.832-1.739c.286-.6-.606-1.123-.893-.522q-.416.87-.832,1.739C160.556,94.766,161.448,95.291,161.735,94.69Z" fill="#000000"></path><path d="M166.068,101.691a5.054,5.054,0,0,0,1.408-2.389.518.518,0,0,0-1-.275,4.325,4.325,0,0,1-1.141,1.932C164.856,101.421,165.589,102.154,166.068,101.691Z" fill="#000000"></path><path d="M166.081,106.979c-1.863,1.062-3.776,2.383-6.028,2.3a2.8,2.8,0,0,1-1.9-.805,1.413,1.413,0,0,1-.309-.678c-.181-1.106,1.308-1.693,2.421-2.278,2.56-1.344,2.928-1.4,3.072-1.535a.521.521,0,0,0-.467-.894,30.783,30.783,0,0,0-2.884,1.311,4.316,4.316,0,0,1-2.445.446,2.053,2.053,0,0,1-1.62-1.089c-.452-1.156.762-2.359,1.571-3.265a13.623,13.623,0,0,0,2.126-2.355c.328-.465-.417-1.067-.813-.627-.539.6-1.9,2.088-2.034,2.239a9.773,9.773,0,0,1-1.939,1.381c-1.978,1.09-3.609,0-3.224-1.319a15.9,15.9,0,0,1,2.577-4.147,5.609,5.609,0,0,0,1.108-3.274A2.564,2.564,0,0,0,154,90.329a5.8,5.8,0,0,0-2.726-.692,15.182,15.182,0,0,0-6.749,1.411c-2.159.987-4.557.737-4.316-1.258a3.725,3.725,0,0,1,1.651-2.354,8.569,8.569,0,0,1,3.875-1.385.517.517,0,0,0,.361-.636.527.527,0,0,0-.636-.361c-2.282.325-4.956,1.371-5.992,3.628a2.65,2.65,0,0,0,1.732,3.864,6.15,6.15,0,0,0,3.847-.6,13.034,13.034,0,0,1,5.033-1.26c3.878-.212,5.3,1.169,3.21,4.462a14.925,14.925,0,0,0-2.569,4.066,2.71,2.71,0,0,0-.134,1.612,2.347,2.347,0,0,0,.993,1.283,3.326,3.326,0,0,0,3.439.082c-.7,1.724.266,3.486,2.656,3.7a2.231,2.231,0,0,0-.882,1.719,2.821,2.821,0,0,0,2.234,2.554,6,6,0,0,0,3.693-.262,24.416,24.416,0,0,0,3.881-2.024C167.181,107.561,166.661,106.649,166.081,106.979Z" fill="#000000"></path><path d="M118.741,98.227l1.4-2.615c.314-.586-.579-1.11-.894-.522l-1.4,2.615C117.533,98.292,118.426,98.815,118.741,98.227Z" fill="#000000"></path><path d="M122.992,104.145l1.36-2.223c.349-.569-.546-1.089-.893-.522q-.681,1.112-1.361,2.222C121.749,104.192,122.644,104.712,122.992,104.145Z" fill="#000000"></path></g><g><path d="M27.285,21.88c2.5-1.191,5.281-2.418,8.125-1.87a5.524,5.524,0,0,1,3.136,1.778A6.277,6.277,0,0,1,39.8,25.029a22.055,22.055,0,0,1-.056,4.291c-.061.582.882.7,1.016.137.769-3.214,4.075-5.209,7.253-5.214C53.378,24.234,57.1,30.405,55.194,36a.523.523,0,0,0,.76.584c2.432-1.6,5.937-2.908,8.688-1.3,2.633,1.539,3.259,5,2.665,7.754a22.926,22.926,0,0,1-2.1,5.77.526.526,0,0,0,.584.76c2.828-.512,6.108-.759,8.383,1.344a9.211,9.211,0,0,1,2.48,7.87A21.932,21.932,0,0,1,73.634,67.5a9.242,9.242,0,0,1-6.97,4.493,5.53,5.53,0,0,1-5.928-4.646.52.52,0,0,0-1.016-.137c-1.85,4.2-6.477,6.476-10.2,5.752-2.763-.7-2.3-4.316-3.685-6.692a.521.521,0,0,0-.964.261c.55,8.5-7.938,13.966-12.025,11.6a5.04,5.04,0,0,1-1.767-2.07,13.876,13.876,0,0,0-1.541-2.529.521.521,0,0,0-.865.228C27.428,82.414,22,84.816,18.26,83.207a7.308,7.308,0,0,1-3.138-3.194,23.021,23.021,0,0,1-1.891-5.172.517.517,0,0,0-1,.275c.81,3.222,2.02,7.068,5.126,8.789,3.6,1.993,7.944.064,10.034-3.237a14.709,14.709,0,0,0,2.069-5.452c.733,1.233,1.231,2.612,2.428,3.516,3.9,2.947,12.606-1.043,13.9-9.569.513,1.9.962,3.855,2.972,4.64,2.937,1.148,8.59-.432,11.266-4.981,2.327,5.922,11.861,6.342,15.975-3.662,4.142-10.072.08-15.99-4.79-16.813a13.652,13.652,0,0,0-4.7.053c1.376-3.077,2.58-6.395,1.7-9.782a6.465,6.465,0,0,0-7.346-5.033,12.286,12.286,0,0,0-4.345,1.446c1.122-5.528-2.4-11.413-7.91-11.8A8.853,8.853,0,0,0,40.932,26.7a8.621,8.621,0,0,0-1.4-5.313c-1.741-2.343-4.84-2.941-7.554-2.354a22.267,22.267,0,0,0-5.221,1.953C26.167,21.284,26.686,22.165,27.285,21.88Z" fill="#000000"></path><path d="M15.118,63.723c-1.416.83-2.033,2.4-2.541,3.867-.218.63.781.9,1,.275.429-1.241.924-2.623,2.151-3.3a1.881,1.881,0,0,1,1.665-.089c1.642.99,1.372,3.441,2.856,4.8a3.329,3.329,0,0,0,5.563-2.784.529.529,0,0,0-.517-.518.519.519,0,0,0-.518.518,2.3,2.3,0,0,1-3.294,2.383c-1.72-.878-1.408-3.3-2.88-4.766A2.86,2.86,0,0,0,15.118,63.723Z" fill="#000000"></path><path d="M36.86,50.8a.526.526,0,0,0,.518-.518c.083-.81.212-1.949,1.066-2.335.77-.348,1.544.357,1.932.957.459.712.911,1.521,1.833,1.653a2.288,2.288,0,0,0,2.15-1.155c.633-.987.491-2.248.609-3.362a.517.517,0,0,0-.517-.517.526.526,0,0,0-.517.517c-.106.995.132,3.1-1.325,3.488-.768.1-1.016-.707-1.5-1.38-1.06-1.476-2.584-1.622-3.567-.843a4.094,4.094,0,0,0-1.2,2.978A.518.518,0,0,0,36.86,50.8Z" fill="#000000"></path><path d="M49.767,34.464c.659-.055.665-1.09,0-1.035-.967.08-2.073.316-2.375,1.395a1.294,1.294,0,0,0,.361,1.3,2.684,2.684,0,0,0,1.55.533c.766.076,2.163-.135,2.579.727.52,1.076-1.391.8-1.888.846-.658.058-.664,1.093,0,1.035.982-.085,2.227.2,2.821-.843a1.818,1.818,0,0,0-.892-2.383c-.984-.475-2.042-.227-3.058-.5-.368-.1-.65-.285-.369-.661S49.358,34.5,49.767,34.464Z" fill="#000000"></path><path d="M14.945,34.728a2.127,2.127,0,0,1,1.329-.291,1.478,1.478,0,0,1,.864.7,1.9,1.9,0,0,1-.844,2.391c-.559.358-.044,1.248.522.893A3.21,3.21,0,0,0,18.331,36.1a2.469,2.469,0,0,0-2.359-2.734,4.864,4.864,0,0,0-1.515.447c-.789.272-1.939.384-2.4-.492s.663-1.612,1.284-2c.562-.354.044-1.25-.522-.894a3.825,3.825,0,0,0-1.826,1.947C10.458,34.462,12.939,35.675,14.945,34.728Z" fill="#000000"></path><path d="M103.473,49.544a.518.518,0,0,0,.894-.522c-.866-1.554-1.742-3.1-2.66-4.626a.517.517,0,0,0-.893.522C101.679,46.472,102.555,48.021,103.473,49.544Z" fill="#000000"></path><path d="M110.77,48.69a.518.518,0,0,0,1.035,0l-.124-6.257a.518.518,0,0,0-1.035,0S110.763,48.426,110.77,48.69Z" fill="#000000"></path><path d="M119.42,49.544l2.463-4.615c.314-.587-.579-1.111-.893-.522l-2.463,4.615C118.213,49.609,119.106,50.133,119.42,49.544Z" fill="#000000"></path><path d="M68.114,69.038c4.777-.345,6.662-6.149,3.422-9.619a5,5,0,0,0-6.154-.21,5.3,5.3,0,0,0,2.732,9.829ZM65.4,60.5a4.261,4.261,0,0,1,5-.676,4.643,4.643,0,0,1,1.654,4.39A4.361,4.361,0,0,1,68.114,68,4.26,4.26,0,0,1,65.4,60.5Z" fill="#000000"></path><path d="M121.252,115.941c5.565-1.968,10.769-5.213,15.629-8.541a39.67,39.67,0,0,0,3.686-2.847l4.639,10.046a.528.528,0,0,0,.708.186l11.678-5.424a3.285,3.285,0,0,0,1.434.8,5.978,5.978,0,0,0,3.694-.262c5.16-2.088,7.149-5.147,7.409-9.593a29.186,29.186,0,0,0-.931-8.3,22.847,22.847,0,0,0-11.133-13.28c-8.578-4.433-19.813-2.256-27.53,3.482-.012.009-.021.022-.032.032a.089.089,0,0,0-.026.01,87.931,87.931,0,0,0-8.047,7.207c.984-1.564,2.547-2.8,2.452-4.586-.119-2.244-2.715-3.246-4.718-2.372-3.837,1.928-3,6.644-5.912,9.165a5.578,5.578,0,0,1-8.674-1.8c-.585-1.206-.737-2.6-1.482-3.733a3.331,3.331,0,0,0-2.951-1.707,3.236,3.236,0,0,0-2.642,3.07,77.113,77.113,0,0,0-8.444-6.282A40.913,40.913,0,0,0,74.7,75.334c-.014,0-.029,0-.044,0l-.024-.01a35.28,35.28,0,0,0-14.435.72c-.015,0-.025.012-.039.016l-.024,0c-24.212,6.794-35.38,34.291-24.806,52.648-1.25.008-6.246.034-7.5.047a.522.522,0,0,0-.518.517c-.008,2,.1,17.013.111,17.744a.522.522,0,0,0,.517.517c1.009,0,17.684-.092,17.794-.121a2.908,2.908,0,0,0,2.071-1.278,9.962,9.962,0,0,0,1.6-4.153A44.833,44.833,0,0,0,66.9,147.023c9,.695,19.279-.127,27.96-3.077a.569.569,0,0,0,.121-.066C108.268,139.3,114.562,128.235,121.252,115.941Zm29.394-24.494c1.789-.076,3.385.438,2.622,2.066-1.722,3.678-10.225,7.273-13.435,6C136.419,98.17,144.2,91.719,150.646,91.447ZM145.9,113.653l-6.023-13.042c3.571.952,9.671-1.713,12.588-4.413a19.3,19.3,0,0,0-1.4,2.14,3.047,3.047,0,0,0-.066,3.54,2.942,2.942,0,0,0,2.735.708,6.186,6.186,0,0,0,1.143-.332c-.76,1.748-.026,3.648,1.939,3.941a1.992,1.992,0,0,0-.145,2.456Zm1.072-36.237a20.427,20.427,0,0,1,15.272,5.538,21.117,21.117,0,0,1,6.788,14.238c.252,3.809-.087,7.877-3.447,9.777a13.835,13.835,0,0,1-3.3,1.339c-1.375.48-3.271.6-4.359-.224-.366-.88.3-1.452,1.125-1.92,1.569-.573,3.151-.9,4.4-1.968a.463.463,0,0,0,.061-.634.516.516,0,0,0-.647-.471,27.5,27.5,0,0,0-2.761,1.252,12.585,12.585,0,0,1-1.808.483c-1.611.3-2.969-.98-2.3-2.336a23.9,23.9,0,0,1,1.84-2.319c1.089-1.025,1.159-1.356,2.255-2.4.485-.461-.241-1.179-.731-.732-.127.116-.563.477-.789.726a15.317,15.317,0,0,1-4.975,3.463,1.726,1.726,0,0,1-1.732-.228,1.321,1.321,0,0,1-.2-1.342c1.006-2.878,3.674-4.233,3.63-7.27-.139-1.938-2.09-2.717-4.016-2.755a15.182,15.182,0,0,0-6.749,1.411,5.765,5.765,0,0,1-2.712.558c-2.169-.167-2.158-2.674.047-4.17a8.569,8.569,0,0,1,3.875-1.385.517.517,0,0,0,.361-.636.528.528,0,0,0-.636-.362c-2.282.326-4.956,1.372-5.992,3.629a2.652,2.652,0,0,0,1.732,3.864c2.112.442,3.732-.751,2.064.159a16.459,16.459,0,0,0-3.209,2.277c-2.939-4.414-3-4.639-4.032-6.115-1.454-2.067-3.046-4.032-4.507-6.094A28.64,28.64,0,0,1,146.976,77.416Zm-16.342,6.013c1.449,2.008,3,3.942,4.414,5.975,1.453,2.089,2.81,4.248,4.215,6.37a4.561,4.561,0,0,0-1.283,2.557c-.061.768.314,1.3,2.136,5.244-4.365,3.745-12.613,8.919-18.133,11.011a47,47,0,0,1,2.6-4.472c1.757-2.647,3.489-3.771,5.327-4.3,1.8-.388,3.34.182,4.808-1.027a2.588,2.588,0,0,0,.768-1.1c.621-1.87-1.585-3.473-3.552-3.679-1.622-.265-3.705-.09-4.816-.454a.9.9,0,0,1-.44-1.077c.436-2.9,5.425-3.3,6.9-6.569,1.107-2.452-.986-4.668-3.726-4.288-3.727.517-5.149,5.564-7.316,4.8a1.175,1.175,0,0,1-.638-1.04C124.775,88.694,127.512,85.835,130.634,83.429ZM74,76.283a66.938,66.938,0,0,1,.177,8.366,15.968,15.968,0,0,1-2.085,7.845,2.587,2.587,0,0,1-2.6,1.468,5.824,5.824,0,0,1-2.822-1.909,19.936,19.936,0,0,1-3.782-6.822,63.282,63.282,0,0,1-1.958-8.3A35.416,35.416,0,0,1,74,76.283ZM28.455,146.5c-.011-1.83-.1-16.149-.1-16.709l15.294-.095c-2.94,3.447-2.794,13.324.09,16.709Zm19.072-1.908c-.335.747-.974,1.732-1.842,1.8-1.461-.046-2.4-2.848-2.716-4.279-.69-3.1-.624-7.7.744-10.6,1.542-3.271,3.416-1.785,4.391,1.717A18.6,18.6,0,0,1,47.527,144.591Zm29.288,1.537c-9.955.422-18.542-.459-27.246-5.217a21.377,21.377,0,0,0-.2-6.842c-.387-1.926-1.269-4.693-3.137-5.314-.464-.154-.178-.11-9.706-.05C25.4,110.017,37.515,83.664,59.87,77.22c1.047,5.5,2.267,11.273,6.05,15.644a6.939,6.939,0,0,0,3.11,2.11,3.284,3.284,0,0,0,3.236-.955,9.227,9.227,0,0,0,1.926-3.373,19.606,19.606,0,0,0,.945-4.331,55.071,55.071,0,0,0-.025-9.863A37.723,37.723,0,0,1,87.5,80.936c4.8,2.621,6.9,4.535,11.061,7.942.4,2.291,2.146,6.447,1.992,11.963a15.715,15.715,0,0,1-1.18,5.716c-1.7,3.7-8.568,7.047-12.332,8.563-2.269.913-2.236.761-2.4,1.038a.514.514,0,0,0-.053.391c.354,1.359.839,2.692,1.3,4.016.3.864,8.182,22.469,8.2,22.542A65.615,65.615,0,0,1,76.815,146.128Zm25.4-6.992a30.682,30.682,0,0,1-7.151,3.607c-.09-.3-9.324-25.906-9.353-26.011,4.434-1.6,12.066-5.159,14.358-9.277a11.831,11.831,0,0,0,1.106-3.237,26.585,26.585,0,0,0-.736-12.124c-.207-.807-.551-1.973-.707-2.615-.407-1.68-.223-3.591,1.285-3.989,1.093-.289,2.023.759,2.454,1.632.592,1.2.764,2.565,1.462,3.723a6.609,6.609,0,0,0,11.63-.524c1.3-2.564,1.356-4.852,3.4-6.507,1.548-1.256,4.184-.433,3.867,1.48-.358,2.156-2.8,2.821-2.965,5.807a2.177,2.177,0,0,0,1.266,2.263,2.4,2.4,0,0,0,2.551-.452c1.636-1.2,3.274-4.546,6.067-4.282,1.712.162,2.5,1.517,1.9,2.849a7.122,7.122,0,0,1-3.094,2.769c-1.626.88-3.444,1.912-3.842,3.827a2.246,2.246,0,0,0,.4,2.045c1.224,1.253,5.086.223,7.258,1.423a2.254,2.254,0,0,1,1.18,1.359,1.3,1.3,0,0,1-.66,1.223c-1.328.913-3.086.064-5.45,1.073-5.768,2.462-7.726,11.882-16.312,23.941A40.787,40.787,0,0,1,102.215,139.136Z" fill="#000000"></path><path d="M126.119,162.274c-1.212-2.489-6.377-3.163-9-3.163a21.664,21.664,0,0,0-5.359.71,7.194,7.194,0,0,0-3.33,1.857,2.376,2.376,0,0,0-.577,1.351c-.1.5-.129,3.049-.025,17.658a.5.5,0,0,0,.491.489h17.52a.5.5,0,0,0,.489-.489C126.459,162.249,126.427,162.908,126.119,162.274Zm-14.357-1.425a19.077,19.077,0,0,1,10.2-.131,6.686,6.686,0,0,1,2.95,1.522,1.234,1.234,0,0,1,.393,1.139c-.224.929-1.723,1.72-2.94,2.115-5.532,1.8-13.8.108-13.532-2.455C108.92,162.206,109.987,161.408,111.762,160.849Zm-2.952,4.167a6.267,6.267,0,0,0,2.415,1.325c4.133,1.455,11.406,1.1,14.119-1.3.01.686,0,10.909,0,15.157H108.81Z" fill="#000000"></path><path d="M149.135,162.274c-1.224-2.5-6.447-3.183-9.042-3.163a21.7,21.7,0,0,0-5.317.71,7.19,7.19,0,0,0-3.329,1.857,2.373,2.373,0,0,0-.578,1.351c-.106.5-.129,3.04-.025,17.657a.5.5,0,0,0,.492.49h17.52a.5.5,0,0,0,.488-.489C149.473,162.569,149.449,162.915,149.135,162.274Zm-14.357-1.425a19.081,19.081,0,0,1,10.2-.131,6.685,6.685,0,0,1,2.949,1.521,1.231,1.231,0,0,1,.394,1.14c-.224.929-1.723,1.72-2.94,2.115-5.532,1.8-13.794.108-13.532-2.455C131.936,162.206,133,161.408,134.778,160.849Zm-2.952,4.167a6.271,6.271,0,0,0,2.416,1.325c4.133,1.455,11.407,1.1,14.118-1.305.011.688,0,10.916,0,15.158H131.826Z" fill="#000000"></path><path d="M171.849,162.274c-1.224-2.5-6.448-3.183-9.042-3.163a21.7,21.7,0,0,0-5.317.71,7.19,7.19,0,0,0-3.329,1.857,2.37,2.37,0,0,0-.578,1.351c-.1.5-.129,3.052-.025,17.657a.5.5,0,0,0,.491.49H171.57a.5.5,0,0,0,.488-.489C172.187,162.569,172.162,162.915,171.849,162.274Zm-3.752,3.22c-3.784,1.229-10.229.992-12.867-1.154a1.415,1.415,0,0,1-.557-1.685c1.024-1.951,5.758-2.566,7.979-2.566a21.161,21.161,0,0,1,5.042.629,6.694,6.694,0,0,1,2.95,1.521,1.236,1.236,0,0,1,.393,1.14C170.813,164.308,169.314,165.1,168.1,165.494Zm-13.557-.478a6.264,6.264,0,0,0,2.416,1.325c4.131,1.455,11.406,1.1,14.118-1.305.011.688,0,10.916,0,15.158H154.54Z" fill="#000000"></path><path d="M194.807,161.962a5.773,5.773,0,0,0-3.014-1.969,20.072,20.072,0,0,0-10.612-.325,8.173,8.173,0,0,0-3.622,1.734,2.494,2.494,0,0,0-.844,1.641c-.091.443-.128,2.8-.021,17.644a.5.5,0,0,0,.491.489h17.521a.5.5,0,0,0,.488-.489C195.323,162.431,195.35,162.765,194.807,161.962Zm-17.131,3.054c3.525,3.023,13.323,2.851,16.535.03v15.148H177.676Zm3.037.5c-.974-.308-2.658-.981-2.983-2.041-.35-1.141,1.541-2.195,2.9-2.625a19.421,19.421,0,0,1,9.65-.276A8.215,8.215,0,0,1,193.529,162a1.659,1.659,0,0,1,.674,1.209C194.059,165.737,186.111,167.215,180.713,165.515Z" fill="#000000"></path><path d="M137.824,141.535a2.914,2.914,0,0,0-1.392-2.148,11.246,11.246,0,0,0-4.077-1.521,23.838,23.838,0,0,0-5.639-.26c-2.535.188-7.341,1.259-7.385,3.976V159.1a.493.493,0,0,0,.49.488h17.521a.5.5,0,0,0,.488-.489C137.952,141.984,137.853,141.631,137.824,141.535Zm-15.994-1.673c4.423-2.291,12.424-1.443,14.545.705,1.326,1.341-.338,2.553-2.116,3.2-5.482,2.008-13.813.331-13.948-2.152C120.277,141,120.8,140.394,121.83,139.862Zm-1.518,3.595c3.463,2.99,13.433,2.781,16.536,0v15.156H120.312Z" fill="#000000"></path><g><path d="M160.46,140.377a5.779,5.779,0,0,0-3.015-1.969,20.078,20.078,0,0,0-10.611-.326,8.193,8.193,0,0,0-3.623,1.734,2.5,2.5,0,0,0-.842,1.642c-.091.443-.128,2.794-.022,17.644a.5.5,0,0,0,.488.489h17.523a.5.5,0,0,0,.488-.489C160.976,140.89,161,141.181,160.46,140.377Zm-4.77,3.855a19.222,19.222,0,0,1-9.6-.394c-.657-.223-2.23-.847-2.651-1.815-.551-1.265,1.53-2.342,2.847-2.759a19.409,19.409,0,0,1,9.65-.276c1.654.345,4.586,1.611,3.8,3.107C159.045,143.4,156.464,144.061,155.69,144.232Zm-12.361-.787c3.459,3,13.383,2.823,16.536,0v15.167H143.329Z" fill="#000000"></path><path d="M183.554,141.535a2.91,2.91,0,0,0-1.391-2.148,11.26,11.26,0,0,0-4.077-1.521c-4.129-.683-8.09-.294-10.865,1.066-.8.391-2.137,1.254-2.16,2.647V159.1a.492.492,0,0,0,.49.488h17.521a.5.5,0,0,0,.488-.489C183.682,141.984,183.584,141.631,183.554,141.535Zm-.975,17.074H166.043V143.458c2.692,2.331,10.64,3.154,15.331.786a5.465,5.465,0,0,0,1.205-.791Zm-.118-16.553c-1.092,2.335-9.161,3.609-14.126,1.606-2.5-1.007-3.241-2.521-.775-3.8C173.006,137.041,183.824,139.14,182.461,142.056Z" fill="#000000"></path></g><path d="M148.957,118.772a5.774,5.774,0,0,0-3.014-1.97,20.07,20.07,0,0,0-10.611-.325,8.182,8.182,0,0,0-3.623,1.734,2.494,2.494,0,0,0-.843,1.642c-.092.443-.128,2.794-.022,17.643a.5.5,0,0,0,.492.49h17.52a.5.5,0,0,0,.488-.49C149.471,119.6,149.512,119.593,148.957,118.772Zm-17.131,3.075a6.827,6.827,0,0,0,2.549,1.346,20.154,20.154,0,0,0,10.89.167,7.192,7.192,0,0,0,3.1-1.524V137H131.826Zm16.4-1.357c-.686,1.305-3.267,1.965-4.041,2.136a19.211,19.211,0,0,1-9.6-.394c-1.3-.442-3.205-1.44-2.641-2.683.39-.855,1.771-1.554,2.836-1.891a19.409,19.409,0,0,1,9.65-.276C146.082,117.727,149.016,118.994,148.229,120.49Z" fill="#000000"></path><path d="M20.083,137.522a20.344,20.344,0,0,0-10.715-.339c-1.82.4-4.347,1.494-4.552,3.42-.094.461-.129,2.892-.022,17.872a.5.5,0,0,0,.491.49H23.031a.5.5,0,0,0,.488-.49c.084-11.816.123-15.945,0-17.591C23.388,139.077,21.6,137.929,20.083,137.522ZM5.776,142.6c3.4,2.983,13.435,2.95,16.762-.006v15.385H5.776Zm12.434.838c-5.2,1.119-11.686-.248-12.375-2.372-.406-1.256,1.709-2.31,2.972-2.706a19.776,19.776,0,0,1,9.71-.275c1.34.275,3.928,1.192,4.012,2.695C22.474,142.073,20.168,143.021,18.21,143.442Z" fill="#000000"></path><path d="M172.051,119.929a2.908,2.908,0,0,0-1.391-2.147,11.243,11.243,0,0,0-4.077-1.522,23.84,23.84,0,0,0-5.639-.259c-2.535.187-7.342,1.259-7.386,3.976V137.5a.494.494,0,0,0,.491.489H171.57a.5.5,0,0,0,.488-.49C172.18,120.286,172.086,120.014,172.051,119.929Zm-.977.061c-.1,2.516-8.6,4.242-14.153,2.1-1.46-.562-3.06-1.641-2.1-2.888,1.6-2.073,9.307-3.449,14.4-1.119C170.442,118.644,171.1,119.32,171.074,119.99Zm-16.534,1.862c2.693,2.331,10.641,3.155,15.332.787a5.485,5.485,0,0,0,1.2-.793V137H154.54Z" fill="#000000"></path><path d="M48.554,166.3c-3.769-3.338-12.976-11.478-13.28-11.76a.5.5,0,0,0-.7.014c-7.387,8.338-10.116,11.4-11.172,12.621a3.389,3.389,0,0,0-1.123,1.9,5.906,5.906,0,0,0,.978,3.476,20.4,20.4,0,0,0,7.827,7.357,8.141,8.141,0,0,0,3.931,1.109,2.524,2.524,0,0,0,1.7-.671c.437-.4,11.306-12.765,11.85-13.352A.5.5,0,0,0,48.554,166.3Zm-22.7,1.916c3.461.925,6.744,3.877,8.5,6.124a8.974,8.974,0,0,1,2.02,4.179,1.28,1.28,0,0,1-.947,1.461,5.183,5.183,0,0,1-3.083-.557l-.012,0a19.507,19.507,0,0,1-7.515-6.234,8.933,8.933,0,0,1-1.539-3.247C22.956,168.6,23.883,167.69,25.856,168.216Zm-1.075-1.12,10.193-11.511L47.524,166.7l-10.2,11.515C36.734,173.683,29.217,167.1,24.781,167.1Z" fill="#000000"></path><path d="M37.231,37.905c-.095-.247-2.973-7.012-2.973-7.012a.425.425,0,0,0-.324-.251c-.249-.044.315-.24-7.319,3.014a.489.489,0,0,0-.21.66L29.378,41.3a.423.423,0,0,0,.325.25c.246.046-.082.137,7.308-3.009A.432.432,0,0,0,37.231,37.905Zm-1.076-.063-6.083,2.59-2.59-6.083,6.083-2.59Z" fill="#000000"></path><path d="M34.964,63.847a5,5,0,0,0-.623-1.985,8.522,8.522,0,0,0-3.453-3.521A1.413,1.413,0,0,0,28.7,59.9a5.6,5.6,0,0,0,.807,2.057,7.723,7.723,0,0,0,3.311,3.171,1.753,1.753,0,0,0,1.548.025A1.428,1.428,0,0,0,34.964,63.847Zm-1.12.465c-.5.228-2.2-.849-3.174-2.364-1.021-1.591-1.524-3.485-.217-2.73a7.12,7.12,0,0,1,3.432,4.1C34.053,63.861,34.038,64.225,33.844,64.312Z" fill="#000000"></path><path d="M19.643,51.669a2.437,2.437,0,0,0-1.494-1.393,8.281,8.281,0,0,0-4.866-.359c-1.231.272-2.53.971-2.091,2.162a2.433,2.433,0,0,0,1.44,1.2,8.845,8.845,0,0,0,5.14.291C18.724,53.353,19.881,52.642,19.643,51.669Zm-.988.342a1.916,1.916,0,0,1-1.131.608,8.445,8.445,0,0,1-4.147-.112,2.773,2.773,0,0,1-1.162-.621c-.408-.453.5-.816,1.085-.963a7.636,7.636,0,0,1,3.864.054C17.668,51.115,18.916,51.555,18.655,52.011Z" fill="#000000"></path><path d="M61.825,46.854a2.425,2.425,0,0,0-1.532-1.343,8.209,8.209,0,0,0-4.877-.191c-1.229.317-2.5,1.054-2.027,2.226a2.429,2.429,0,0,0,1.483,1.159,8.813,8.813,0,0,0,5.14.111C60.955,48.567,62.092,47.816,61.825,46.854Zm-6.376-.524a7.621,7.621,0,0,1,3.863-.088c2.187.511,1.815,1.358.439,1.627a8.035,8.035,0,0,1-4.144.042C54.121,47.566,53.732,46.829,55.449,46.33Z" fill="#000000"></path><path d="M56.48,56.617a.438.438,0,0,0-.207-.264l-6.906-3.22a.5.5,0,0,0-.677.194l-3.2,6.872a.5.5,0,0,0,.2.67l6.864,3.2a.5.5,0,0,0,.678-.194C56.66,56.51,56.554,56.88,56.48,56.617ZM55.349,57l-2.793,5.99L46.565,60.2l2.794-5.991Z" fill="#000000"></path><path d="M102.073,63.12v17.4a.524.524,0,0,0,.517.517h17.518a.523.523,0,0,0,.517-.517c.131-18.484.011-17.523-.02-17.624a2.092,2.092,0,0,0-.353-1.088A5.871,5.871,0,0,0,117.2,59.8a20.174,20.174,0,0,0-10.625-.32C104.958,59.884,101.9,61.08,102.073,63.12Zm17.518,16.885H103.107V64.946c3.5,2.861,13,2.841,16.484-.009ZM106.033,60.713a19.294,19.294,0,0,1,9.631-.281,7.063,7.063,0,0,1,3.632,1.812c.963,1.292-.739,2.366-2.252,2.922a18.034,18.034,0,0,1-6.884.852c-2.072-.117-5.426-.7-6.709-2.2a1.149,1.149,0,0,1-.049-1.579A5.6,5.6,0,0,1,106.033,60.713Z" fill="#000000"></path><path d="M177.411,106.071l4.716-4.983c.457-.484-.273-1.217-.732-.732l-4.715,4.984C176.222,105.823,176.952,106.556,177.411,106.071Z" fill="#000000"></path><path d="M179.684,111.486c-.626.214-.357,1.213.275,1l6.5-2.21c.627-.213.358-1.213-.275-1Z" fill="#000000"></path><path d="M86.419,138.772a7.048,7.048,0,0,1-5.236,1.485.519.519,0,0,0-.517.518.526.526,0,0,0,.517.517,8.058,8.058,0,0,0,5.968-1.788.519.519,0,0,0,0-.732A.526.526,0,0,0,86.419,138.772Z" fill="#000000"></path><path d="M82.82,115.894a19.544,19.544,0,0,1-18.085-10.327c-.5-.911-.947-1.847-1.364-2.8a.518.518,0,0,0-.708-.186.527.527,0,0,0-.185.708,26.2,26.2,0,0,0,3.465,5.939,20.645,20.645,0,0,0,16.877,7.7.518.518,0,0,0,0-1.035Z" fill="#000000"></path><path d="M161.735,94.69l.832-1.739c.286-.6-.606-1.123-.893-.522l-.832,1.739C160.556,94.766,161.448,95.291,161.735,94.69Z" fill="#000000"></path><path d="M166.068,101.691a5.059,5.059,0,0,0,1.408-2.389.518.518,0,0,0-1-.275,4.325,4.325,0,0,1-1.141,1.932C164.856,101.422,165.589,102.154,166.068,101.691Z" fill="#000000"></path><path d="M119.249,95.09l-1.4,2.615c-.314.587.579,1.11.894.522l1.4-2.615C120.457,95.026,119.564,94.5,119.249,95.09Z" fill="#000000"></path><path d="M122.992,104.144l1.36-2.222c.349-.569-.546-1.089-.893-.522l-1.361,2.222C121.749,104.192,122.644,104.712,122.992,104.144Z" fill="#000000"></path></g></svg>